<svg xmlns="http://www.w3.org/2000/svg" viewBox="-100 -100 200 200">
    <style>* { vector-effect: non-scaling-stroke; stroke-linecap: square; }</style>
    <g transform="rotate(180)" stroke="black" fill="white" vector-effect="non-scaling-stroke">
      <g stroke-width="4" data-source="stroke(4, undefined)"><circle cx="0" cy="0" r="100" /><g data-source="scale(0.8333333333333334)" transform="scale(0.8333333333333334, 0.8333333333333334)"><circle cx="0" cy="0" r="100" /></g><g data-source="radial(1, 0, false)"><g data-source="radial(1, 0, false)" data-child="0" transform="translate(0, 0) scale(1) rotate(0)"><line x1="0" y1="83.33333333333334" x2="0" y2="100" /></g> <g data-source="radial(1, 0, false)" data-child="1" transform="translate(0, 0) scale(1) rotate(13.846153846153847)"><line x1="0" y1="83.33333333333334" x2="0" y2="100" /></g> <g data-source="radial(1, 0, false)" data-child="2" transform="translate(0, 0) scale(1) rotate(27.692307692307693)"><line x1="0" y1="83.33333333333334" x2="0" y2="100" /></g> <g data-source="radial(1, 0, false)" data-child="3" transform="translate(0, 0) scale(1) rotate(41.53846153846154)"><line x1="0" y1="83.33333333333334" x2="0" y2="100" /></g> <g data-source="radial(1, 0, false)" data-child="4" transform="translate(0, 0) scale(1) rotate(55.38461538461539)"><line x1="0" y1="83.33333333333334" x2="0" y2="100" /></g> <g data-source="radial(1, 0, false)" data-child="5" transform="translate(0, 0) scale(1) rotate(69.23076923076923)"><line x1="0" y1="83.33333333333334" x2="0" y2="100" /></g> <g data-source="radial(1, 0, false)" data-child="6" transform="translate(0, 0) scale(1) rotate(83.07692307692308)"><line x1="0" y1="83.33333333333334" x2="0" y2="100" /></g> <g data-source="radial(1, 0, false)" data-child="7" transform="translate(0, 0) scale(1) rotate(96.92307692307692)"><line x1="0" y1="83.33333333333334" x2="0" y2="100" /></g> <g data-source="radial(1, 0, false)" data-child="8" transform="translate(0, 0) scale(1) rotate(110.76923076923077)"><line x1="0" y1="83.33333333333334" x2="0" y2="100" /></g> <g data-source="radial(1, 0, false)" data-child="9" transform="translate(0, 0) scale(1) rotate(124.61538461538461)"><line x1="0" y1="83.33333333333334" x2="0" y2="100" /></g> <g data-source="radial(1, 0, false)" data-child="10" transform="translate(0, 0) scale(1) rotate(138.46153846153845)"><line x1="0" y1="83.33333333333334" x2="0" y2="100" /></g> <g data-source="radial(1, 0, false)" data-child="11" transform="translate(0, 0) scale(1) rotate(152.30769230769232)"><line x1="0" y1="83.33333333333334" x2="0" y2="100" /></g> <g data-source="radial(1, 0, false)" data-child="12" transform="translate(0, 0) scale(1) rotate(166.15384615384616)"><line x1="0" y1="83.33333333333334" x2="0" y2="100" /></g> <g data-source="radial(1, 0, false)" data-child="13" transform="translate(0, 0) scale(1) rotate(180)"><line x1="0" y1="83.33333333333334" x2="0" y2="100" /></g> <g data-source="radial(1, 0, false)" data-child="14" transform="translate(0, 0) scale(1) rotate(193.84615384615384)"><line x1="0" y1="83.33333333333334" x2="0" y2="100" /></g> <g data-source="radial(1, 0, false)" data-child="15" transform="translate(0, 0) scale(1) rotate(207.69230769230768)"><line x1="0" y1="83.33333333333334" x2="0" y2="100" /></g> <g data-source="radial(1, 0, false)" data-child="16" transform="translate(0, 0) scale(1) rotate(221.53846153846155)"><line x1="0" y1="83.33333333333334" x2="0" y2="100" /></g> <g data-source="radial(1, 0, false)" data-child="17" transform="translate(0, 0) scale(1) rotate(235.3846153846154)"><line x1="0" y1="83.33333333333334" x2="0" y2="100" /></g> <g data-source="radial(1, 0, false)" data-child="18" transform="translate(0, 0) scale(1) rotate(249.23076923076923)"><line x1="0" y1="83.33333333333334" x2="0" y2="100" /></g> <g data-source="radial(1, 0, false)" data-child="19" transform="translate(0, 0) scale(1) rotate(263.0769230769231)"><line x1="0" y1="83.33333333333334" x2="0" y2="100" /></g> <g data-source="radial(1, 0, false)" data-child="20" transform="translate(0, 0) scale(1) rotate(276.9230769230769)"><line x1="0" y1="83.33333333333334" x2="0" y2="100" /></g> <g data-source="radial(1, 0, false)" data-child="21" transform="translate(0, 0) scale(1) rotate(290.7692307692308)"><line x1="0" y1="83.33333333333334" x2="0" y2="100" /></g> <g data-source="radial(1, 0, false)" data-child="22" transform="translate(0, 0) scale(1) rotate(304.61538461538464)"><line x1="0" y1="83.33333333333334" x2="0" y2="100" /></g> <g data-source="radial(1, 0, false)" data-child="23" transform="translate(0, 0) scale(1) rotate(318.46153846153845)"><line x1="0" y1="83.33333333333334" x2="0" y2="100" /></g> <g data-source="radial(1, 0, false)" data-child="24" transform="translate(0, 0) scale(1) rotate(332.3076923076923)"><line x1="0" y1="83.33333333333334" x2="0" y2="100" /></g> <g data-source="radial(1, 0, false)" data-child="25" transform="translate(0, 0) scale(1) rotate(346.15384615384613)"><line x1="0" y1="83.33333333333334" x2="0" y2="100" /></g></g><polygon points="0,100 -86.6025,-50 86.6025,-50" /><g data-source="invert" transform="rotate(180)"><g data-source="radial(0.21, 0.7142857142857143, false)"><g data-source="radial(0.21, 0.7142857142857143, false)" data-child="0" transform="translate(4.373738568383404e-15, 71.42857142857143) scale(0.21) rotate(0)"><circle cx="0" cy="0" r="100" /><g data-source="double(0.1)" transform="scale(0.9)"><circle cx="0" cy="0" r="100" /></g><g data-source="invert" transform="rotate(180)"><text font-size="100px" text-anchor="middle" dominant-baseline="central">ğ“€‡</text></g></g> <g data-source="radial(0.21, 0.7142857142857143, false)" data-child="1" transform="translate(-61.858957413174195, -35.714285714285694) scale(0.21) rotate(120)"><circle cx="0" cy="0" r="100" /><g data-source="double(0.1)" transform="scale(0.9)"><circle cx="0" cy="0" r="100" /></g><g data-source="invert" transform="rotate(180)"><text font-size="100px" text-anchor="middle" dominant-baseline="central">ğ“»</text></g></g> <g data-source="radial(0.21, 0.7142857142857143, false)" data-child="2" transform="translate(61.85895741317417, -35.714285714285744) scale(0.21) rotate(240)"><circle cx="0" cy="0" r="100" /><g data-source="double(0.1)" transform="scale(0.9)"><circle cx="0" cy="0" r="100" /></g><g data-source="invert" transform="rotate(180)"><text font-size="100px" text-anchor="middle" dominant-baseline="central">ğ“†£</text></g></g></g></g><g data-source="radial(0.3333333333333333, 0.9166666666666666, false)"><g data-source="radial(0.3333333333333333, 0.9166666666666666, false)" data-child="0" transform="translate(5.6129644960920355e-15, 91.66666666666666) scale(0.3333333333333333) rotate(0)"><g stroke-width="1" data-source="stroke(1, undefined)"><g fill="none"><path d="M 90.630778703665 -42.261826174069924 A 100 100 0 0 0 -90.630778703665 -42.261826174069924 " /></g></g><g data-source="double(0.2)" transform="scale(0.8)"><g stroke-width="1" data-source="stroke(1, undefined)"><g fill="none"><path d="M 90.630778703665 -42.261826174069924 A 100 100 0 0 0 -90.630778703665 -42.261826174069924 " /></g></g></g></g> <g data-source="radial(0.3333333333333333, 0.9166666666666666, false)" data-child="1" transform="translate(-79.38566201357355, -45.83333333333331) scale(0.3333333333333333) rotate(120)"><g stroke-width="1" data-source="stroke(1, undefined)"><g fill="none"><path d="M 90.630778703665 -42.261826174069924 A 100 100 0 0 0 -90.630778703665 -42.261826174069924 " /></g></g><g data-source="double(0.2)" transform="scale(0.8)"><g stroke-width="1" data-source="stroke(1, undefined)"><g fill="none"><path d="M 90.630778703665 -42.261826174069924 A 100 100 0 0 0 -90.630778703665 -42.261826174069924 " /></g></g></g></g> <g data-source="radial(0.3333333333333333, 0.9166666666666666, false)" data-child="2" transform="translate(79.38566201357351, -45.83333333333337) scale(0.3333333333333333) rotate(240)"><g stroke-width="1" data-source="stroke(1, undefined)"><g fill="none"><path d="M 90.630778703665 -42.261826174069924 A 100 100 0 0 0 -90.630778703665 -42.261826174069924 " /></g></g><g data-source="double(0.2)" transform="scale(0.8)"><g stroke-width="1" data-source="stroke(1, undefined)"><g fill="none"><path d="M 90.630778703665 -42.261826174069924 A 100 100 0 0 0 -90.630778703665 -42.261826174069924 " /></g></g></g></g></g><g data-source="scale(0.5)" transform="scale(0.5, 0.5)"><circle cx="0" cy="0" r="100" /><circle cx="0" cy="0" r="100" /><g data-source="scale(0.33333333333333337)" transform="scale(0.33333333333333337, 0.33333333333333337)"><circle cx="0" cy="0" r="100" /></g><g data-source="radial(1, 0, false)"><g data-source="radial(1, 0, false)" data-child="0" transform="translate(0, 0) scale(1) rotate(0)"><line x1="0" y1="33.333333333333336" x2="0" y2="100" /></g> <g data-source="radial(1, 0, false)" data-child="1" transform="translate(0, 0) scale(1) rotate(6)"><line x1="0" y1="33.333333333333336" x2="0" y2="100" /></g> <g data-source="radial(1, 0, false)" data-child="2" transform="translate(0, 0) scale(1) rotate(12)"><line x1="0" y1="33.333333333333336" x2="0" y2="100" /></g> <g data-source="radial(1, 0, false)" data-child="3" transform="translate(0, 0) scale(1) rotate(18)"><line x1="0" y1="33.333333333333336" x2="0" y2="100" /></g> <g data-source="radial(1, 0, false)" data-child="4" transform="translate(0, 0) scale(1) rotate(24)"><line x1="0" y1="33.333333333333336" x2="0" y2="100" /></g> <g data-source="radial(1, 0, false)" data-child="5" transform="translate(0, 0) scale(1) rotate(30)"><line x1="0" y1="33.333333333333336" x2="0" y2="100" /></g> <g data-source="radial(1, 0, false)" data-child="6" transform="translate(0, 0) scale(1) rotate(36)"><line x1="0" y1="33.333333333333336" x2="0" y2="100" /></g> <g data-source="radial(1, 0, false)" data-child="7" transform="translate(0, 0) scale(1) rotate(42)"><line x1="0" y1="33.333333333333336" x2="0" y2="100" /></g> <g data-source="radial(1, 0, false)" data-child="8" transform="translate(0, 0) scale(1) rotate(48)"><line x1="0" y1="33.333333333333336" x2="0" y2="100" /></g> <g data-source="radial(1, 0, false)" data-child="9" transform="translate(0, 0) scale(1) rotate(54)"><line x1="0" y1="33.333333333333336" x2="0" y2="100" /></g> <g data-source="radial(1, 0, false)" data-child="10" transform="translate(0, 0) scale(1) rotate(60)"><line x1="0" y1="33.333333333333336" x2="0" y2="100" /></g> <g data-source="radial(1, 0, false)" data-child="11" transform="translate(0, 0) scale(1) rotate(66)"><line x1="0" y1="33.333333333333336" x2="0" y2="100" /></g> <g data-source="radial(1, 0, false)" data-child="12" transform="translate(0, 0) scale(1) rotate(72)"><line x1="0" y1="33.333333333333336" x2="0" y2="100" /></g> <g data-source="radial(1, 0, false)" data-child="13" transform="translate(0, 0) scale(1) rotate(78)"><line x1="0" y1="33.333333333333336" x2="0" y2="100" /></g> <g data-source="radial(1, 0, false)" data-child="14" transform="translate(0, 0) scale(1) rotate(84)"><line x1="0" y1="33.333333333333336" x2="0" y2="100" /></g> <g data-source="radial(1, 0, false)" data-child="15" transform="translate(0, 0) scale(1) rotate(90)"><line x1="0" y1="33.333333333333336" x2="0" y2="100" /></g> <g data-source="radial(1, 0, false)" data-child="16" transform="translate(0, 0) scale(1) rotate(96)"><line x1="0" y1="33.333333333333336" x2="0" y2="100" /></g> <g data-source="radial(1, 0, false)" data-child="17" transform="translate(0, 0) scale(1) rotate(102)"><line x1="0" y1="33.333333333333336" x2="0" y2="100" /></g> <g data-source="radial(1, 0, false)" data-child="18" transform="translate(0, 0) scale(1) rotate(108)"><line x1="0" y1="33.333333333333336" x2="0" y2="100" /></g> <g data-source="radial(1, 0, false)" data-child="19" transform="translate(0, 0) scale(1) rotate(114)"><line x1="0" y1="33.333333333333336" x2="0" y2="100" /></g> <g data-source="radial(1, 0, false)" data-child="20" transform="translate(0, 0) scale(1) rotate(120)"><line x1="0" y1="33.333333333333336" x2="0" y2="100" /></g> <g data-source="radial(1, 0, false)" data-child="21" transform="translate(0, 0) scale(1) rotate(126)"><line x1="0" y1="33.333333333333336" x2="0" y2="100" /></g> <g data-source="radial(1, 0, false)" data-child="22" transform="translate(0, 0) scale(1) rotate(132)"><line x1="0" y1="33.333333333333336" x2="0" y2="100" /></g> <g data-source="radial(1, 0, false)" data-child="23" transform="translate(0, 0) scale(1) rotate(138)"><line x1="0" y1="33.333333333333336" x2="0" y2="100" /></g> <g data-source="radial(1, 0, false)" data-child="24" transform="translate(0, 0) scale(1) rotate(144)"><line x1="0" y1="33.333333333333336" x2="0" y2="100" /></g> <g data-source="radial(1, 0, false)" data-child="25" transform="translate(0, 0) scale(1) rotate(150)"><line x1="0" y1="33.333333333333336" x2="0" y2="100" /></g> <g data-source="radial(1, 0, false)" data-child="26" transform="translate(0, 0) scale(1) rotate(156)"><line x1="0" y1="33.333333333333336" x2="0" y2="100" /></g> <g data-source="radial(1, 0, false)" data-child="27" transform="translate(0, 0) scale(1) rotate(162)"><line x1="0" y1="33.333333333333336" x2="0" y2="100" /></g> <g data-source="radial(1, 0, false)" data-child="28" transform="translate(0, 0) scale(1) rotate(168)"><line x1="0" y1="33.333333333333336" x2="0" y2="100" /></g> <g data-source="radial(1, 0, false)" data-child="29" transform="translate(0, 0) scale(1) rotate(174)"><line x1="0" y1="33.333333333333336" x2="0" y2="100" /></g> <g data-source="radial(1, 0, false)" data-child="30" transform="translate(0, 0) scale(1) rotate(180)"><line x1="0" y1="33.333333333333336" x2="0" y2="100" /></g> <g data-source="radial(1, 0, false)" data-child="31" transform="translate(0, 0) scale(1) rotate(186)"><line x1="0" y1="33.333333333333336" x2="0" y2="100" /></g> <g data-source="radial(1, 0, false)" data-child="32" transform="translate(0, 0) scale(1) rotate(192)"><line x1="0" y1="33.333333333333336" x2="0" y2="100" /></g> <g data-source="radial(1, 0, false)" data-child="33" transform="translate(0, 0) scale(1) rotate(198)"><line x1="0" y1="33.333333333333336" x2="0" y2="100" /></g> <g data-source="radial(1, 0, false)" data-child="34" transform="translate(0, 0) scale(1) rotate(204)"><line x1="0" y1="33.333333333333336" x2="0" y2="100" /></g> <g data-source="radial(1, 0, false)" data-child="35" transform="translate(0, 0) scale(1) rotate(210)"><line x1="0" y1="33.333333333333336" x2="0" y2="100" /></g> <g data-source="radial(1, 0, false)" data-child="36" transform="translate(0, 0) scale(1) rotate(216)"><line x1="0" y1="33.333333333333336" x2="0" y2="100" /></g> <g data-source="radial(1, 0, false)" data-child="37" transform="translate(0, 0) scale(1) rotate(222)"><line x1="0" y1="33.333333333333336" x2="0" y2="100" /></g> <g data-source="radial(1, 0, false)" data-child="38" transform="translate(0, 0) scale(1) rotate(228)"><line x1="0" y1="33.333333333333336" x2="0" y2="100" /></g> <g data-source="radial(1, 0, false)" data-child="39" transform="translate(0, 0) scale(1) rotate(234)"><line x1="0" y1="33.333333333333336" x2="0" y2="100" /></g> <g data-source="radial(1, 0, false)" data-child="40" transform="translate(0, 0) scale(1) rotate(240)"><line x1="0" y1="33.333333333333336" x2="0" y2="100" /></g> <g data-source="radial(1, 0, false)" data-child="41" transform="translate(0, 0) scale(1) rotate(246)"><line x1="0" y1="33.333333333333336" x2="0" y2="100" /></g> <g data-source="radial(1, 0, false)" data-child="42" transform="translate(0, 0) scale(1) rotate(252)"><line x1="0" y1="33.333333333333336" x2="0" y2="100" /></g> <g data-source="radial(1, 0, false)" data-child="43" transform="translate(0, 0) scale(1) rotate(258)"><line x1="0" y1="33.333333333333336" x2="0" y2="100" /></g> <g data-source="radial(1, 0, false)" data-child="44" transform="translate(0, 0) scale(1) rotate(264)"><line x1="0" y1="33.333333333333336" x2="0" y2="100" /></g> <g data-source="radial(1, 0, false)" data-child="45" transform="translate(0, 0) scale(1) rotate(270)"><line x1="0" y1="33.333333333333336" x2="0" y2="100" /></g> <g data-source="radial(1, 0, false)" data-child="46" transform="translate(0, 0) scale(1) rotate(276)"><line x1="0" y1="33.333333333333336" x2="0" y2="100" /></g> <g data-source="radial(1, 0, false)" data-child="47" transform="translate(0, 0) scale(1) rotate(282)"><line x1="0" y1="33.333333333333336" x2="0" y2="100" /></g> <g data-source="radial(1, 0, false)" data-child="48" transform="translate(0, 0) scale(1) rotate(288)"><line x1="0" y1="33.333333333333336" x2="0" y2="100" /></g> <g data-source="radial(1, 0, false)" data-child="49" transform="translate(0, 0) scale(1) rotate(294)"><line x1="0" y1="33.333333333333336" x2="0" y2="100" /></g> <g data-source="radial(1, 0, false)" data-child="50" transform="translate(0, 0) scale(1) rotate(300)"><line x1="0" y1="33.333333333333336" x2="0" y2="100" /></g> <g data-source="radial(1, 0, false)" data-child="51" transform="translate(0, 0) scale(1) rotate(306)"><line x1="0" y1="33.333333333333336" x2="0" y2="100" /></g> <g data-source="radial(1, 0, false)" data-child="52" transform="translate(0, 0) scale(1) rotate(312)"><line x1="0" y1="33.333333333333336" x2="0" y2="100" /></g> <g data-source="radial(1, 0, false)" data-child="53" transform="translate(0, 0) scale(1) rotate(318)"><line x1="0" y1="33.333333333333336" x2="0" y2="100" /></g> <g data-source="radial(1, 0, false)" data-child="54" transform="translate(0, 0) scale(1) rotate(324)"><line x1="0" y1="33.333333333333336" x2="0" y2="100" /></g> <g data-source="radial(1, 0, false)" data-child="55" transform="translate(0, 0) scale(1) rotate(330)"><line x1="0" y1="33.333333333333336" x2="0" y2="100" /></g> <g data-source="radial(1, 0, false)" data-child="56" transform="translate(0, 0) scale(1) rotate(336)"><line x1="0" y1="33.333333333333336" x2="0" y2="100" /></g> <g data-source="radial(1, 0, false)" data-child="57" transform="translate(0, 0) scale(1) rotate(342)"><line x1="0" y1="33.333333333333336" x2="0" y2="100" /></g> <g data-source="radial(1, 0, false)" data-child="58" transform="translate(0, 0) scale(1) rotate(348)"><line x1="0" y1="33.333333333333336" x2="0" y2="100" /></g> <g data-source="radial(1, 0, false)" data-child="59" transform="translate(0, 0) scale(1) rotate(354)"><line x1="0" y1="33.333333333333336" x2="0" y2="100" /></g></g><g stroke-width="2" data-source="stroke(2, undefined)"><g data-source="scale(0.16666666666666666)" transform="scale(0.16666666666666666, 0.16666666666666666)"><circle cx="0" cy="0" r="100" /><polygon points="0,100 -95.1057,-30.9017 58.7785,-80.9017 58.7785,80.9017 -95.1057,30.9017 0,-100 95.1057,30.9017 -58.7785,80.9017 -58.7785,-80.9017 95.1057,-30.9017" /><g data-source="scale(0.3333333333333333)" transform="scale(0.3333333333333333, 0.3333333333333333)"><g data-source="invert" transform="rotate(180)"><polygon points="0,100 -86.6025,-50 86.6025,-50" /></g></g></g></g><g data-source="rotate(0.5555555555555556)" transform="rotate(200)"><g data-source="fill(black)" fill="black"><g transform="rotate(-90)"><path d="M -98.7688 15.6434 A 100 100 0 0 1 98.7688 15.6434 A 100 100 0 1 0 -98.7688 15.6434 " /></g></g></g></g></g>
    </g>
  </svg>