<svg xmlns="http://www.w3.org/2000/svg" viewBox="-100 -100 200 200">
    <style>* { vector-effect: non-scaling-stroke; stroke-linecap: square; }</style>
    <g transform="rotate(180)" stroke="black" fill="white" vector-effect="non-scaling-stroke">
      <g stroke-width="2" data-source="stroke(2, undefined)"><g data-source="scale(0.9)" transform="scale(0.9, 0.9)"><circle cx="0" cy="0" r="100" /><polygon points="0,100 -78.1831,62.349 -97.4928,-22.2521 -43.3884,-90.0969 43.3884,-90.0969 97.4928,-22.2521 78.1831,62.349" /><polygon points="0,100 -97.4928,22.2521 -43.3884,-90.0969 78.1831,-62.349 78.1831,62.349 -43.3884,90.0969 -97.4928,-22.2521 0,-100 97.4928,-22.2521 43.3884,90.0969 -78.1831,62.349 -78.1831,-62.349 43.3884,-90.0969 97.4928,22.2521" /><polygon points="0,100 -97.4928,-22.2521 43.3884,-90.0969 78.1831,62.349 -78.1831,62.349 -43.3884,-90.0969 97.4928,-22.2521" /><g data-source="radial(0.125, 1, false)"><g data-source="radial(0.125, 1, false)" data-child="0" transform="translate(6.123233995736766e-15, 100) scale(0.125) rotate(0)"><circle cx="0" cy="0" r="100" /><g data-source="invert" transform="rotate(180)"><text font-size="100px" text-anchor="middle" dominant-baseline="central">♁</text></g></g> <g data-source="radial(0.125, 1, false)" data-child="1" transform="translate(-78.18314824680297, 62.34898018587336) scale(0.125) rotate(51.42857142857143)"><circle cx="0" cy="0" r="100" /><g data-source="invert" transform="rotate(180)"><text font-size="100px" text-anchor="middle" dominant-baseline="central">♂</text></g></g> <g data-source="radial(0.125, 1, false)" data-child="2" transform="translate(-97.49279121818236, -22.252093395631427) scale(0.125) rotate(102.85714285714286)"><circle cx="0" cy="0" r="100" /><g data-source="invert" transform="rotate(180)"><text font-size="100px" text-anchor="middle" dominant-baseline="central">♃</text></g></g> <g data-source="radial(0.125, 1, false)" data-child="3" transform="translate(-43.38837391175583, -90.09688679024191) scale(0.125) rotate(154.28571428571428)"><circle cx="0" cy="0" r="100" /><g data-source="invert" transform="rotate(180)"><text font-size="100px" text-anchor="middle" dominant-baseline="central">♄</text></g></g> <g data-source="radial(0.125, 1, false)" data-child="4" transform="translate(43.38837391175579, -90.09688679024192) scale(0.125) rotate(205.71428571428572)"><circle cx="0" cy="0" r="100" /><g data-source="invert" transform="rotate(180)"><text font-size="100px" text-anchor="middle" dominant-baseline="central">♅</text></g></g> <g data-source="radial(0.125, 1, false)" data-child="5" transform="translate(97.49279121818235, -22.252093395631466) scale(0.125) rotate(257.14285714285717)"><circle cx="0" cy="0" r="100" /><g data-source="invert" transform="rotate(180)"><text font-size="100px" text-anchor="middle" dominant-baseline="central">♆</text></g></g> <g data-source="radial(0.125, 1, false)" data-child="6" transform="translate(78.18314824680299, 62.34898018587334) scale(0.125) rotate(308.57142857142856)"><circle cx="0" cy="0" r="100" /><g data-source="invert" transform="rotate(180)"><text font-size="100px" text-anchor="middle" dominant-baseline="central">♇</text></g></g></g></g><g data-source="scale(0.15)" transform="scale(0.15, 0.15)"><circle cx="0" cy="0" r="100" /><g transform="translate(-200, 0)"><circle cx="0" cy="0" r="100" /><g transform="rotate(-90)"><path d="M -98.7688 -15.6434 A 100 100 0 1 0 98.7688 -15.6434 A 100 100 0 0 1 -98.7688 -15.6434 " /></g></g><g transform="translate(200, 0)"><circle cx="0" cy="0" r="100" /><g transform="rotate(-90)"><path d="M -98.7688 15.6434 A 100 100 0 0 1 98.7688 15.6434 A 100 100 0 1 0 -98.7688 15.6434 " /></g></g></g></g>
    </g>
  </svg>