<svg xmlns="http://www.w3.org/2000/svg" viewBox="-100 -100 200 200">
    <style>* { vector-effect: non-scaling-stroke; stroke-linecap: square; }</style>
    <g transform="rotate(180)" stroke="black" fill="white" vector-effect="non-scaling-stroke">
      <g data-source="fill(black)" fill="black"><circle cx="0" cy="0" r="100" /></g><g stroke="white" data-source="stroke(undefined, white)"><g data-source="fill(red)" fill="red"><g data-source="fill(red)" fill="red"><polygon points="0,100 -95.1057,30.9017 -58.7785,-80.9017 58.7785,-80.9017 95.1057,30.9017" /></g><g data-source="scale(0.9)" transform="scale(0.9, 0.9)"><g data-source="fill(gray)" fill="gray"><polygon points="0,100 -95.1057,30.9017 -58.7785,-80.9017 58.7785,-80.9017 95.1057,30.9017" /></g></g><g data-source="scale(0.91)" transform="scale(0.91, 0.91)"><g data-source="fill(pink)" fill="pink"><text font-size="10px"><textPath path="M 0 100 L -95.1057 30.9017 L -58.7785 -80.9017 L 58.7785 -80.9017 L 95.1057 30.9017 L 0 100">ςτΘΒΚΚΩπυυΞωκΞΣιΞΠςδΛωτςςθΣλΦφωΜΒωρθχΒγηΖψδΙΔΑηΦΜΞυΩΝΥΟΛΠ΢ΑΒμΩφηΜΧΙΣΑΞΑΣωΟθΖΖχςνΨΘζοΦΘρ΢δΦγζπΙψΓΕβωΞΞνπσβοΧξΙυιρφΘΘγμτΜβολαΨΥβΓιηΣζχυτηΒλσσΑΨΣυγχΕΚμΨρ</textPath></text></g></g></g></g><g data-source="scale(0.9)" transform="scale(0.9, 0.9)"><polygon points="0,100 -58.7785,-80.9017 95.1057,30.9017 -95.1057,30.9017 58.7785,-80.9017" /><g data-source="scale(0.8)" transform="scale(0.8, 0.8)"><g data-source="fill(cyan)" fill="cyan"><text font-size="10px"><textPath path="M 0 100 L -58.7785 -80.9017 L 95.1057 30.9017 L -95.1057 30.9017 L 58.7785 -80.9017 L 0 100">νβΒυθΣμΚςνψδδΘηΗυκφΚΩΥΗσδκιοξΗσΡξςμΚΚΨΝοχΨβΒΦμΘαΚΣςλοΖΖεΠΗνΨλιξβΘκςλΒυΤπθΩαφΠσνΚΥΕΔΞΧψΖηΙΡΙΩ΢ΓβΝξΙγΥΘΩδΑΕξΘΓζΕΔΨξξΨΧψςφθΖμΟχΦμαΞΞΙΑινΑιαχΤΨφλΨΙΜΕυκψθξ</textPath></text></g></g><g data-source="scale(0.75)" transform="scale(0.75, 0.75)"><g data-source="fill(black)" fill="black"><polygon points="0,100 -58.7785,-80.9017 95.1057,30.9017 -95.1057,30.9017 58.7785,-80.9017" /></g></g></g><g data-source="scale(0.25)" transform="scale(0.25, 0.25)"><g data-source="fill(blue)" fill="blue"><circle cx="0" cy="0" r="100" /></g><g data-source="fill(green)" fill="green"><polygon points="0,100 -97.4928,-22.2521 43.3884,-90.0969 78.1831,62.349 -78.1831,62.349 -43.3884,-90.0969 97.4928,-22.2521" /></g><g data-source="scale(0.9)" transform="scale(0.9, 0.9)"><g data-source="fill(orange)" fill="orange"><polygon points="0,100 -97.4928,-22.2521 43.3884,-90.0969 78.1831,62.349 -78.1831,62.349 -43.3884,-90.0969 97.4928,-22.2521" /></g></g><g data-source="invert" transform="rotate(180)"><text font-size="100px" text-anchor="middle" dominant-baseline="central">υ</text></g></g>
    </g>
  </svg>