<svg xmlns="http://www.w3.org/2000/svg" viewBox="-100 -100 200 200">
    <style>* { vector-effect: non-scaling-stroke; stroke-linecap: square; }</style>
    <g transform="rotate(180)" stroke="black" fill="white" vector-effect="non-scaling-stroke">
      <g stroke-width="2" data-source="stroke(2, undefined)"><circle cx="0" cy="0" r="100" /><g data-source="double(0.05)" transform="scale(0.95)"><circle cx="0" cy="0" r="100" /></g><g data-source="scale(0.95)" transform="scale(0.95, 0.95)"><g data-source="radial(1, 0, false)"><g data-source="radial(1, 0, false)" data-child="0" transform="translate(0, 0) scale(1) rotate(0)"><g data-source="fill(none)" fill="none"><polygon points="0,100 -86.6025,50 -86.6025,-50 0,-100 86.6025,-50 86.6025,50 0,100 -86.6025,50 -86.6025,-50 0,-100 86.6025,-50 86.6025,50" /></g></g> <g data-source="radial(1, 0, false)" data-child="1" transform="translate(0, 0) scale(1) rotate(90)"><g data-source="fill(none)" fill="none"><polygon points="0,100 -100,0 0,-100 100,0 0,100 -100,0 0,-100 100,0 0,100 -100,0 0,-100 100,0" /></g></g> <g data-source="radial(1, 0, false)" data-child="2" transform="translate(0, 0) scale(1) rotate(180)"><g data-source="fill(none)" fill="none"><polygon points="0,100 -86.6025,-50 86.6025,-50 0,100 -86.6025,-50 86.6025,-50 0,100 -86.6025,-50 86.6025,-50 0,100 -86.6025,-50 86.6025,-50" /></g></g> <g data-source="radial(1, 0, false)" data-child="3" transform="translate(0, 0) scale(1) rotate(270)"><g data-source="fill(none)" fill="none"><polygon points="0,100 -50,-86.6025 86.6025,50 -100,0 86.6025,-50 -50,86.6025 0,-100 50,86.6025 -86.6025,-50 100,0 -86.6025,50 50,-86.6025" /></g></g></g></g><g data-source="scale(0.96)" transform="scale(0.96, 0.96)"><g stroke="none" data-source="stroke(undefined, none)"><g data-source="fill(black)" fill="black"><g stroke-width="1" data-source="stroke(1, undefined)"><text font-size="4px"><textPath path="M 0 100 A 100 100 0 0 1 0 -100 A 100 100 0 0 1 0 100">ᚭᛗᛅᛠᛌᛍᛟᛍᚤᛃᛀᛡᚷᛙᚠᛧᛕᚨᚪᚢᛙᚽᛥᛆᚼᛣᛓᚦᛍᚬᚴᛩᚫᛁᛈᚷᚠᚨᛆᛎᛏᛎᚱᚹᚴᛕᛣᚰᛞᛪᚻᚺᛙᛟᛠᛒᚧᛑᛟᚥᚵᛢᛪᛧᚠᛚᚺᚤᛨᚽᛙᛞᚪᛊᛤᛆᛪᛩᚴᛟᛃᚼᛇᛀᛛᚠᛀᛡᛇᛪᛡᛙᚴᚨᛙᚷᛏᛃᚿᛋᛗᛖᚯᛅᛒᚯᚼᛛᚻᛇᚹᚲᚷᚿᚶᛪᛋᚳᛣᚡᛧᛤᛝᚡᛣᛗᚻᛈᛛᚯᛪᚸᚫᚵᛝᚧᛌᛁᚦᛀᚤᛥᚡᛀᚸᛩᚬᚡᛜᛨᛟᚰᚬᚬᛕᛂᛐᛓᛜᛋᚷᛐᛎᛁᚰᛈᛟᛁᛌᛘᚧᚰᛔᛘᚶᚷᛁᛉᛕᚱᚱᛠᛪᚰᛜᚰᛍᛑᚬᚱᛍᛃᚯᛡᚠᚬᚵᚮᛁᛔᛖᚲᛡᛣᛦᚳᛎᛩᛈᚰᚣᛝᛍᛍᚯᛉᚦᚰᛨᚷᛟᛂᚰᚫᛙᛦᚪᚡᛂᚩᚽᛞᛔᚶᛊᛔᛇᛠᚠᛧᚸᚴᛑᚻᛍᛉᚫᚾᚤᛇᚯᚣᚲᚲᛐᛨᚿᚢᛅᚱᚣᛋᚮᚮᛠᛥᛚᚵᚣᚷᛄᛗᛍᚦᛥᚸᛞᛇᛝᛥᚳᚠᛈᛓᚡᛠᛋᚫᚢᛛᚹᚥᚨᛦᚢᛚᛉᛉᛅᚵᚬᛟᚢᛤᛢᛑᚤᚫᚶᚨᛚᛋᛝᛧᛁᛚᛚᛪᚺᚢᛨᚠᚳᚮᛁᛄᛨᛞᛗᚠᛈᚵᚻᛋᚱᚵᚲᚲᚹᛥᚩᛥᛑᛟᚰᛎᚰᛣᛍᚢᛚᚶᚠᛩᛉᛚᚯᚤᛂᚻᛟᚶᛩᛪᛜᚢᚨᛄᛦᚹᛕᚮᛧᚴᛚᚭᛈᛋᚹᚹᛇᛌᚧᚪᛄᛥᛙᚣᛩᚧᛕᛎᚥᛙᛡᛕᛧᛀᛜᚽ</textPath></text></g></g></g></g><g data-source="scale(0.75)" transform="scale(0.75, 0.75)"><circle cx="0" cy="0" r="100" /><g data-source="double(0.05)" transform="scale(0.95)"><circle cx="0" cy="0" r="100" /></g><g data-source="scale(0.96)" transform="scale(0.96, 0.96)"><g stroke="none" data-source="stroke(undefined, none)"><g data-source="fill(black)" fill="black"><g stroke-width="1" data-source="stroke(1, undefined)"><text font-size="4px"><textPath path="M 0 100 A 100 100 0 0 1 0 -100 A 100 100 0 0 1 0 100">ᛖᛖᚳᛗᚵᚮᛎᚵᛛᚪᚠᚯᚬᚻᚫᚺᛀᛅᛪᚦᚣᛝᛦᛈᛧᛕᛇᚴᛜᛕᛑᚥᛤᛝᚴᛘᛌᚾᚵᚴᚫᛝᚴᛈᛊᚬᛤᚥᛓᚵᛕᚠᚰᛂᛏᛔᛟᛦᛇᛏᚹᛟᛧᛁᚴᚯᛊᛥᛪᚡᚥᚠᛚᚩᛜᛠᚦᚦᛁᛔᛜᚣᛆᚥᚽᛛᚸᛊᛦᛤᚯᚸᚥᚽᚤᛤᛆᛍᚾᛋᚡᚯᛔᛅᚫᚹᚼᚶᚺᚯᛘᚾᛁᛅᛌᚮᛘᛅᛤᛩᚴᛀᛅᚠᚸᚸᚲᛇᛚᛆᛊᛄᚾᚩᚨᚾᛑᚥᛉᛪᚣᚬᚫᛠᚳᛛᛢᛚᚸᛋᚡᛪᛖᚥᚬᛋᛉᛌᚧᚾᛣᛍᚾᛚᚬᛏᛏᚬᛍᚿᛥᛛᛠᛍᛍᛒᚯᛋᛢᛜᛣᛔᛁᛑᚱᛑᚫᛢᚽᚩᛊᛞᛃᛏᚣᛂᛁᛘᚴᛅᛘᛥᛅᚵᛪᛡᚠᚫᚩᚻᛓᛙᚮᛏᚲᛟᛒᛒᚪᛄᛧᛣᚮᛊᛐᛆᛉᛅᚼᚡᛚᚬᛗᚱᛖᛆᚺᚿᛑᚽᛣᛅᚪᛦᛒᛝᛗᚻᛄᚥᛏᛜᛠᚺᚣᛙᛆᚫᛒᛉᛀᚠᛘᚶᚣᛇᚽᛙᚹᚼᛤᛗᛏᚽᚿᚵᚲᛆᚶᛪᚼᛘᛌᛜᛞᚬᛔᛈᛕᚺᛙᛥᛤᛕᚶᛔᛋᚯᚩᚼᛞᚶᛜᛞᛘᛢᛋᛞᛇᛁᚻᚽᛥᛢᚺᛣᚲᛠᛟᛚᚷᚰᚭᛢᛘᚨᛗᚵᚨᚤᚻᛧᚼᛃᛊᚣᛐᚱᛞᚮᚹᛈᛙᚹᛏᛥᚯᚲᚷᛊᚨᚽᚥᛦᚽᚩᚥᛘᛚᛓᚷᚰᚳᚧᚻᛞᛇᛣᛃᛦᛞᛌᛓᛧᚽᚪᚫᚱᛚᛖᛁᚺᛞᚪᛝᛪᛑᚩᛘᚳᛥᛤᚴᛩᚸᛡᛥᛜᚠᚹ</textPath></text></g></g></g></g><polygon points="0,100 -86.6025,-50 86.6025,-50" /><g data-source="invert" transform="rotate(180)"><polygon points="0,100 -86.6025,-50 86.6025,-50" /></g><g data-source="radial(0.16666666666666666, 1, false)"><g data-source="radial(0.16666666666666666, 1, false)" data-child="0" transform="translate(6.123233995736766e-15, 100) scale(0.16666666666666666) rotate(0)"><circle cx="0" cy="0" r="100" /><g data-source="double(0.1)" transform="scale(0.9)"><circle cx="0" cy="0" r="100" /></g><g stroke-width="1" stroke="none" data-source="stroke(1, none)"><g data-source="fill(black)" fill="black"><g data-source="invert" transform="rotate(180)"><text font-size="100px" text-anchor="middle" dominant-baseline="central">♅</text></g></g></g></g> <g data-source="radial(0.16666666666666666, 1, false)" data-child="1" transform="translate(-86.60254037844385, 50.000000000000036) scale(0.16666666666666666) rotate(60)"><circle cx="0" cy="0" r="100" /><g data-source="double(0.1)" transform="scale(0.9)"><circle cx="0" cy="0" r="100" /></g><g stroke-width="1" stroke="none" data-source="stroke(1, none)"><g data-source="fill(black)" fill="black"><g data-source="invert" transform="rotate(180)"><text font-size="100px" text-anchor="middle" dominant-baseline="central">♃</text></g></g></g></g> <g data-source="radial(0.16666666666666666, 1, false)" data-child="2" transform="translate(-86.60254037844388, -49.99999999999997) scale(0.16666666666666666) rotate(120)"><circle cx="0" cy="0" r="100" /><g data-source="double(0.1)" transform="scale(0.9)"><circle cx="0" cy="0" r="100" /></g><g stroke-width="1" stroke="none" data-source="stroke(1, none)"><g data-source="fill(black)" fill="black"><g data-source="invert" transform="rotate(180)"><text font-size="100px" text-anchor="middle" dominant-baseline="central">♄</text></g></g></g></g> <g data-source="radial(0.16666666666666666, 1, false)" data-child="3" transform="translate(-1.8369701987210297e-14, -100) scale(0.16666666666666666) rotate(180)"><circle cx="0" cy="0" r="100" /><g data-source="double(0.1)" transform="scale(0.9)"><circle cx="0" cy="0" r="100" /></g><g stroke-width="1" stroke="none" data-source="stroke(1, none)"><g data-source="fill(black)" fill="black"><g data-source="invert" transform="rotate(180)"><text font-size="100px" text-anchor="middle" dominant-baseline="central">☉</text></g></g></g></g> <g data-source="radial(0.16666666666666666, 1, false)" data-child="4" transform="translate(86.60254037844383, -50.00000000000004) scale(0.16666666666666666) rotate(240)"><circle cx="0" cy="0" r="100" /><g data-source="double(0.1)" transform="scale(0.9)"><circle cx="0" cy="0" r="100" /></g><g stroke-width="1" stroke="none" data-source="stroke(1, none)"><g data-source="fill(black)" fill="black"><g data-source="invert" transform="rotate(180)"><text font-size="100px" text-anchor="middle" dominant-baseline="central">♃</text></g></g></g></g> <g data-source="radial(0.16666666666666666, 1, false)" data-child="5" transform="translate(86.60254037844386, 50) scale(0.16666666666666666) rotate(300)"><circle cx="0" cy="0" r="100" /><g data-source="double(0.1)" transform="scale(0.9)"><circle cx="0" cy="0" r="100" /></g><g stroke-width="1" stroke="none" data-source="stroke(1, none)"><g data-source="fill(black)" fill="black"><g data-source="invert" transform="rotate(180)"><text font-size="100px" text-anchor="middle" dominant-baseline="central">♅</text></g></g></g></g></g></g><g data-source="scale(0.25)" transform="scale(0.25, 0.25)"><circle cx="0" cy="0" r="100" /><g data-source="double(0.1)" transform="scale(0.9)"><circle cx="0" cy="0" r="100" /></g><g data-source="scale(0.9)" transform="scale(0.9, 0.9)"><polygon points="0,100 -70.7107,70.7107 -100,0 -70.7107,-70.7107 0,-100 70.7107,-70.7107 100,0 70.7107,70.7107" /><polygon points="0,100 -70.7107,-70.7107 100,0 -70.7107,70.7107 0,-100 70.7107,70.7107 -100,0 70.7107,-70.7107" /><g data-source="radial(0.16666666666666666, 1, false)"><g data-source="radial(0.16666666666666666, 1, false)" data-child="0" transform="translate(6.123233995736766e-15, 100) scale(0.16666666666666666) rotate(0)"><circle cx="0" cy="0" r="100" /><g data-source="double(0.1)" transform="scale(0.9)"><circle cx="0" cy="0" r="100" /></g><g stroke-width="1" stroke="none" data-source="stroke(1, none)"><g data-source="fill(black)" fill="black"><g data-source="invert" transform="rotate(180)"><text font-size="100px" text-anchor="middle" dominant-baseline="central">Ν</text></g></g></g></g> <g data-source="radial(0.16666666666666666, 1, false)" data-child="1" transform="translate(-70.71067811865474, 70.71067811865476) scale(0.16666666666666666) rotate(45)"><circle cx="0" cy="0" r="100" /><g data-source="double(0.1)" transform="scale(0.9)"><circle cx="0" cy="0" r="100" /></g><g stroke-width="1" stroke="none" data-source="stroke(1, none)"><g data-source="fill(black)" fill="black"><g data-source="invert" transform="rotate(180)"><text font-size="100px" text-anchor="middle" dominant-baseline="central">Κ</text></g></g></g></g> <g data-source="radial(0.16666666666666666, 1, false)" data-child="2" transform="translate(-100, 1.2246467991473532e-14) scale(0.16666666666666666) rotate(90)"><circle cx="0" cy="0" r="100" /><g data-source="double(0.1)" transform="scale(0.9)"><circle cx="0" cy="0" r="100" /></g><g stroke-width="1" stroke="none" data-source="stroke(1, none)"><g data-source="fill(black)" fill="black"><g data-source="invert" transform="rotate(180)"><text font-size="100px" text-anchor="middle" dominant-baseline="central">Η</text></g></g></g></g> <g data-source="radial(0.16666666666666666, 1, false)" data-child="3" transform="translate(-70.71067811865477, -70.71067811865474) scale(0.16666666666666666) rotate(135)"><circle cx="0" cy="0" r="100" /><g data-source="double(0.1)" transform="scale(0.9)"><circle cx="0" cy="0" r="100" /></g><g stroke-width="1" stroke="none" data-source="stroke(1, none)"><g data-source="fill(black)" fill="black"><g data-source="invert" transform="rotate(180)"><text font-size="100px" text-anchor="middle" dominant-baseline="central">Ε</text></g></g></g></g> <g data-source="radial(0.16666666666666666, 1, false)" data-child="4" transform="translate(-1.8369701987210297e-14, -100) scale(0.16666666666666666) rotate(180)"><circle cx="0" cy="0" r="100" /><g data-source="double(0.1)" transform="scale(0.9)"><circle cx="0" cy="0" r="100" /></g><g stroke-width="1" stroke="none" data-source="stroke(1, none)"><g data-source="fill(black)" fill="black"><g data-source="invert" transform="rotate(180)"><text font-size="100px" text-anchor="middle" dominant-baseline="central">Ο</text></g></g></g></g> <g data-source="radial(0.16666666666666666, 1, false)" data-child="5" transform="translate(70.71067811865474, -70.71067811865477) scale(0.16666666666666666) rotate(225)"><circle cx="0" cy="0" r="100" /><g data-source="double(0.1)" transform="scale(0.9)"><circle cx="0" cy="0" r="100" /></g><g stroke-width="1" stroke="none" data-source="stroke(1, none)"><g data-source="fill(black)" fill="black"><g data-source="invert" transform="rotate(180)"><text font-size="100px" text-anchor="middle" dominant-baseline="central">Ε</text></g></g></g></g> <g data-source="radial(0.16666666666666666, 1, false)" data-child="6" transform="translate(100, -2.4492935982947064e-14) scale(0.16666666666666666) rotate(270)"><circle cx="0" cy="0" r="100" /><g data-source="double(0.1)" transform="scale(0.9)"><circle cx="0" cy="0" r="100" /></g><g stroke-width="1" stroke="none" data-source="stroke(1, none)"><g data-source="fill(black)" fill="black"><g data-source="invert" transform="rotate(180)"><text font-size="100px" text-anchor="middle" dominant-baseline="central">Μ</text></g></g></g></g> <g data-source="radial(0.16666666666666666, 1, false)" data-child="7" transform="translate(70.71067811865477, 70.71067811865474) scale(0.16666666666666666) rotate(315)"><circle cx="0" cy="0" r="100" /><g data-source="double(0.1)" transform="scale(0.9)"><circle cx="0" cy="0" r="100" /></g><g stroke-width="1" stroke="none" data-source="stroke(1, none)"><g data-source="fill(black)" fill="black"><g data-source="invert" transform="rotate(180)"><text font-size="100px" text-anchor="middle" dominant-baseline="central">Δ</text></g></g></g></g></g></g><g data-source="scale(0.1)" transform="scale(0.1, 0.1)"><g data-source="skew(0, 0.05555555555555555)" transform="skewX(0) skewY(20)"><g fill="none"><path d="M -100 1.2246467991473532e-14 A 100 100 0 0 0 6.123233995736766e-15 100 " /></g><g fill="none"><path d="M 100 -2.4492935982947064e-14 A 100 100 0 0 0 -1.8369701987210297e-14 -100 " /></g></g></g></g></g>
    </g>
  </svg>