<svg xmlns="http://www.w3.org/2000/svg" viewBox="-100 -100 200 200">
    <style>* { vector-effect: non-scaling-stroke; stroke-linecap: square; }</style>
    <g transform="rotate(180)" stroke="black" fill="white" vector-effect="non-scaling-stroke">
      <g stroke-width="10" data-source="stroke(10, undefined)"><g data-source="scale(0.75)" transform="scale(0.75, 0.75)"><g data-source="radial(1, 0, false)"><g data-source="radial(1, 0, false)" data-child="0" transform="translate(0, 0) scale(1) rotate(0)"><g data-source="stack()"><line x1="0" y1="0" x2="0" y2="100" /> <g data-source="linear(0.25, 0.75, 1)"><g data-source="linear(0.25, 0.75, 1)" data-child="0" data-point="0, 75" transform="translate(0, 75) scale(0.25)"><g transform="translate(50, 0)"><g data-source="rotate(0.25)" transform="rotate(90)"><line x1="0" y1="0" x2="0" y2="100" /></g></g></g> <g data-source="linear(0.25, 0.75, 1)" data-child="1" data-point="0, 83.33333333333333" transform="translate(0, 83.33333333333333) scale(0.25)"><g transform="translate(50, 0)"><g data-source="rotate(0.25)" transform="rotate(90)"><line x1="0" y1="0" x2="0" y2="100" /></g></g></g> <g data-source="linear(0.25, 0.75, 1)" data-child="2" data-point="0, 91.66666666666667" transform="translate(0, 91.66666666666667) scale(0.25)"><g transform="translate(50, 0)"><g data-source="rotate(0.25)" transform="rotate(90)"><line x1="0" y1="0" x2="0" y2="100" /></g></g></g> <g data-source="linear(0.25, 0.75, 1)" data-child="3" data-point="0, 100" transform="translate(0, 100) scale(0.25)"><g transform="translate(50, 0)"><g data-source="rotate(0.25)" transform="rotate(90)"><line x1="0" y1="0" x2="0" y2="100" /><g data-source="linear(1, 0, 1)"><g data-source="linear(1, 0, 1)" data-child="0" data-point="0, 0" transform="translate(0, 0) scale(1)"><g data-source="rotate(0.25)" transform="rotate(90)"><g transform="translate(0, -50)"><g data-source="scale(0.5)" transform="scale(0.5, 0.5)"><line x1="0" y1="0" x2="0" y2="100" /></g></g></g></g> <g data-source="linear(1, 0, 1)" data-child="1" data-point="0, 50" transform="translate(0, 50) scale(1)"><g data-source="rotate(0.25)" transform="rotate(90)"><g transform="translate(0, -50)"><g data-source="scale(0.5)" transform="scale(0.5, 0.5)"><line x1="0" y1="0" x2="0" y2="100" /></g></g></g></g> <g data-source="linear(1, 0, 1)" data-child="2" data-point="0, 100" transform="translate(0, 100) scale(1)"><g data-source="rotate(0.25)" transform="rotate(90)"><g transform="translate(0, -50)"><g data-source="scale(0.5)" transform="scale(0.5, 0.5)"><line x1="0" y1="0" x2="0" y2="100" /></g></g></g></g></g></g></g></g></g></g></g> <g data-source="radial(1, 0, false)" data-child="1" transform="translate(0, 0) scale(1) rotate(45)"><g data-source="stack()"><line x1="0" y1="0" x2="0" y2="100" /> <g data-source="linear(0.25, 0.5, 1)"><g data-source="linear(0.25, 0.5, 1)" data-child="0" data-point="0, 50" transform="translate(0, 50) scale(0.25)"><g data-source="scale(0.5)" transform="scale(0.5, 0.5)"><g fill="none"><path d="M -100 1.2246467991473532e-14 A 100 100 0 0 0 100 0 " /></g><g data-source="fill(black)" fill="black"><g data-source="stack()"><g transform="translate(-50, 0)"><g data-source="scale(0.1)" transform="scale(0.1, 0.1)"><circle cx="0" cy="0" r="100" /></g></g> <g transform="translate(50, 0)"><g data-source="scale(0.1)" transform="scale(0.1, 0.1)"><circle cx="0" cy="0" r="100" /></g></g></g></g></g></g> <g data-source="linear(0.25, 0.5, 1)" data-child="1" data-point="0, 62.5" transform="translate(0, 62.5) scale(0.25)"><g data-source="scale(0.75)" transform="scale(0.75, 0.75)"><g transform="translate(0, 160)"><g fill="none"><path d="M 86.60254037844383 -50.00000000000004 A 100 100 0 0 0 -86.60254037844388 -49.99999999999997 " /></g></g></g></g> <g data-source="linear(0.25, 0.5, 1)" data-child="2" data-point="0, 75" transform="translate(0, 75) scale(0.25)">null</g> <g data-source="linear(0.25, 0.5, 1)" data-child="3" data-point="0, 87.5" transform="translate(0, 87.5) scale(0.25)">null</g> <g data-source="linear(0.25, 0.5, 1)" data-child="4" data-point="0, 100" transform="translate(0, 100) scale(0.25)"><g transform="translate(50, 0)"><g data-source="rotate(0.25)" transform="rotate(90)"><line x1="0" y1="0" x2="0" y2="100" /><g data-source="linear(1, 0, 1)"><g data-source="linear(1, 0, 1)" data-child="0" data-point="0, 0" transform="translate(0, 0) scale(1)"><g data-source="rotate(0.25)" transform="rotate(90)"><g transform="translate(0, -50)"><g data-source="scale(0.5)" transform="scale(0.5, 0.5)"><line x1="0" y1="0" x2="0" y2="100" /></g></g></g></g> <g data-source="linear(1, 0, 1)" data-child="1" data-point="0, 50" transform="translate(0, 50) scale(1)"><g data-source="rotate(0.25)" transform="rotate(90)"><g transform="translate(0, -50)"><g data-source="scale(0.5)" transform="scale(0.5, 0.5)"><line x1="0" y1="0" x2="0" y2="100" /></g></g></g></g> <g data-source="linear(1, 0, 1)" data-child="2" data-point="0, 100" transform="translate(0, 100) scale(1)"><g data-source="rotate(0.25)" transform="rotate(90)"><g transform="translate(0, -50)"><g data-source="scale(0.5)" transform="scale(0.5, 0.5)"><line x1="0" y1="0" x2="0" y2="100" /></g></g></g></g></g></g></g></g></g></g></g> <g data-source="radial(1, 0, false)" data-child="2" transform="translate(0, 0) scale(1) rotate(90)"><g data-source="stack()"><line x1="0" y1="0" x2="0" y2="100" /> <g data-source="linear(0.25, 0.5, 1)"><g data-source="linear(0.25, 0.5, 1)" data-child="0" data-point="0, 50" transform="translate(0, 50) scale(0.25)"><g transform="translate(0, -25)"><g data-source="scale(0.5)" transform="scale(0.5, 0.5)"><g fill="none"><path d="M -100 1.2246467991473532e-14 A 100 100 0 0 0 100 0 " /></g></g></g></g> <g data-source="linear(0.25, 0.5, 1)" data-child="1" data-point="0, 66.66666666666667" transform="translate(0, 66.66666666666667) scale(0.25)"><g transform="translate(50, 0)"><g data-source="rotate(0.25)" transform="rotate(90)"><line x1="0" y1="0" x2="0" y2="100" /></g></g></g> <g data-source="linear(0.25, 0.5, 1)" data-child="2" data-point="0, 83.33333333333334" transform="translate(0, 83.33333333333334) scale(0.25)"><g transform="translate(0, 25)"><g data-source="scale(0.5)" transform="scale(0.5, 0.5)"><g fill="none"><path d="M 100 0 A 100 100 0 0 0 -100 1.2246467991473532e-14 " /></g></g></g></g> <g data-source="linear(0.25, 0.5, 1)" data-child="3" data-point="0, 100" transform="translate(0, 100) scale(0.25)"><g transform="translate(50, 0)"><g data-source="rotate(0.25)" transform="rotate(90)"><line x1="0" y1="0" x2="0" y2="100" /><g data-source="linear(1, 0, 1)"><g data-source="linear(1, 0, 1)" data-child="0" data-point="0, 0" transform="translate(0, 0) scale(1)"><g data-source="rotate(0.25)" transform="rotate(90)"><g transform="translate(0, -50)"><g data-source="scale(0.5)" transform="scale(0.5, 0.5)"><line x1="0" y1="0" x2="0" y2="100" /></g></g></g></g> <g data-source="linear(1, 0, 1)" data-child="1" data-point="0, 50" transform="translate(0, 50) scale(1)"><g data-source="rotate(0.25)" transform="rotate(90)"><g transform="translate(0, -50)"><g data-source="scale(0.5)" transform="scale(0.5, 0.5)"><line x1="0" y1="0" x2="0" y2="100" /></g></g></g></g> <g data-source="linear(1, 0, 1)" data-child="2" data-point="0, 100" transform="translate(0, 100) scale(1)"><g data-source="rotate(0.25)" transform="rotate(90)"><g transform="translate(0, -50)"><g data-source="scale(0.5)" transform="scale(0.5, 0.5)"><line x1="0" y1="0" x2="0" y2="100" /></g></g></g></g></g></g></g></g></g></g></g> <g data-source="radial(1, 0, false)" data-child="3" transform="translate(0, 0) scale(1) rotate(135)"><g data-source="stack()"><line x1="0" y1="0" x2="0" y2="100" /> <g data-source="linear(0.25, 0.75, 1)"><g data-source="linear(0.25, 0.75, 1)" data-child="0" data-point="0, 75" transform="translate(0, 75) scale(0.25)"><g transform="translate(50, 0)"><g data-source="rotate(0.25)" transform="rotate(90)"><line x1="0" y1="0" x2="0" y2="100" /></g></g></g> <g data-source="linear(0.25, 0.75, 1)" data-child="1" data-point="0, 83.33333333333333" transform="translate(0, 83.33333333333333) scale(0.25)"><g transform="translate(50, 0)"><g data-source="rotate(0.25)" transform="rotate(90)"><line x1="0" y1="0" x2="0" y2="100" /></g></g></g> <g data-source="linear(0.25, 0.75, 1)" data-child="2" data-point="0, 91.66666666666667" transform="translate(0, 91.66666666666667) scale(0.25)"><g transform="translate(50, 0)"><g data-source="rotate(0.25)" transform="rotate(90)"><line x1="0" y1="0" x2="0" y2="100" /></g></g></g> <g data-source="linear(0.25, 0.75, 1)" data-child="3" data-point="0, 100" transform="translate(0, 100) scale(0.25)"><g transform="translate(50, 0)"><g data-source="rotate(0.25)" transform="rotate(90)"><line x1="0" y1="0" x2="0" y2="100" /><g data-source="linear(1, 0, 1)"><g data-source="linear(1, 0, 1)" data-child="0" data-point="0, 0" transform="translate(0, 0) scale(1)"><g data-source="rotate(0.25)" transform="rotate(90)"><g transform="translate(0, -50)"><g data-source="scale(0.5)" transform="scale(0.5, 0.5)"><line x1="0" y1="0" x2="0" y2="100" /></g></g></g></g> <g data-source="linear(1, 0, 1)" data-child="1" data-point="0, 50" transform="translate(0, 50) scale(1)"><g data-source="rotate(0.25)" transform="rotate(90)"><g transform="translate(0, -50)"><g data-source="scale(0.5)" transform="scale(0.5, 0.5)"><line x1="0" y1="0" x2="0" y2="100" /></g></g></g></g> <g data-source="linear(1, 0, 1)" data-child="2" data-point="0, 100" transform="translate(0, 100) scale(1)"><g data-source="rotate(0.25)" transform="rotate(90)"><g transform="translate(0, -50)"><g data-source="scale(0.5)" transform="scale(0.5, 0.5)"><line x1="0" y1="0" x2="0" y2="100" /></g></g></g></g></g></g></g></g></g></g></g> <g data-source="radial(1, 0, false)" data-child="4" transform="translate(0, 0) scale(1) rotate(180)"><g data-source="stack()"><line x1="0" y1="0" x2="0" y2="100" /> <g data-source="linear(0.25, 0.75, 1)"><g data-source="linear(0.25, 0.75, 1)" data-child="0" data-point="0, 75" transform="translate(0, 75) scale(0.25)"><g data-source="scale(2)" transform="scale(2, 2)"><g transform="translate(50, 0)"><g data-source="rotate(0.25)" transform="rotate(90)"><line x1="0" y1="0" x2="0" y2="100" /><g data-source="linear(1, 0, 1)"><g data-source="linear(1, 0, 1)" data-child="0" data-point="0, 0" transform="translate(0, 0) scale(1)"><g data-source="rotate(0.25)" transform="rotate(90)"><g transform="translate(0, -50)"><g data-source="scale(0.5)" transform="scale(0.5, 0.5)"><line x1="0" y1="0" x2="0" y2="100" /></g></g></g></g> <g data-source="linear(1, 0, 1)" data-child="1" data-point="0, 50" transform="translate(0, 50) scale(1)"><g data-source="rotate(0.25)" transform="rotate(90)"><g transform="translate(0, -50)"><g data-source="scale(0.5)" transform="scale(0.5, 0.5)"><line x1="0" y1="0" x2="0" y2="100" /></g></g></g></g> <g data-source="linear(1, 0, 1)" data-child="2" data-point="0, 100" transform="translate(0, 100) scale(1)"><g data-source="rotate(0.25)" transform="rotate(90)"><g transform="translate(0, -50)"><g data-source="scale(0.5)" transform="scale(0.5, 0.5)"><line x1="0" y1="0" x2="0" y2="100" /></g></g></g></g></g></g></g></g><g transform="translate(-80, 0)"><g data-source="scale(0.25)" transform="scale(0.25, 0.25)"><line x1="0" y1="0" x2="0" y2="100" /></g></g><g transform="translate(-100, 80)"><g data-source="scale(0.25)" transform="scale(0.25, 0.25)"><g transform="translate(50, 0)"><g data-source="rotate(0.25)" transform="rotate(90)"><line x1="0" y1="0" x2="0" y2="100" /></g></g></g></g><g transform="translate(-100, 100)"><g data-source="scale(0.25)" transform="scale(0.25, 0.25)"><g transform="translate(50, 0)"><g data-source="rotate(0.25)" transform="rotate(90)"><line x1="0" y1="0" x2="0" y2="100" /></g></g></g></g><g transform="translate(80, 0)"><g data-source="scale(0.25)" transform="scale(0.25, 0.25)"><line x1="0" y1="0" x2="0" y2="100" /></g></g><g transform="translate(100, 80)"><g data-source="scale(0.25)" transform="scale(0.25, 0.25)"><g transform="translate(50, 0)"><g data-source="rotate(0.25)" transform="rotate(90)"><line x1="0" y1="0" x2="0" y2="100" /></g></g></g></g><g transform="translate(100, 100)"><g data-source="scale(0.25)" transform="scale(0.25, 0.25)"><g transform="translate(50, 0)"><g data-source="rotate(0.25)" transform="rotate(90)"><line x1="0" y1="0" x2="0" y2="100" /></g></g></g></g></g> <g data-source="linear(0.25, 0.75, 1)" data-child="1" data-point="0, 87.5" transform="translate(0, 87.5) scale(0.25)"><g data-source="scale(1,0.75)" transform="scale(1, 0.75)"><g transform="translate(50, 0)"><g data-source="rotate(0.25)" transform="rotate(90)"><line x1="0" y1="0" x2="0" y2="100" /><g data-source="linear(1, 0, 1)"><g data-source="linear(1, 0, 1)" data-child="0" data-point="0, 0" transform="translate(0, 0) scale(1)"><g data-source="rotate(0.25)" transform="rotate(90)"><g transform="translate(0, -50)"><g data-source="scale(0.5)" transform="scale(0.5, 0.5)"><line x1="0" y1="0" x2="0" y2="100" /></g></g></g></g> <g data-source="linear(1, 0, 1)" data-child="1" data-point="0, 50" transform="translate(0, 50) scale(1)"><g data-source="rotate(0.25)" transform="rotate(90)"><g transform="translate(0, -50)"><g data-source="scale(0.5)" transform="scale(0.5, 0.5)"><line x1="0" y1="0" x2="0" y2="100" /></g></g></g></g> <g data-source="linear(1, 0, 1)" data-child="2" data-point="0, 100" transform="translate(0, 100) scale(1)"><g data-source="rotate(0.25)" transform="rotate(90)"><g transform="translate(0, -50)"><g data-source="scale(0.5)" transform="scale(0.5, 0.5)"><line x1="0" y1="0" x2="0" y2="100" /></g></g></g></g></g></g></g></g></g> <g data-source="linear(0.25, 0.75, 1)" data-child="2" data-point="0, 100" transform="translate(0, 100) scale(0.25)"><g data-source="scale(0.5)" transform="scale(0.5, 0.5)"><g transform="translate(50, 0)"><g data-source="rotate(0.25)" transform="rotate(90)"><line x1="0" y1="0" x2="0" y2="100" /></g></g></g></g></g></g></g> <g data-source="radial(1, 0, false)" data-child="5" transform="translate(0, 0) scale(1) rotate(225)"><g data-source="stack()"><line x1="0" y1="0" x2="0" y2="100" /> <g data-source="linear(0.25, 0.5, 1)"><g data-source="linear(0.25, 0.5, 1)" data-child="0" data-point="0, 50" transform="translate(0, 50) scale(0.25)"><g transform="translate(0, -50)"><g data-source="scale(0.5)" transform="scale(0.5, 0.5)"><g fill="none"><path d="M -100 1.2246467991473532e-14 A 100 100 0 0 0 100 0 " /></g></g></g></g> <g data-source="linear(0.25, 0.5, 1)" data-child="1" data-point="0, 60" transform="translate(0, 60) scale(0.25)"><g transform="translate(50, 0)"><g data-source="rotate(0.25)" transform="rotate(90)"><line x1="0" y1="0" x2="0" y2="100" /></g></g></g> <g data-source="linear(0.25, 0.5, 1)" data-child="2" data-point="0, 70" transform="translate(0, 70) scale(0.25)"><g data-source="scale(1,2)" transform="scale(1, 2)"><g transform="translate(50, 0)"><g data-source="rotate(0.25)" transform="rotate(90)"><line x1="0" y1="0" x2="0" y2="100" /><g data-source="linear(1, 0, 1)"><g data-source="linear(1, 0, 1)" data-child="0" data-point="0, 0" transform="translate(0, 0) scale(1)"><g data-source="rotate(0.25)" transform="rotate(90)"><g transform="translate(0, -50)"><g data-source="scale(0.5)" transform="scale(0.5, 0.5)"><line x1="0" y1="0" x2="0" y2="100" /></g></g></g></g> <g data-source="linear(1, 0, 1)" data-child="1" data-point="0, 50" transform="translate(0, 50) scale(1)"><g data-source="rotate(0.25)" transform="rotate(90)"><g transform="translate(0, -50)"><g data-source="scale(0.5)" transform="scale(0.5, 0.5)"><line x1="0" y1="0" x2="0" y2="100" /></g></g></g></g> <g data-source="linear(1, 0, 1)" data-child="2" data-point="0, 100" transform="translate(0, 100) scale(1)"><g data-source="rotate(0.25)" transform="rotate(90)"><g transform="translate(0, -50)"><g data-source="scale(0.5)" transform="scale(0.5, 0.5)"><line x1="0" y1="0" x2="0" y2="100" /></g></g></g></g></g></g></g></g></g> <g data-source="linear(0.25, 0.5, 1)" data-child="3" data-point="0, 80" transform="translate(0, 80) scale(0.25)"><g data-source="scale(0.5)" transform="scale(0.5, 0.5)"><g transform="translate(50, 0)"><g data-source="rotate(0.25)" transform="rotate(90)"><line x1="0" y1="0" x2="0" y2="100" /></g></g></g></g> <g data-source="linear(0.25, 0.5, 1)" data-child="4" data-point="0, 90" transform="translate(0, 90) scale(0.25)"><g data-source="scale(0.5)" transform="scale(0.5, 0.5)"><g transform="translate(50, 0)"><g data-source="rotate(0.25)" transform="rotate(90)"><line x1="0" y1="0" x2="0" y2="100" /></g></g></g></g> <g data-source="linear(0.25, 0.5, 1)" data-child="5" data-point="0, 100" transform="translate(0, 100) scale(0.25)"></g></g></g></g> <g data-source="radial(1, 0, false)" data-child="6" transform="translate(0, 0) scale(1) rotate(270)"><g data-source="stack()"><line x1="0" y1="0" x2="0" y2="100" /> <g transform="translate(0, 90)"><g data-source="scale(0.5,0.25)" transform="scale(0.5, 0.25)"><g transform="translate(50, 0)"><g data-source="rotate(0.25)" transform="rotate(90)"><line x1="0" y1="0" x2="0" y2="100" /><g data-source="linear(1, 0, 1)"><g data-source="linear(1, 0, 1)" data-child="0" data-point="0, 0" transform="translate(0, 0) scale(1)"><g data-source="rotate(0.25)" transform="rotate(90)"><g transform="translate(0, -50)"><g data-source="scale(0.5)" transform="scale(0.5, 0.5)"><line x1="0" y1="0" x2="0" y2="100" /></g></g></g></g> <g data-source="linear(1, 0, 1)" data-child="1" data-point="0, 25" transform="translate(0, 25) scale(1)"><g data-source="rotate(0.25)" transform="rotate(90)"><g transform="translate(0, -50)"><g data-source="scale(0.5)" transform="scale(0.5, 0.5)"><line x1="0" y1="0" x2="0" y2="100" /></g></g></g></g> <g data-source="linear(1, 0, 1)" data-child="2" data-point="0, 50" transform="translate(0, 50) scale(1)"><g data-source="rotate(0.25)" transform="rotate(90)"><g transform="translate(0, -50)"><g data-source="scale(0.5)" transform="scale(0.5, 0.5)"><line x1="0" y1="0" x2="0" y2="100" /></g></g></g></g> <g data-source="linear(1, 0, 1)" data-child="3" data-point="0, 75" transform="translate(0, 75) scale(1)"><g data-source="rotate(0.25)" transform="rotate(90)"><g transform="translate(0, -50)"><g data-source="scale(0.5)" transform="scale(0.5, 0.5)"><line x1="0" y1="0" x2="0" y2="100" /></g></g></g></g> <g data-source="linear(1, 0, 1)" data-child="4" data-point="0, 100" transform="translate(0, 100) scale(1)"><g data-source="rotate(0.25)" transform="rotate(90)"><g transform="translate(0, -50)"><g data-source="scale(0.5)" transform="scale(0.5, 0.5)"><line x1="0" y1="0" x2="0" y2="100" /></g></g></g></g></g></g></g></g></g>  </g></g> <g data-source="radial(1, 0, false)" data-child="7" transform="translate(0, 0) scale(1) rotate(315)"><g data-source="stack()"><line x1="0" y1="0" x2="0" y2="100" /> <g data-source="linear(0.25, 0.5, 1)"><g data-source="linear(0.25, 0.5, 1)" data-child="0" data-point="0, 50" transform="translate(0, 50) scale(0.25)"><g data-source="scale(0.5)" transform="scale(0.5, 0.5)"><g transform="translate(0, -25)"><g fill="none"><path d="M -100 1.2246467991473532e-14 A 100 100 0 0 0 100 0 " /></g></g></g></g> <g data-source="linear(0.25, 0.5, 1)" data-child="1" data-point="0, 66.66666666666667" transform="translate(0, 66.66666666666667) scale(0.25)"><g data-source="scale(2,2)" transform="scale(2, 2)"><g transform="translate(50, 0)"><g data-source="rotate(0.25)" transform="rotate(90)"><line x1="0" y1="0" x2="0" y2="100" /><g data-source="linear(1, 0, 1)"><g data-source="linear(1, 0, 1)" data-child="0" data-point="0, 0" transform="translate(0, 0) scale(1)"><g data-source="rotate(0.25)" transform="rotate(90)"><g transform="translate(0, -50)"><g data-source="scale(0.5)" transform="scale(0.5, 0.5)"><line x1="0" y1="0" x2="0" y2="100" /></g></g></g></g> <g data-source="linear(1, 0, 1)" data-child="1" data-point="0, 50" transform="translate(0, 50) scale(1)"><g data-source="rotate(0.25)" transform="rotate(90)"><g transform="translate(0, -50)"><g data-source="scale(0.5)" transform="scale(0.5, 0.5)"><line x1="0" y1="0" x2="0" y2="100" /></g></g></g></g> <g data-source="linear(1, 0, 1)" data-child="2" data-point="0, 100" transform="translate(0, 100) scale(1)"><g data-source="rotate(0.25)" transform="rotate(90)"><g transform="translate(0, -50)"><g data-source="scale(0.5)" transform="scale(0.5, 0.5)"><line x1="0" y1="0" x2="0" y2="100" /></g></g></g></g></g></g></g></g></g> <g data-source="linear(0.25, 0.5, 1)" data-child="2" data-point="0, 83.33333333333334" transform="translate(0, 83.33333333333334) scale(0.25)"><g transform="translate(0, -25)"><g transform="translate(50, 0)"><g data-source="rotate(0.25)" transform="rotate(90)"><line x1="0" y1="0" x2="0" y2="100" /></g></g></g></g> <g data-source="linear(0.25, 0.5, 1)" data-child="3" data-point="0, 100" transform="translate(0, 100) scale(0.25)"><g transform="translate(0, -25)"><g data-source="scale(0.25)" transform="scale(0.25, 0.25)"><g data-source="fill(none)" fill="none"><circle cx="0" cy="0" r="100" /></g></g></g></g></g></g></g></g><g data-source="scale(0.15)" transform="scale(0.15, 0.15)"><circle cx="0" cy="0" r="100" /></g></g></g>
    </g>
  </svg>