<svg id="svg" xmlns="http://www.w3.org/2000/svg" xmlns:xlink="http://www.w3.org/1999/xlink" width="400" height="401.7857142857143" viewBox="0, 0, 400,401.7857142857143"><g id="svgg"><path id="path0" d="M226.965 9.145 C 223.516 12.358,223.044 14.187,223.853 21.199 C 227.221 50.379,227.234 51.883,224.186 59.864 C 218.755 74.083,206.489 79.343,198.526 70.867 C 193.822 65.860,193.358 55.297,197.416 45.585 C 201.036 36.921,197.541 30.357,189.307 30.357 C 180.492 30.357,177.564 40.078,183.929 48.214 C 191.810 58.290,186.035 76.786,175.007 76.786 C 161.522 76.786,154.321 62.725,156.208 40.076 C 157.650 22.762,153.929 16.071,142.857 16.071 C 126.556 16.071,124.123 31.954,138.168 46.688 C 150.123 59.229,153.925 70.985,149.157 80.672 C 146.275 86.528,122.921 104.457,113.769 107.839 C 101.407 112.407,77.164 95.129,74.266 79.685 C 71.650 65.737,58.826 59.937,49.100 68.304 C 38.880 77.095,44.220 91.322,58.923 94.475 C 82.717 99.578,99.414 116.794,94.629 131.292 C 90.500 143.804,81.604 143.807,69.883 131.301 C 61.639 122.505,56.066 121.069,51.170 126.480 C 44.520 133.828,48.549 139.444,61.755 141.236 C 78.464 143.504,85.678 151.665,80.133 162.026 C 73.225 174.933,48.991 173.828,32.674 159.862 C 19.745 148.795,5.357 153.234,5.357 168.289 C 5.357 180.462,16.542 185.032,32.365 179.324 C 45.478 174.594,65.772 179.105,71.316 187.983 C 74.243 192.670,77.259 228.889,75.176 234.336 C 70.938 245.417,57.651 250.817,38.693 249.163 C 21.704 247.681,16.071 251.002,16.071 262.500 C 16.071 278.949,31.273 281.930,45.201 268.213 C 59.761 253.873,72.213 250.252,83.434 257.094 C 98.133 266.056,88.307 282.386,65.659 286.635 C 53.662 288.886,49.644 300.388,59.089 305.443 C 64.324 308.245,66.877 306.730,74.279 296.427 C 88.825 276.180,107.143 276.484,107.143 296.972 C 107.143 310.414,95.365 323.521,76.519 331.054 C 61.870 336.909,58.361 347.913,68.215 357.093 C 77.811 366.033,88.019 360.889,92.846 344.681 C 100.822 317.897,123.068 301.102,135.378 312.570 C 142.492 319.197,139.526 330.185,127.845 340.473 C 118.135 349.025,119.652 358.929,130.673 358.929 C 136.924 358.929,141.717 352.301,140.106 345.883 C 137.396 335.083,148.817 320.167,158.027 322.479 C 173.652 326.400,173.991 349.133,158.740 370.186 C 149.592 382.815,154.228 396.429,167.675 396.429 C 180.940 396.429,184.430 387.786,179.499 367.141 C 173.079 340.258,182.298 330.772,215.646 329.950 C 243.703 329.259,253.435 340.596,248.093 367.750 C 243.894 389.094,261.294 398.664,273.733 381.852 C 278.636 375.224,276.653 369.141,266.639 360.092 C 252.091 346.946,248.560 327.748,259.066 318.909 C 269.337 310.266,279.101 315.280,281.398 330.377 C 283.441 343.804,291.941 348.990,299.042 341.143 C 303.762 335.928,301.340 329.936,292.169 324.139 C 278.762 315.665,276.687 304.699,287.437 299.140 C 301.705 291.762,319.677 303.950,328.603 327.056 C 336.330 347.059,358.929 348.670,358.929 329.217 C 358.929 318.380,355.201 314.883,340.179 311.630 C 325.024 308.348,308.929 292.520,308.929 280.900 C 308.929 272.687,324.108 241.739,330.044 237.849 C 339.156 231.879,354.007 235.354,367.818 246.689 C 379.675 256.420,394.643 250.840,394.643 236.688 C 394.643 224.859,383.850 218.929,371.392 223.913 C 351.608 231.829,330.418 223.046,329.954 206.739 C 329.639 195.647,339.754 192.387,360.919 196.758 C 373.248 199.305,377.287 197.213,376.430 188.725 C 375.539 179.893,371.514 178.955,358.116 184.457 C 335.555 193.722,321.355 186.092,329.442 169.049 C 334.334 158.741,341.101 156.184,362.127 156.705 C 382.858 157.217,389.286 154.054,389.286 143.336 C 389.286 126.441,369.508 122.642,358.925 137.505 C 354.173 144.178,339.245 151.743,330.777 151.768 C 322.712 151.792,314.494 143.720,303.531 125.004 C 289.738 101.456,292.613 93.554,318.499 83.869 C 332.481 78.638,336.206 66.561,326.536 57.810 C 317.176 49.339,303.459 56.676,301.103 71.412 C 297.013 96.984,286.140 101.392,258.743 88.585 C 230.658 75.456,225.155 57.681,242.486 36.076 C 250.893 25.597,252.400 22.334,251.146 17.336 C 248.339 6.155,235.018 1.642,226.965 9.145 M203.083 88.688 C 203.989 91.439,196.578 93.721,194.262 91.404 C 193.267 90.410,193.022 88.677,193.717 87.553 C 195.281 85.023,202.151 85.855,203.083 88.688 M251.749 93.304 C 261.795 98.437,267.661 106.030,264.903 110.332 C 261.657 115.396,246.707 114.340,237.752 108.414 C 219.227 96.155,231.469 82.941,251.749 93.304 M151.679 100.765 C 158.038 108.426,136.322 126.532,126.853 121.465 C 122.199 118.974,122.256 115.986,127.074 109.861 C 134.917 99.890,147.188 95.353,151.679 100.765 M209.001 115.244 C 218.421 123.769,209.670 135.943,193.279 137.116 C 171.253 138.692,165.788 120.997,185.715 112.625 C 191.942 110.009,204.816 111.457,209.001 115.244 M269.754 134.040 C 274.161 138.447,273.506 141.749,268.065 142.548 C 261.011 143.583,255.013 134.020,261.161 131.540 C 265.019 129.983,265.975 130.261,269.754 134.040 M305.880 144.671 C 315.313 152.091,316.786 169.643,307.975 169.643 C 300.173 169.643,291.366 149.850,296.445 143.730 C 299.326 140.259,300.409 140.367,305.880 144.671 M124.464 151.069 C 125.624 154.552,119.045 160.882,116.173 159.046 C 114.064 157.698,113.987 156.541,115.746 152.679 C 117.881 147.994,123.119 147.027,124.464 151.069 M203.247 160.251 C 203.995 165.517,196.201 169.588,192.017 166.115 C 190.515 164.869,189.286 162.902,189.286 161.746 C 189.286 154.643,202.253 153.255,203.247 160.251 M250.137 160.577 C 256.734 167.173,257.319 177.146,251.474 183.367 C 242.578 192.837,226.786 184.147,226.786 169.780 C 226.786 155.591,239.960 150.399,250.137 160.577 M164.938 164.415 C 175.385 172.633,167.400 192.857,153.709 192.857 C 140.422 192.857,136.529 177.399,147.143 166.786 C 154.146 159.783,158.338 159.224,164.938 164.415 M99.061 189.197 C 106.955 204.461,96.893 226.616,88.136 213.252 C 82.261 204.284,86.154 183.929,93.745 183.929 C 95.171 183.929,97.563 186.299,99.061 189.197 M291.071 208.929 C 300.099 217.957,290.858 242.857,278.479 242.857 C 264.662 242.857,264.888 214.776,278.762 207.616 C 284.682 204.560,286.944 204.801,291.071 208.929 M322.622 216.826 C 321.254 220.391,318.061 220.466,316.717 216.964 C 314.735 211.798,317.541 207.847,320.846 211.152 C 322.417 212.723,323.216 215.276,322.622 216.826 M246.334 215.064 C 249.497 218.876,245.558 225.382,240.522 224.662 C 236.033 224.020,234.443 218.862,237.571 215.093 C 240.306 211.798,243.614 211.787,246.334 215.064 M152.679 221.453 C 152.679 225.281,147.490 224.728,146.737 220.820 C 146.278 218.434,147.005 217.706,149.391 218.166 C 151.199 218.514,152.679 219.993,152.679 221.453 M211.865 222.090 C 223.586 232.172,213.411 251.550,197.515 249.419 C 189.014 248.279,180.357 240.068,180.357 233.145 C 180.357 219.640,200.714 212.498,211.865 222.090 M98.876 239.683 C 100.291 241.930,100.242 243.329,98.696 244.875 C 95.921 247.650,91.071 243.873,91.071 238.936 C 91.071 234.699,96.036 235.174,98.876 239.683 M138.004 243.520 C 153.744 250.227,161.365 270.981,150.662 277.994 C 134.639 288.492,107.868 257.660,121.765 244.712 C 126.349 240.442,130.129 240.165,138.004 243.520 M299.107 263.417 C 299.107 265.736,297.716 267.162,295.089 267.535 C 291.105 268.101,289.262 263.119,292.324 260.057 C 294.692 257.688,299.107 259.875,299.107 263.417 M220.982 271.924 C 224.485 274.635,223.617 278.225,218.677 281.462 C 212.527 285.492,205.357 282.484,205.357 275.874 C 205.357 268.831,214.122 266.616,220.982 271.924 M274.675 277.830 C 284.041 284.391,266.527 303.571,251.169 303.571 C 235.997 303.571,246.064 282.116,263.723 276.816 C 270.671 274.730,270.185 274.685,274.675 277.830 M157.125 302.657 C 158.912 304.811,158.780 305.526,156.428 306.429 C 153.163 307.682,147.726 304.021,149.232 301.583 C 150.730 299.161,154.668 299.697,157.125 302.657 M204.135 302.053 C 212.791 306.609,212.807 311.808,204.176 315.414 C 189.610 321.500,167.451 309.186,179.911 301.929 C 184.163 299.452,199.342 299.530,204.135 302.053 " stroke="none" fill="#000000" fill-rule="evenodd"></path></g></svg>