<svg xmlns="http://www.w3.org/2000/svg" viewBox="-100 -100 200 200">
  <g transform="rotate(180)" stroke="black" fill="white">
    <g stroke-width="4">
      <circle cx="0" cy="0" r="100" vector-effect="non-scaling-stroke" />
      <g stroke-width="1">
        <g>
          <g transform="rotate(0.0) translate(0 0.0) scale(1.0)">
            <line x1="0" y1="83.33333333333334" x2="0" y2="100.0" vector-effect="non-scaling-stroke" />
          </g>
          <g transform="rotate(13.846153846153847) translate(0 0.0) scale(1.0)">
            <line x1="0" y1="83.33333333333334" x2="0" y2="100.0" vector-effect="non-scaling-stroke" />
          </g>
          <g transform="rotate(27.692307692307693) translate(0 0.0) scale(1.0)">
            <line x1="0" y1="83.33333333333334" x2="0" y2="100.0" vector-effect="non-scaling-stroke" />
          </g>
          <g transform="rotate(41.53846153846154) translate(0 0.0) scale(1.0)">
            <line x1="0" y1="83.33333333333334" x2="0" y2="100.0" vector-effect="non-scaling-stroke" />
          </g>
          <g transform="rotate(55.38461538461539) translate(0 0.0) scale(1.0)">
            <line x1="0" y1="83.33333333333334" x2="0" y2="100.0" vector-effect="non-scaling-stroke" />
          </g>
          <g transform="rotate(69.23076923076923) translate(0 0.0) scale(1.0)">
            <line x1="0" y1="83.33333333333334" x2="0" y2="100.0" vector-effect="non-scaling-stroke" />
          </g>
          <g transform="rotate(83.07692307692308) translate(0 0.0) scale(1.0)">
            <line x1="0" y1="83.33333333333334" x2="0" y2="100.0" vector-effect="non-scaling-stroke" />
          </g>
          <g transform="rotate(96.92307692307692) translate(0 0.0) scale(1.0)">
            <line x1="0" y1="83.33333333333334" x2="0" y2="100.0" vector-effect="non-scaling-stroke" />
          </g>
          <g transform="rotate(110.76923076923077) translate(0 0.0) scale(1.0)">
            <line x1="0" y1="83.33333333333334" x2="0" y2="100.0" vector-effect="non-scaling-stroke" />
          </g>
          <g transform="rotate(124.61538461538461) translate(0 0.0) scale(1.0)">
            <line x1="0" y1="83.33333333333334" x2="0" y2="100.0" vector-effect="non-scaling-stroke" />
          </g>
          <g transform="rotate(138.46153846153845) translate(0 0.0) scale(1.0)">
            <line x1="0" y1="83.33333333333334" x2="0" y2="100.0" vector-effect="non-scaling-stroke" />
          </g>
          <g transform="rotate(152.30769230769232) translate(0 0.0) scale(1.0)">
            <line x1="0" y1="83.33333333333334" x2="0" y2="100.0" vector-effect="non-scaling-stroke" />
          </g>
          <g transform="rotate(166.15384615384616) translate(0 0.0) scale(1.0)">
            <line x1="0" y1="83.33333333333334" x2="0" y2="100.0" vector-effect="non-scaling-stroke" />
          </g>
          <g transform="rotate(180.0) translate(0 0.0) scale(1.0)">
            <line x1="0" y1="83.33333333333334" x2="0" y2="100.0" vector-effect="non-scaling-stroke" />
          </g>
          <g transform="rotate(193.84615384615384) translate(0 0.0) scale(1.0)">
            <line x1="0" y1="83.33333333333334" x2="0" y2="100.0" vector-effect="non-scaling-stroke" />
          </g>
          <g transform="rotate(207.69230769230768) translate(0 0.0) scale(1.0)">
            <line x1="0" y1="83.33333333333334" x2="0" y2="100.0" vector-effect="non-scaling-stroke" />
          </g>
          <g transform="rotate(221.53846153846155) translate(0 0.0) scale(1.0)">
            <line x1="0" y1="83.33333333333334" x2="0" y2="100.0" vector-effect="non-scaling-stroke" />
          </g>
          <g transform="rotate(235.3846153846154) translate(0 0.0) scale(1.0)">
            <line x1="0" y1="83.33333333333334" x2="0" y2="100.0" vector-effect="non-scaling-stroke" />
          </g>
          <g transform="rotate(249.23076923076923) translate(0 0.0) scale(1.0)">
            <line x1="0" y1="83.33333333333334" x2="0" y2="100.0" vector-effect="non-scaling-stroke" />
          </g>
          <g transform="rotate(263.0769230769231) translate(0 0.0) scale(1.0)">
            <line x1="0" y1="83.33333333333334" x2="0" y2="100.0" vector-effect="non-scaling-stroke" />
          </g>
          <g transform="rotate(276.9230769230769) translate(0 0.0) scale(1.0)">
            <line x1="0" y1="83.33333333333334" x2="0" y2="100.0" vector-effect="non-scaling-stroke" />
          </g>
          <g transform="rotate(290.7692307692308) translate(0 0.0) scale(1.0)">
            <line x1="0" y1="83.33333333333334" x2="0" y2="100.0" vector-effect="non-scaling-stroke" />
          </g>
          <g transform="rotate(304.61538461538464) translate(0 0.0) scale(1.0)">
            <line x1="0" y1="83.33333333333334" x2="0" y2="100.0" vector-effect="non-scaling-stroke" />
          </g>
          <g transform="rotate(318.46153846153845) translate(0 0.0) scale(1.0)">
            <line x1="0" y1="83.33333333333334" x2="0" y2="100.0" vector-effect="non-scaling-stroke" />
          </g>
          <g transform="rotate(332.3076923076923) translate(0 0.0) scale(1.0)">
            <line x1="0" y1="83.33333333333334" x2="0" y2="100.0" vector-effect="non-scaling-stroke" />
          </g>
          <g transform="rotate(346.15384615384613) translate(0 0.0) scale(1.0)">
            <line x1="0" y1="83.33333333333334" x2="0" y2="100.0" vector-effect="non-scaling-stroke" />
          </g>
        </g>
      </g>
      <g transform="scale(0.8333333333333334)">
        <circle cx="0" cy="0" r="100" vector-effect="non-scaling-stroke" />
      </g>
      <polygon points="6.123233995736766e-15,100.0 -86.60254037844388,-49.99999999999997 86.60254037844383,-50.00000000000004" vector-effect="non-scaling-stroke" />
      <g transform="rotate(180.0)">
        <g>
          <g transform="rotate(0.0) translate(0 71.42857142857143) scale(0.21)">
            <circle cx="0" cy="0" r="100" vector-effect="non-scaling-stroke" />
            <g transform="scale(0.9)">
              <circle cx="0" cy="0" r="100" vector-effect="non-scaling-stroke" />
            </g>
            <g transform="rotate(180.0)">
              <text stroke="none" fill="black" font-size="100.0px" text-anchor="middle" dominant-baseline="central">
                𓀇
              </text>
            </g>
          </g>
          <g transform="rotate(120.0) translate(0 71.42857142857143) scale(0.21)">
            <circle cx="0" cy="0" r="100" vector-effect="non-scaling-stroke" />
            <g transform="scale(0.9)">
              <circle cx="0" cy="0" r="100" vector-effect="non-scaling-stroke" />
            </g>
            <g transform="rotate(180.0)">
              <text stroke="none" fill="black" font-size="100.0px" text-anchor="middle" dominant-baseline="central">
                𓁻
              </text>
            </g>
          </g>
          <g transform="rotate(240.0) translate(0 71.42857142857143) scale(0.21)">
            <circle cx="0" cy="0" r="100" vector-effect="non-scaling-stroke" />
            <g transform="scale(0.9)">
              <circle cx="0" cy="0" r="100" vector-effect="non-scaling-stroke" />
            </g>
            <g transform="rotate(180.0)">
              <text stroke="none" fill="black" font-size="100.0px" text-anchor="middle" dominant-baseline="central">
                𓆣
              </text>
            </g>
          </g>
        </g>
      </g>
      <g>
        <g transform="rotate(0.0) translate(0 91.66666666666666) scale(0.3333333333333333)">
          <g fill="none">
            <path d="M 90.6308 -42.2618 A 100 100, 0, 0, 0, -90.6308 -42.2618" vector-effect="non-scaling-stroke" />
          </g>
          <g transform="scale(0.8)">
            <g fill="none">
              <path d="M 90.6308 -42.2618 A 100 100, 0, 0, 0, -90.6308 -42.2618" vector-effect="non-scaling-stroke" />
            </g>
          </g>
        </g>
        <g transform="rotate(120.0) translate(0 91.66666666666666) scale(0.3333333333333333)">
          <g fill="none">
            <path d="M 90.6308 -42.2618 A 100 100, 0, 0, 0, -90.6308 -42.2618" vector-effect="non-scaling-stroke" />
          </g>
          <g transform="scale(0.8)">
            <g fill="none">
              <path d="M 90.6308 -42.2618 A 100 100, 0, 0, 0, -90.6308 -42.2618" vector-effect="non-scaling-stroke" />
            </g>
          </g>
        </g>
        <g transform="rotate(240.0) translate(0 91.66666666666666) scale(0.3333333333333333)">
          <g fill="none">
            <path d="M 90.6308 -42.2618 A 100 100, 0, 0, 0, -90.6308 -42.2618" vector-effect="non-scaling-stroke" />
          </g>
          <g transform="scale(0.8)">
            <g fill="none">
              <path d="M 90.6308 -42.2618 A 100 100, 0, 0, 0, -90.6308 -42.2618" vector-effect="non-scaling-stroke" />
            </g>
          </g>
        </g>
      </g>
      <g transform="scale(0.5)">
        <circle cx="0" cy="0" r="100" vector-effect="non-scaling-stroke" />
        <g transform="translate(0.0,0.0)">
          <circle cx="0" cy="0" r="100" vector-effect="non-scaling-stroke" />
          <g stroke-width="1">
            <g>
              <g transform="rotate(0.0) translate(0 0.0) scale(1.0)">
                <line x1="0" y1="33.33333333333333" x2="0" y2="100.0" vector-effect="non-scaling-stroke" />
              </g>
              <g transform="rotate(6.0) translate(0 0.0) scale(1.0)">
                <line x1="0" y1="33.33333333333333" x2="0" y2="100.0" vector-effect="non-scaling-stroke" />
              </g>
              <g transform="rotate(12.0) translate(0 0.0) scale(1.0)">
                <line x1="0" y1="33.33333333333333" x2="0" y2="100.0" vector-effect="non-scaling-stroke" />
              </g>
              <g transform="rotate(18.0) translate(0 0.0) scale(1.0)">
                <line x1="0" y1="33.33333333333333" x2="0" y2="100.0" vector-effect="non-scaling-stroke" />
              </g>
              <g transform="rotate(24.0) translate(0 0.0) scale(1.0)">
                <line x1="0" y1="33.33333333333333" x2="0" y2="100.0" vector-effect="non-scaling-stroke" />
              </g>
              <g transform="rotate(30.0) translate(0 0.0) scale(1.0)">
                <line x1="0" y1="33.33333333333333" x2="0" y2="100.0" vector-effect="non-scaling-stroke" />
              </g>
              <g transform="rotate(36.0) translate(0 0.0) scale(1.0)">
                <line x1="0" y1="33.33333333333333" x2="0" y2="100.0" vector-effect="non-scaling-stroke" />
              </g>
              <g transform="rotate(42.0) translate(0 0.0) scale(1.0)">
                <line x1="0" y1="33.33333333333333" x2="0" y2="100.0" vector-effect="non-scaling-stroke" />
              </g>
              <g transform="rotate(48.0) translate(0 0.0) scale(1.0)">
                <line x1="0" y1="33.33333333333333" x2="0" y2="100.0" vector-effect="non-scaling-stroke" />
              </g>
              <g transform="rotate(54.0) translate(0 0.0) scale(1.0)">
                <line x1="0" y1="33.33333333333333" x2="0" y2="100.0" vector-effect="non-scaling-stroke" />
              </g>
              <g transform="rotate(60.0) translate(0 0.0) scale(1.0)">
                <line x1="0" y1="33.33333333333333" x2="0" y2="100.0" vector-effect="non-scaling-stroke" />
              </g>
              <g transform="rotate(66.0) translate(0 0.0) scale(1.0)">
                <line x1="0" y1="33.33333333333333" x2="0" y2="100.0" vector-effect="non-scaling-stroke" />
              </g>
              <g transform="rotate(72.0) translate(0 0.0) scale(1.0)">
                <line x1="0" y1="33.33333333333333" x2="0" y2="100.0" vector-effect="non-scaling-stroke" />
              </g>
              <g transform="rotate(78.0) translate(0 0.0) scale(1.0)">
                <line x1="0" y1="33.33333333333333" x2="0" y2="100.0" vector-effect="non-scaling-stroke" />
              </g>
              <g transform="rotate(84.0) translate(0 0.0) scale(1.0)">
                <line x1="0" y1="33.33333333333333" x2="0" y2="100.0" vector-effect="non-scaling-stroke" />
              </g>
              <g transform="rotate(90.0) translate(0 0.0) scale(1.0)">
                <line x1="0" y1="33.33333333333333" x2="0" y2="100.0" vector-effect="non-scaling-stroke" />
              </g>
              <g transform="rotate(96.0) translate(0 0.0) scale(1.0)">
                <line x1="0" y1="33.33333333333333" x2="0" y2="100.0" vector-effect="non-scaling-stroke" />
              </g>
              <g transform="rotate(102.0) translate(0 0.0) scale(1.0)">
                <line x1="0" y1="33.33333333333333" x2="0" y2="100.0" vector-effect="non-scaling-stroke" />
              </g>
              <g transform="rotate(108.0) translate(0 0.0) scale(1.0)">
                <line x1="0" y1="33.33333333333333" x2="0" y2="100.0" vector-effect="non-scaling-stroke" />
              </g>
              <g transform="rotate(114.0) translate(0 0.0) scale(1.0)">
                <line x1="0" y1="33.33333333333333" x2="0" y2="100.0" vector-effect="non-scaling-stroke" />
              </g>
              <g transform="rotate(120.0) translate(0 0.0) scale(1.0)">
                <line x1="0" y1="33.33333333333333" x2="0" y2="100.0" vector-effect="non-scaling-stroke" />
              </g>
              <g transform="rotate(126.0) translate(0 0.0) scale(1.0)">
                <line x1="0" y1="33.33333333333333" x2="0" y2="100.0" vector-effect="non-scaling-stroke" />
              </g>
              <g transform="rotate(132.0) translate(0 0.0) scale(1.0)">
                <line x1="0" y1="33.33333333333333" x2="0" y2="100.0" vector-effect="non-scaling-stroke" />
              </g>
              <g transform="rotate(138.0) translate(0 0.0) scale(1.0)">
                <line x1="0" y1="33.33333333333333" x2="0" y2="100.0" vector-effect="non-scaling-stroke" />
              </g>
              <g transform="rotate(144.0) translate(0 0.0) scale(1.0)">
                <line x1="0" y1="33.33333333333333" x2="0" y2="100.0" vector-effect="non-scaling-stroke" />
              </g>
              <g transform="rotate(150.0) translate(0 0.0) scale(1.0)">
                <line x1="0" y1="33.33333333333333" x2="0" y2="100.0" vector-effect="non-scaling-stroke" />
              </g>
              <g transform="rotate(156.0) translate(0 0.0) scale(1.0)">
                <line x1="0" y1="33.33333333333333" x2="0" y2="100.0" vector-effect="non-scaling-stroke" />
              </g>
              <g transform="rotate(162.0) translate(0 0.0) scale(1.0)">
                <line x1="0" y1="33.33333333333333" x2="0" y2="100.0" vector-effect="non-scaling-stroke" />
              </g>
              <g transform="rotate(168.0) translate(0 0.0) scale(1.0)">
                <line x1="0" y1="33.33333333333333" x2="0" y2="100.0" vector-effect="non-scaling-stroke" />
              </g>
              <g transform="rotate(174.0) translate(0 0.0) scale(1.0)">
                <line x1="0" y1="33.33333333333333" x2="0" y2="100.0" vector-effect="non-scaling-stroke" />
              </g>
              <g transform="rotate(180.0) translate(0 0.0) scale(1.0)">
                <line x1="0" y1="33.33333333333333" x2="0" y2="100.0" vector-effect="non-scaling-stroke" />
              </g>
              <g transform="rotate(186.0) translate(0 0.0) scale(1.0)">
                <line x1="0" y1="33.33333333333333" x2="0" y2="100.0" vector-effect="non-scaling-stroke" />
              </g>
              <g transform="rotate(192.0) translate(0 0.0) scale(1.0)">
                <line x1="0" y1="33.33333333333333" x2="0" y2="100.0" vector-effect="non-scaling-stroke" />
              </g>
              <g transform="rotate(198.0) translate(0 0.0) scale(1.0)">
                <line x1="0" y1="33.33333333333333" x2="0" y2="100.0" vector-effect="non-scaling-stroke" />
              </g>
              <g transform="rotate(204.0) translate(0 0.0) scale(1.0)">
                <line x1="0" y1="33.33333333333333" x2="0" y2="100.0" vector-effect="non-scaling-stroke" />
              </g>
              <g transform="rotate(210.0) translate(0 0.0) scale(1.0)">
                <line x1="0" y1="33.33333333333333" x2="0" y2="100.0" vector-effect="non-scaling-stroke" />
              </g>
              <g transform="rotate(216.0) translate(0 0.0) scale(1.0)">
                <line x1="0" y1="33.33333333333333" x2="0" y2="100.0" vector-effect="non-scaling-stroke" />
              </g>
              <g transform="rotate(222.0) translate(0 0.0) scale(1.0)">
                <line x1="0" y1="33.33333333333333" x2="0" y2="100.0" vector-effect="non-scaling-stroke" />
              </g>
              <g transform="rotate(228.0) translate(0 0.0) scale(1.0)">
                <line x1="0" y1="33.33333333333333" x2="0" y2="100.0" vector-effect="non-scaling-stroke" />
              </g>
              <g transform="rotate(234.0) translate(0 0.0) scale(1.0)">
                <line x1="0" y1="33.33333333333333" x2="0" y2="100.0" vector-effect="non-scaling-stroke" />
              </g>
              <g transform="rotate(240.0) translate(0 0.0) scale(1.0)">
                <line x1="0" y1="33.33333333333333" x2="0" y2="100.0" vector-effect="non-scaling-stroke" />
              </g>
              <g transform="rotate(246.0) translate(0 0.0) scale(1.0)">
                <line x1="0" y1="33.33333333333333" x2="0" y2="100.0" vector-effect="non-scaling-stroke" />
              </g>
              <g transform="rotate(252.0) translate(0 0.0) scale(1.0)">
                <line x1="0" y1="33.33333333333333" x2="0" y2="100.0" vector-effect="non-scaling-stroke" />
              </g>
              <g transform="rotate(258.0) translate(0 0.0) scale(1.0)">
                <line x1="0" y1="33.33333333333333" x2="0" y2="100.0" vector-effect="non-scaling-stroke" />
              </g>
              <g transform="rotate(264.0) translate(0 0.0) scale(1.0)">
                <line x1="0" y1="33.33333333333333" x2="0" y2="100.0" vector-effect="non-scaling-stroke" />
              </g>
              <g transform="rotate(270.0) translate(0 0.0) scale(1.0)">
                <line x1="0" y1="33.33333333333333" x2="0" y2="100.0" vector-effect="non-scaling-stroke" />
              </g>
              <g transform="rotate(276.0) translate(0 0.0) scale(1.0)">
                <line x1="0" y1="33.33333333333333" x2="0" y2="100.0" vector-effect="non-scaling-stroke" />
              </g>
              <g transform="rotate(282.0) translate(0 0.0) scale(1.0)">
                <line x1="0" y1="33.33333333333333" x2="0" y2="100.0" vector-effect="non-scaling-stroke" />
              </g>
              <g transform="rotate(288.0) translate(0 0.0) scale(1.0)">
                <line x1="0" y1="33.33333333333333" x2="0" y2="100.0" vector-effect="non-scaling-stroke" />
              </g>
              <g transform="rotate(294.0) translate(0 0.0) scale(1.0)">
                <line x1="0" y1="33.33333333333333" x2="0" y2="100.0" vector-effect="non-scaling-stroke" />
              </g>
              <g transform="rotate(300.0) translate(0 0.0) scale(1.0)">
                <line x1="0" y1="33.33333333333333" x2="0" y2="100.0" vector-effect="non-scaling-stroke" />
              </g>
              <g transform="rotate(306.0) translate(0 0.0) scale(1.0)">
                <line x1="0" y1="33.33333333333333" x2="0" y2="100.0" vector-effect="non-scaling-stroke" />
              </g>
              <g transform="rotate(312.0) translate(0 0.0) scale(1.0)">
                <line x1="0" y1="33.33333333333333" x2="0" y2="100.0" vector-effect="non-scaling-stroke" />
              </g>
              <g transform="rotate(318.0) translate(0 0.0) scale(1.0)">
                <line x1="0" y1="33.33333333333333" x2="0" y2="100.0" vector-effect="non-scaling-stroke" />
              </g>
              <g transform="rotate(324.0) translate(0 0.0) scale(1.0)">
                <line x1="0" y1="33.33333333333333" x2="0" y2="100.0" vector-effect="non-scaling-stroke" />
              </g>
              <g transform="rotate(330.0) translate(0 0.0) scale(1.0)">
                <line x1="0" y1="33.33333333333333" x2="0" y2="100.0" vector-effect="non-scaling-stroke" />
              </g>
              <g transform="rotate(336.0) translate(0 0.0) scale(1.0)">
                <line x1="0" y1="33.33333333333333" x2="0" y2="100.0" vector-effect="non-scaling-stroke" />
              </g>
              <g transform="rotate(342.0) translate(0 0.0) scale(1.0)">
                <line x1="0" y1="33.33333333333333" x2="0" y2="100.0" vector-effect="non-scaling-stroke" />
              </g>
              <g transform="rotate(348.0) translate(0 0.0) scale(1.0)">
                <line x1="0" y1="33.33333333333333" x2="0" y2="100.0" vector-effect="non-scaling-stroke" />
              </g>
              <g transform="rotate(354.0) translate(0 0.0) scale(1.0)">
                <line x1="0" y1="33.33333333333333" x2="0" y2="100.0" vector-effect="non-scaling-stroke" />
              </g>
            </g>
          </g>
          <g transform="scale(0.3333333333333333)">
            <circle cx="0" cy="0" r="100" vector-effect="non-scaling-stroke" />
          </g>
        </g>
        <g stroke-width="2">
          <g transform="scale(0.16666666666666666)">
            <circle cx="0" cy="0" r="100" vector-effect="non-scaling-stroke" />
            <polygon points="6.123233995736766e-15,100.0 -95.10565162951536,-30.901699437494727 58.77852522924729,-80.90169943749476 58.778525229247336,80.90169943749473 -95.10565162951535,30.901699437494752 -1.8369701987210297e-14,-100.0 95.10565162951536,30.901699437494717 -58.7785252292473,80.90169943749474 -58.77852522924732,-80.90169943749473 95.10565162951535,-30.901699437494766" vector-effect="non-scaling-stroke" />
            <g transform="scale(0.3333333333333333)">
              <g transform="rotate(180.0)">
                <polygon points="6.123233995736766e-15,100.0 -86.60254037844388,-49.99999999999997 86.60254037844383,-50.00000000000004" vector-effect="non-scaling-stroke" />
              </g>
            </g>
          </g>
        </g>
        <g transform="rotate(200.0)">
          <g fill="black">
            <g transform="rotate(90.0)">
              <path d="M 98.7688 15.6434 A 100 100, 0, 1, 0, -98.7688 15.6434 A 100 100, 0, 0, 1, 98.7688 15.6434" vector-effect="non-scaling-stroke" />
            </g>
          </g>
        </g>
      </g>
    </g>
  </g>
</svg>
