<svg xmlns="http://www.w3.org/2000/svg" viewBox="-100 -100 200 200">
  <g transform="rotate(180)" stroke="black" fill="white">
    <g transform="scale(0.9)">
      <circle cx="0" cy="0" r="100" vector-effect="non-scaling-stroke" />
      <polygon points="6.123233995736766e-15,100.0 -78.18314824680299,62.34898018587336 -97.49279121818236,-22.252093395631427 -43.38837391175583,-90.09688679024191 43.38837391175579,-90.09688679024192 97.49279121818235,-22.252093395631466 78.183148246803,62.34898018587334" vector-effect="non-scaling-stroke" />
      <polygon points="6.123233995736766e-15,100.0 -97.49279121818236,22.25209339563145 -43.38837391175583,-90.09688679024191 78.18314824680297,-62.34898018587337 78.183148246803,62.34898018587334 -43.38837391175581,90.09688679024191 -97.49279121818236,-22.252093395631427 -1.8369701987210297e-14,-100.0 97.49279121818235,-22.252093395631466 43.38837391175584,90.09688679024191 -78.18314824680299,62.34898018587336 -78.18314824680299,-62.34898018587334 43.38837391175579,-90.09688679024192 97.49279121818236,22.252093395631416" vector-effect="non-scaling-stroke" />
      <polygon points="6.123233995736766e-15,100.0 -97.49279121818236,-22.252093395631427 43.38837391175579,-90.09688679024192 78.183148246803,62.34898018587334 -78.18314824680299,62.34898018587336 -43.38837391175583,-90.09688679024191 97.49279121818235,-22.252093395631466" vector-effect="non-scaling-stroke" />
      <g>
        <g transform="rotate(0.0) translate(0 100.0) scale(0.125)">
          <circle cx="0" cy="0" r="100" vector-effect="non-scaling-stroke" />
          <g transform="rotate(180.0)">
            <text stroke="none" fill="black" font-size="100.0px" text-anchor="middle" dominant-baseline="central">
              ♁
            </text>
          </g>
        </g>
        <g transform="rotate(51.42857142857143) translate(0 100.0) scale(0.125)">
          <circle cx="0" cy="0" r="100" vector-effect="non-scaling-stroke" />
          <g transform="rotate(180.0)">
            <text stroke="none" fill="black" font-size="100.0px" text-anchor="middle" dominant-baseline="central">
              ♂
            </text>
          </g>
        </g>
        <g transform="rotate(102.85714285714286) translate(0 100.0) scale(0.125)">
          <circle cx="0" cy="0" r="100" vector-effect="non-scaling-stroke" />
          <g transform="rotate(180.0)">
            <text stroke="none" fill="black" font-size="100.0px" text-anchor="middle" dominant-baseline="central">
              ♃
            </text>
          </g>
        </g>
        <g transform="rotate(154.28571428571428) translate(0 100.0) scale(0.125)">
          <circle cx="0" cy="0" r="100" vector-effect="non-scaling-stroke" />
          <g transform="rotate(180.0)">
            <text stroke="none" fill="black" font-size="100.0px" text-anchor="middle" dominant-baseline="central">
              ♄
            </text>
          </g>
        </g>
        <g transform="rotate(205.71428571428572) translate(0 100.0) scale(0.125)">
          <circle cx="0" cy="0" r="100" vector-effect="non-scaling-stroke" />
          <g transform="rotate(180.0)">
            <text stroke="none" fill="black" font-size="100.0px" text-anchor="middle" dominant-baseline="central">
              ♅
            </text>
          </g>
        </g>
        <g transform="rotate(257.14285714285717) translate(0 100.0) scale(0.125)">
          <circle cx="0" cy="0" r="100" vector-effect="non-scaling-stroke" />
          <g transform="rotate(180.0)">
            <text stroke="none" fill="black" font-size="100.0px" text-anchor="middle" dominant-baseline="central">
              ♆
            </text>
          </g>
        </g>
        <g transform="rotate(308.57142857142856) translate(0 100.0) scale(0.125)">
          <circle cx="0" cy="0" r="100" vector-effect="non-scaling-stroke" />
          <g transform="rotate(180.0)">
            <text stroke="none" fill="black" font-size="100.0px" text-anchor="middle" dominant-baseline="central">
              ♇
            </text>
          </g>
        </g>
      </g>
    </g>
    <g transform="scale(0.15)">
      <g transform="translate(-200.0,0.0)">
        <circle cx="0" cy="0" r="100" vector-effect="non-scaling-stroke" />
        <g transform="rotate(90.0)">
          <path d="M 98.7688 15.6434 A 100 100, 0, 1, 0, -98.7688 15.6434 A 100 100, 0, 0, 1, 98.7688 15.6434" vector-effect="non-scaling-stroke" />
        </g>
      </g>
      <circle cx="0" cy="0" r="100" vector-effect="non-scaling-stroke" />
      <g transform="translate(200.0,0.0)">
        <circle cx="0" cy="0" r="100" vector-effect="non-scaling-stroke" />
        <g transform="rotate(90.0)">
          <path d="M 98.7688 -15.6434 A 100 100, 0, 0, 1, -98.7688 -15.6434 A 100 100, 0, 1, 0, 98.7688 -15.6434" vector-effect="non-scaling-stroke" />
        </g>
      </g>
    </g>
  </g>
</svg>
