<svg xmlns="http://www.w3.org/2000/svg" viewBox="-110 -120 220 220">
  <g transform="rotate(180)" stroke="black" fill="white">
    <circle cx="0" cy="0" r="100" vector-effect="non-scaling-stroke" />
    <g transform="scale(0.95)">
      <circle cx="0" cy="0" r="100" vector-effect="non-scaling-stroke" />
    </g>
    <g transform="scale(0.95)">
      <polygon points="6.123233995736766e-15,100.0 -86.60254037844385,50.000000000000036 -86.60254037844388,-49.99999999999997 -1.8369701987210297e-14,-100.0 86.60254037844383,-50.00000000000004 86.6025403784439,49.99999999999993 6.123233995736766e-15,100.0 -86.60254037844385,50.000000000000036 -86.60254037844388,-49.99999999999997 -1.8369701987210297e-14,-100.0 86.60254037844383,-50.00000000000004 86.6025403784439,49.99999999999993" vector-effect="non-scaling-stroke" />
      <polygon points="6.123233995736766e-15,100.0 -100.0,1.2246467991473532e-14 -1.8369701987210297e-14,-100.0 100.0,-2.4492935982947064e-14 6.123233995736766e-15,100.0 -100.0,1.2246467991473532e-14 -1.8369701987210297e-14,-100.0 100.0,-2.4492935982947064e-14 6.123233995736766e-15,100.0 -100.0,1.2246467991473532e-14 -1.8369701987210297e-14,-100.0 100.0,-2.4492935982947064e-14" vector-effect="non-scaling-stroke" />
      <polygon points="6.123233995736766e-15,100.0 -86.60254037844388,-49.99999999999997 86.60254037844383,-50.00000000000004 6.123233995736766e-15,100.0 -86.60254037844388,-49.99999999999997 86.60254037844383,-50.00000000000004 6.123233995736766e-15,100.0 -86.60254037844388,-49.99999999999997 86.60254037844383,-50.00000000000004 6.123233995736766e-15,100.0 -86.60254037844388,-49.99999999999997 86.60254037844383,-50.00000000000004" vector-effect="non-scaling-stroke" />
      <polygon points="6.123233995736766e-15,100.0 -50.00000000000004,-86.60254037844383 86.6025403784439,49.99999999999993 -100.0,1.2246467991473532e-14 86.60254037844383,-50.00000000000004 -49.99999999999998,86.60254037844388 -1.8369701987210297e-14,-100.0 50.00000000000006,86.60254037844383 -86.60254037844388,-49.99999999999997 100.0,-2.4492935982947064e-14 -86.60254037844385,50.000000000000036 49.999999999999936,-86.6025403784439" vector-effect="non-scaling-stroke" />
    </g>
    <g transform="scale(0.99)">
      <text stroke="none" fill="black" font-size="4.0px">
        <textPath path="M -100, 0 a 100,100 0 1,0 200,0 a 100,100 0 1,0 -200,0">
          ᚿ ᛏ ᛍ ᚸ ᚠ ᛘ ᚵ ᚠ ᛝ ᚵ ᛦ ᚫ ᛦ ᛅ ᚲ ᚲ ᚡ ᚮ ᛝ ᚪ ᛉ ᛓ ᛍ ᚴ ᛁ ᛛ ᛩ ᛛ ᛓ ᛂ ᛋ ᛒ ᛞ ᛏ ᛁ ᛟ ᛌ ᛞ ᚪ ᛒ ᚢ ᚾ ᚷ ᛢ ᚧ ᛖ ᚥ ᛋ ᛡ ᛁ ᛧ ᛙ ᚯ ᛣ ᛅ ᚠ ᛄ ᛥ ᛤ ᛝ ᛔ ᚭ ᛙ ᛡ ᚯ ᚻ ᛜ ᚧ ᚭ ᛀ ᚧ ᚾ ᛅ ᛢ ᚬ ᚳ ᛦ ᛖ ᚲ ᛏ ᛒ ᛚ ᛩ ᛒ ᛂ ᛟ ᛂ ᛥ ᚧ ᛍ ᛑ ᚯ ᚫ ᚴ ᛠ ᛟ ᛣ ᛜ ᚭ ᚻ ᚿ ᛓ ᚿ ᚢ ᚸ ᛂ ᛐ ᛓ ᚬ ᛁ ᛏ ᛖ ᚼ ᛒ ᛁ ᛗ ᛜ ᛝ ᛩ ᛨ ᛤ ᚿ ᛀ ᛚ ᛓ ᛜ ᛓ ᛖ ᛜ ᛟ ᚿ ᛥ ᛨ ᚶ ᚤ ᚾ ᛣ ᛆ ᚻ ᚢ ᛖ ᛜ ᛓ ᛔ ᛍ ᚾ ᛁ ᚮ ᚽ ᛄ ᛄ ᛛ ᛨ ᛩ ᛒ ᛛ ᛅ ᛝ ᚻ ᛡ ᛀ ᛔ ᚽ ᚻ ᛐ ᚻ ᚨ ᛖ ᛤ ᚵ ᚥ ᚩ ᚹ ᚭ ᛆ ᚣ ᛕ ᛣ ᛇ ᚴ ᛙ ᛤ ᚲ ᚩ ᛋ ᛄ ᛠ ᚷ ᚳ ᚽ ᛊ ᛃ ᛊ ᚡ ᛞ ᛘ ᛙ ᛑ ᚼ ᛗ ᚱ ᛥ ᛚ ᛋ ᛐ ᚪ ᚩ ᚮ ᛑ ᛖ ᚨ ᛍ ᚽ ᛝ ᚭ ᛉ ᛠ ᛁ ᛙ ᚲ ᛝ ᛋ ᚾ ᛩ ᚵ ᚡ ᛕ ᚡ ᛐ ᛑ ᛞ ᛐ ᚷ ᛤ ᛈ ᛋ ᛞ ᚾ ᛃ ᛑ ᚫ ᚮ ᚵ ᚶ ᛥ ᛅ ᛧ ᚲ ᚷ ᛣ ᛊ ᚡ ᚨ ᚳ ᚬ ᚡ ᛋ ᚱ ᛀ ᚾ ᚬ ᚦ ᚩ ᛨ ᚱ ᛤ ᛐ ᚴ ᚠ ᛋ ᛌ ᛤ ᚧ ᚤ ᚵ ᚨ ᛄ ᛩ ᛄ ᚶ ᚵ ᚤ ᛓ ᚱ ᛉ ᛀ ᛥ ᛐ ᚾ ᚲ ᛃ ᚥ ᚻ ᚱ ᚪ ᛍ ᛝ ᚬ ᛦ ᛣ ᛌ ᚵ ᛙ ᛍ ᛤ ᚽ ᛎ ᚫ ᚭ ᚾ ᛇ ᚤ ᛓ ᛈ ᚸ ᚣ ᛜ ᛕ ᚤ ᚩ ᛑ ᛑ ᚰ ᛑ ᚿ ᛄ ᛤ ᚹ ᚿ ᚤ ᛥ ᛡ ᚥ ᛓ ᛉ ᚵ ᚻ ᚱ ᛗ ᛟ ᛁ ᛘ ᛔ ᛟ ᛄ ᛊ ᛚ ᛈ ᚥ ᛜ ᚼ ᛪ ᚢ ᛌ ᚥ ᚴ ᚰ ᚬ ᛈ ᛔ ᚷ ᛔ ᛃ ᛄ ᛨ ᚲ ᛗ ᛁ ᛐ ᛃ ᛛ ᛙ ᛖ ᛅ ᚹ ᛑ ᛧ ᚸ ᚧ ᛨ ᚳ ᛙ ᚷ ᛉ ᛨ ᛊ ᚣ ᛔ ᚧ ᚰ ᚮ ᚦ ᛝ ᛋ ᛄ ᛒ ᛆ ᚱ ᛂ ᛏ
        </textPath>
      </text>
    </g>
    <g transform="scale(0.75)">
      <circle cx="0" cy="0" r="100" vector-effect="non-scaling-stroke" />
      <g transform="scale(0.95)">
        <circle cx="0" cy="0" r="100" vector-effect="non-scaling-stroke" />
      </g>
      <g transform="scale(0.99)">
        <text stroke="none" fill="black" font-size="4.0px">
          <textPath path="M -100, 0 a 100,100 0 1,0 200,0 a 100,100 0 1,0 -200,0">
            ᛈ ᛁ ᛋ ᛪ ᛙ ᛘ ᚴ ᛝ ᚪ ᚺ ᛞ ᚿ ᚽ ᚿ ᚤ ᚧ ᚹ ᛍ ᛂ ᛨ ᛛ ᚸ ᚿ ᚪ ᛌ ᛆ ᛐ ᚬ ᛢ ᛧ ᚲ ᛝ ᛤ ᛖ ᛖ ᛧ ᛋ ᚩ ᛈ ᛈ ᚫ ᛊ ᛒ ᚤ ᚪ ᛍ ᛏ ᚾ ᛄ ᚣ ᛄ ᛍ ᚠ ᛔ ᛡ ᚧ ᚢ ᛇ ᚦ ᛔ ᛥ ᛈ ᚰ ᛥ ᛁ ᚡ ᚶ ᚦ ᛧ ᚡ ᛦ ᛋ ᛄ ᛌ ᚿ ᚻ ᛙ ᛒ ᛪ ᚸ ᛦ ᚱ ᛔ ᛉ ᛔ ᛞ ᚵ ᛖ ᛎ ᚺ ᚡ ᛕ ᛤ ᚡ ᚰ ᛆ ᚤ ᚷ ᛜ ᛨ ᛚ ᚥ ᛐ ᚺ ᛨ ᚸ ᚪ ᚮ ᚺ ᛃ ᚾ ᚨ ᛏ ᛥ ᛊ ᛐ ᛂ ᚷ ᛡ ᛅ ᚨ ᛛ ᛧ ᚣ ᚾ ᛄ ᛊ ᛜ ᛛ ᛗ ᚺ ᛌ ᛉ ᛝ ᚲ ᚭ ᚷ ᛉ ᚴ ᚪ ᛗ ᛚ ᛊ ᚽ ᚢ ᛚ ᚯ ᚡ ᚯ ᚱ ᛢ ᚶ ᛋ ᚮ ᛞ ᚦ ᚸ ᚭ ᚫ ᚳ ᛄ ᛗ ᛛ ᚴ ᛔ ᚦ ᚻ ᚺ ᛜ ᛨ ᚣ ᛃ ᛇ ᚵ ᚬ ᚢ ᛌ ᛑ ᛌ ᚭ ᚸ ᚤ ᚻ ᛖ ᛃ ᚿ ᛡ ᛒ ᛚ ᚽ ᚾ ᚭ ᚬ ᛚ ᚭ ᛗ ᚮ ᚨ ᛈ ᚦ ᛣ ᛤ ᛟ ᛇ ᚩ ᛉ ᚿ ᛋ ᛅ ᛄ ᛏ ᛡ ᛖ ᛁ ᚪ ᚩ ᚦ ᚤ ᛝ ᚫ ᛃ ᛖ ᛋ ᚭ ᚥ ᛄ ᚠ ᚲ ᛎ ᛇ ᛘ ᛨ ᚳ ᛃ ᛠ ᛦ ᛊ ᛇ ᛒ ᛅ ᛆ ᚶ ᛍ ᛞ ᛉ ᛪ ᛌ ᛤ ᚧ ᛤ ᛩ ᚢ ᛤ ᚷ ᚳ ᛖ ᛘ ᛄ ᛑ ᚭ ᛍ ᛁ ᛦ ᛉ ᛄ ᛤ ᛇ ᛃ ᛢ ᚴ ᛍ ᛥ ᚿ ᛣ ᛥ ᛝ ᚧ ᛤ ᚾ ᚻ ᛪ ᛒ ᛍ ᚲ ᚿ ᚳ ᛋ ᛋ ᛅ ᛠ ᚸ ᚶ ᚡ ᚳ ᛙ ᛨ ᛝ ᚽ ᛈ ᚪ ᚫ ᚥ ᛦ ᛐ ᛝ ᚳ ᛑ ᚪ ᛩ ᛞ ᛁ ᚾ ᚩ ᛄ ᚧ ᚺ ᛎ ᛧ ᚪ ᚦ ᚱ ᛗ ᚯ ᚾ ᛪ ᛄ ᚫ ᚢ ᛩ ᛊ ᚡ ᛁ ᛦ ᚧ ᛂ ᛃ ᚨ ᚮ ᛥ ᛊ ᛣ ᛡ ᚣ ᚤ ᛈ ᚻ ᚫ ᚡ ᚲ ᚤ ᛌ ᛓ ᚥ ᛡ ᛆ ᛞ ᛞ ᛗ ᚼ ᛁ ᛪ ᚾ ᚣ ᚢ ᛄ ᚺ ᛅ ᛓ ᛢ ᚽ ᛕ ᚥ ᚧ ᚶ ᚳ ᛖ ᚹ ᛧ ᛛ ᛅ ᛟ ᚩ ᛢ ᛠ ᚤ ᛥ ᛀ ᚪ ᛎ ᛙ ᛢ ᛢ ᚪ ᛥ ᛅ ᛪ ᚡ ᚦ ᛤ ᚴ
          </textPath>
        </text>
      </g>
      <g fill="none">
        <polygon points="6.123233995736766e-15,100.0 -86.60254037844388,-49.99999999999997 86.60254037844383,-50.00000000000004" vector-effect="non-scaling-stroke" />
        <g transform="rotate(180.0)">
          <polygon points="6.123233995736766e-15,100.0 -86.60254037844388,-49.99999999999997 86.60254037844383,-50.00000000000004" vector-effect="non-scaling-stroke" />
        </g>
      </g>
      <g transform="rotate(180.0)">
        <g>
          <g transform="rotate(0.0) translate(0 100.0) scale(0.16666666666666666)">
            <circle cx="0" cy="0" r="100" vector-effect="non-scaling-stroke" />
            <text stroke="none" fill="black" font-size="100.0px" text-anchor="middle" dominant-baseline="central">
              ♄
            </text>
            <g transform="scale(0.9)">
              <circle cx="0" cy="0" r="100" vector-effect="non-scaling-stroke" />
              <text stroke="none" fill="black" font-size="100.0px" text-anchor="middle" dominant-baseline="central">
                ♃
              </text>
            </g>
          </g>
          <g transform="rotate(60.0) translate(0 100.0) scale(0.16666666666666666)">
            <circle cx="0" cy="0" r="100" vector-effect="non-scaling-stroke" />
            <text stroke="none" fill="black" font-size="100.0px" text-anchor="middle" dominant-baseline="central">
              ♂
            </text>
            <g transform="scale(0.9)">
              <circle cx="0" cy="0" r="100" vector-effect="non-scaling-stroke" />
              <text stroke="none" fill="black" font-size="100.0px" text-anchor="middle" dominant-baseline="central">
                ♂
              </text>
            </g>
          </g>
          <g transform="rotate(120.0) translate(0 100.0) scale(0.16666666666666666)">
            <circle cx="0" cy="0" r="100" vector-effect="non-scaling-stroke" />
            <text stroke="none" fill="black" font-size="100.0px" text-anchor="middle" dominant-baseline="central">
              ♅
            </text>
            <g transform="scale(0.9)">
              <circle cx="0" cy="0" r="100" vector-effect="non-scaling-stroke" />
              <text stroke="none" fill="black" font-size="100.0px" text-anchor="middle" dominant-baseline="central">
                ♇
              </text>
            </g>
          </g>
          <g transform="rotate(180.0) translate(0 100.0) scale(0.16666666666666666)">
            <circle cx="0" cy="0" r="100" vector-effect="non-scaling-stroke" />
            <text stroke="none" fill="black" font-size="100.0px" text-anchor="middle" dominant-baseline="central">
              ♃
            </text>
            <g transform="scale(0.9)">
              <circle cx="0" cy="0" r="100" vector-effect="non-scaling-stroke" />
              <text stroke="none" fill="black" font-size="100.0px" text-anchor="middle" dominant-baseline="central">
                ♁
              </text>
            </g>
          </g>
          <g transform="rotate(240.0) translate(0 100.0) scale(0.16666666666666666)">
            <circle cx="0" cy="0" r="100" vector-effect="non-scaling-stroke" />
            <text stroke="none" fill="black" font-size="100.0px" text-anchor="middle" dominant-baseline="central">
              ♃
            </text>
            <g transform="scale(0.9)">
              <circle cx="0" cy="0" r="100" vector-effect="non-scaling-stroke" />
              <text stroke="none" fill="black" font-size="100.0px" text-anchor="middle" dominant-baseline="central">
                ♃
              </text>
            </g>
          </g>
          <g transform="rotate(300.0) translate(0 100.0) scale(0.16666666666666666)">
            <circle cx="0" cy="0" r="100" vector-effect="non-scaling-stroke" />
            <text stroke="none" fill="black" font-size="100.0px" text-anchor="middle" dominant-baseline="central">
              ♃
            </text>
            <g transform="scale(0.9)">
              <circle cx="0" cy="0" r="100" vector-effect="non-scaling-stroke" />
              <text stroke="none" fill="black" font-size="100.0px" text-anchor="middle" dominant-baseline="central">
                ♅
              </text>
            </g>
          </g>
        </g>
      </g>
    </g>
    <g transform="scale(0.25)">
      <circle cx="0" cy="0" r="100" vector-effect="non-scaling-stroke" />
      <g transform="scale(0.9)">
        <circle cx="0" cy="0" r="100" vector-effect="non-scaling-stroke" />
      </g>
      <g transform="scale(0.9)">
        <polygon points="6.123233995736766e-15,100.0 -70.71067811865474,70.71067811865476 -100.0,1.2246467991473532e-14 -70.71067811865477,-70.71067811865474 -1.8369701987210297e-14,-100.0 70.71067811865474,-70.71067811865477 100.0,-2.4492935982947064e-14 70.71067811865477,70.71067811865474" vector-effect="non-scaling-stroke" />
        <polygon points="6.123233995736766e-15,100.0 -70.71067811865477,-70.71067811865474 100.0,-2.4492935982947064e-14 -70.71067811865474,70.71067811865476 -1.8369701987210297e-14,-100.0 70.71067811865477,70.71067811865474 -100.0,1.2246467991473532e-14 70.71067811865474,-70.71067811865477" vector-effect="non-scaling-stroke" />
        <g>
          <g transform="rotate(0.0) translate(0 100.0) scale(0.16666666666666666)">
            <circle cx="0" cy="0" r="100" vector-effect="non-scaling-stroke" />
            <text stroke="none" fill="black" font-size="100.0px" text-anchor="middle" dominant-baseline="central">
              Ρ
            </text>
            <g transform="scale(0.9)">
              <circle cx="0" cy="0" r="100" vector-effect="non-scaling-stroke" />
              <text stroke="none" fill="black" font-size="100.0px" text-anchor="middle" dominant-baseline="central">
                Θ
              </text>
            </g>
          </g>
          <g transform="rotate(45.0) translate(0 100.0) scale(0.16666666666666666)">
            <circle cx="0" cy="0" r="100" vector-effect="non-scaling-stroke" />
            <text stroke="none" fill="black" font-size="100.0px" text-anchor="middle" dominant-baseline="central">
              Γ
            </text>
            <g transform="scale(0.9)">
              <circle cx="0" cy="0" r="100" vector-effect="non-scaling-stroke" />
              <text stroke="none" fill="black" font-size="100.0px" text-anchor="middle" dominant-baseline="central">
                Σ
              </text>
            </g>
          </g>
          <g transform="rotate(90.0) translate(0 100.0) scale(0.16666666666666666)">
            <circle cx="0" cy="0" r="100" vector-effect="non-scaling-stroke" />
            <text stroke="none" fill="black" font-size="100.0px" text-anchor="middle" dominant-baseline="central">
              Ο
            </text>
            <g transform="scale(0.9)">
              <circle cx="0" cy="0" r="100" vector-effect="non-scaling-stroke" />
              <text stroke="none" fill="black" font-size="100.0px" text-anchor="middle" dominant-baseline="central">
                Β
              </text>
            </g>
          </g>
          <g transform="rotate(135.0) translate(0 100.0) scale(0.16666666666666666)">
            <circle cx="0" cy="0" r="100" vector-effect="non-scaling-stroke" />
            <text stroke="none" fill="black" font-size="100.0px" text-anchor="middle" dominant-baseline="central">
              Ω
            </text>
            <g transform="scale(0.9)">
              <circle cx="0" cy="0" r="100" vector-effect="non-scaling-stroke" />
              <text stroke="none" fill="black" font-size="100.0px" text-anchor="middle" dominant-baseline="central">
                Μ
              </text>
            </g>
          </g>
          <g transform="rotate(180.0) translate(0 100.0) scale(0.16666666666666666)">
            <circle cx="0" cy="0" r="100" vector-effect="non-scaling-stroke" />
            <text stroke="none" fill="black" font-size="100.0px" text-anchor="middle" dominant-baseline="central">
              Κ
            </text>
            <g transform="scale(0.9)">
              <circle cx="0" cy="0" r="100" vector-effect="non-scaling-stroke" />
              <text stroke="none" fill="black" font-size="100.0px" text-anchor="middle" dominant-baseline="central">
                Θ
              </text>
            </g>
          </g>
          <g transform="rotate(225.0) translate(0 100.0) scale(0.16666666666666666)">
            <circle cx="0" cy="0" r="100" vector-effect="non-scaling-stroke" />
            <text stroke="none" fill="black" font-size="100.0px" text-anchor="middle" dominant-baseline="central">
              Ε
            </text>
            <g transform="scale(0.9)">
              <circle cx="0" cy="0" r="100" vector-effect="non-scaling-stroke" />
              <text stroke="none" fill="black" font-size="100.0px" text-anchor="middle" dominant-baseline="central">
                Θ
              </text>
            </g>
          </g>
          <g transform="rotate(270.0) translate(0 100.0) scale(0.16666666666666666)">
            <circle cx="0" cy="0" r="100" vector-effect="non-scaling-stroke" />
            <text stroke="none" fill="black" font-size="100.0px" text-anchor="middle" dominant-baseline="central">
              Δ
            </text>
            <g transform="scale(0.9)">
              <circle cx="0" cy="0" r="100" vector-effect="non-scaling-stroke" />
              <text stroke="none" fill="black" font-size="100.0px" text-anchor="middle" dominant-baseline="central">
                Μ
              </text>
            </g>
          </g>
          <g transform="rotate(315.0) translate(0 100.0) scale(0.16666666666666666)">
            <circle cx="0" cy="0" r="100" vector-effect="non-scaling-stroke" />
            <text stroke="none" fill="black" font-size="100.0px" text-anchor="middle" dominant-baseline="central">
              Υ
            </text>
            <g transform="scale(0.9)">
              <circle cx="0" cy="0" r="100" vector-effect="non-scaling-stroke" />
              <text stroke="none" fill="black" font-size="100.0px" text-anchor="middle" dominant-baseline="central">
                Β
              </text>
            </g>
          </g>
        </g>
      </g>
      <g transform="scale(0.1)">
        <g transform="skewX(0.0) skewY(20.0)">
          <g fill="none">
            <path d="M -100.0 0.0 A 100 100, 0, 0, 0, 0.0 100.0" vector-effect="non-scaling-stroke" />
          </g>
          <g fill="none">
            <path d="M 100.0 0.0 A 100 100, 0, 0, 0, 0.0 -100.0" vector-effect="non-scaling-stroke" />
          </g>
        </g>
      </g>
    </g>
  </g>
</svg>
