<?xml version="1.0" standalone="no"?>
<!DOCTYPE svg PUBLIC "-//W3C//DTD SVG 20010904//EN"
  "http://www.w3.org/TR/2001/REC-SVG-20010904/DTD/svg10.dtd">
<svg width="4470" height="436">
  <g style="fill:black;fill-opacity:1;stroke:none;stroke-width:1;stroke-opacity:1;fill-rule:nonzero;">
    <g style="fill:#000000;stroke:none;" transform="matrix(0.1 0 0 -0.1 0 436)">
      <g style="" transform="matrix(0.1 0 0 -0.1 0 436)">
        <path d="M2455 4100 c-3 -6 -23 -58 -45 -118 -44 -123 -61 -138 -79 -65 -26 105 -32 123 -41 123 -13 0 -25 -68 -29 -162 -2 -55 -25 -48 -57 17 -14 31 -30 58 -35 60 -15 10 -28 -32 -22 -71 5 -35 4 -38 -10 -24 -9 8 -36 51 -60 95 -45 82 -70 102 -82 66 -4 -14 9 -50 41 -111 25 -50 44 -93 41 -96 -2 -3 -31 19 -62 48 -68 63 -71 65 -78 39 -7 -27 34 -111 78 -159 41 -46 123 -102 148 -102 10 0 27 -10 39 -22 l21 -21 -7 -409 c-4 -225 -9 -479 -12 -564 -6 -167 -3 -194 20 -174 21 16 29 120 66 790 14 257 22 343 32 362 11 23 33 34 135 69 102 35 221 93 248 119 15 15 17 22 7 32 -9 9 -24 7 -65 -10 -64 -27 -63 -27 -70 -3 -3 13 5 29 23 46 33 31 67 91 57 101 -3 4 -30 -16 -59 -44 -41 -40 -55 -48 -66 -39 -9 7 -12 21 -8 39 7 38 -7 35 -41 -6 -15 -19 -31 -32 -35 -30 -12 8 -10 55 6 110 21 75 28 124 17 124 -5 0 -13 -5 -16 -10z"/>
      </g>
      <g style="" transform="matrix(0.1 0 0 -0.1 0 436)">
        <path d="M3254 3948 c-11 -14 -36 -80 -54 -147 -18 -66 -37 -118 -41 -115 -5 2 -13 31 -20 64 -14 71 -33 78 -49 20 -6 -22 -15 -40 -20 -40 -5 0 -17 26 -25 58 -28 97 -31 106 -43 110 -19 6 -25 -44 -14 -126 5 -42 6 -81 2 -85 -4 -5 -18 6 -31 23 -52 69 -69 83 -84 70 -8 -7 -15 -23 -15 -35 0 -30 106 -179 209 -295 20 -23 31 -46 31 -67 0 -36 -57 -154 -211 -434 -210 -383 -289 -532 -289 -548 0 -55 84 70 315 467 33 57 65 111 70 120 120 203 163 273 187 305 l30 37 104 0 c78 0 119 5 166 21 72 23 181 96 186 123 4 17 -1 18 -49 12 -29 -4 -70 -16 -93 -27 -49 -23 -56 -24 -56 -1 0 10 16 26 38 37 152 80 232 155 165 155 -16 0 -185 -93 -215 -118 -16 -13 -18 -13 -24 2 -4 10 6 30 30 56 66 74 18 73 -75 0 -85 -67 -91 -38 -19 96 32 58 47 95 40 99 -11 7 -62 -41 -117 -109 -59 -73 -67 -28 -27 149 30 134 29 163 -2 123z"/>
      </g>
      <g style="" transform="matrix(0.1 0 0 -0.1 0 436)">
        <path d="M1703 3744 c-8 -22 -48 -35 -75 -25 -25 9 -68 -3 -80 -22 -4 -7 -8 -22 -8 -34 0 -19 -5 -23 -35 -23 -46 0 -59 -25 -53 -104 3 -35 0 -69 -6 -79 -16 -25 4 -51 45 -59 19 -3 63 -12 97 -18 50 -10 70 -10 90 0 36 16 50 -3 97 -132 39 -107 55 -135 74 -124 20 13 9 76 -28 161 -37 86 -41 115 -13 115 20 0 49 30 72 74 11 21 33 37 77 56 77 32 82 37 49 49 -28 11 -33 30 -14 49 9 9 7 13 -8 18 -10 4 -34 20 -52 36 -21 18 -44 28 -65 28 -18 0 -38 5 -45 12 -12 12 -79 38 -100 38 -7 0 -15 -7 -19 -16z"/>
      </g>
      <g style="" transform="matrix(0.1 0 0 -0.1 0 436)">
        <path d="M1307 3647 c-20 -15 -84 -104 -97 -135 -17 -39 -31 -15 -24 40 6 45 5 50 -12 46 -11 -2 -25 -20 -35 -48 -18 -49 -34 -61 -44 -31 -3 10 -19 24 -35 29 -16 6 -36 25 -46 43 -16 31 -17 32 -30 14 -11 -14 -13 -38 -8 -97 6 -67 5 -78 -10 -84 -22 -8 -39 8 -75 71 -33 59 -48 72 -63 57 -6 -6 1 -34 21 -82 17 -40 29 -75 27 -78 -3 -2 -28 12 -56 32 -27 20 -55 36 -60 36 -13 0 -13 -26 1 -52 18 -34 -3 -39 -53 -13 -55 29 -68 31 -68 9 0 -19 62 -79 105 -101 29 -15 45 -31 45 -45 0 -9 -40 -16 -141 -23 -149 -11 -151 -43 -3 -46 146 -2 148 -19 9 -54 -56 -14 -80 -25 -80 -35 0 -12 12 -15 55 -14 57 1 134 24 254 76 40 18 77 27 90 24 25 -7 121 -120 488 -576 114 -142 256 -300 269 -300 5 0 9 4 9 8 0 11 -410 556 -539 716 -56 71 -111 143 -122 160 -26 42 -24 80 4 99 12 8 46 39 75 68 89 87 207 281 178 292 -8 3 -21 0 -29 -6z"/>
      </g>
      <g style="" transform="matrix(0.1 0 0 -0.1 0 436)">
        <path d="M2645 3610 c-55 -8 -89 -33 -125 -91 -23 -38 -36 -49 -55 -49 -52 0 -43 -60 25 -172 22 -37 43 -80 46 -96 5 -24 -22 -190 -57 -352 -80 -374 -88 -430 -67 -430 9 0 20 6 26 13 6 7 43 172 82 367 45 221 77 359 86 366 8 6 70 13 139 16 69 3 128 8 132 12 4 4 0 19 -9 34 -16 27 -16 29 13 56 17 17 28 35 25 43 -4 8 -6 28 -6 44 0 28 -2 29 -44 29 -25 0 -48 5 -51 10 -4 6 5 24 19 41 14 17 26 40 26 51 0 30 -48 71 -74 64 -14 -4 -33 4 -56 22 -29 23 -41 27 -75 22z"/>
      </g>
      <g style="" transform="matrix(0.1 0 0 -0.1 0 436)">
        <path d="M3495 3274 c-8 -13 -22 -24 -31 -24 -25 0 -26 -26 -4 -71 18 -34 21 -52 16 -90 -4 -32 -2 -55 6 -69 12 -19 10 -24 -17 -47 -108 -91 -185 -167 -185 -183 0 -33 41 -10 139 77 51 46 99 83 106 83 7 0 20 -11 29 -25 9 -14 24 -25 34 -25 10 0 27 -7 38 -15 10 -8 26 -15 34 -15 8 0 33 -9 55 -20 45 -21 65 -13 65 26 0 13 10 34 22 46 25 25 68 103 68 123 0 7 -12 22 -27 33 -23 17 -25 22 -16 48 14 40 0 73 -37 87 -18 7 -33 21 -37 35 -8 34 -32 42 -142 46 -97 4 -101 3 -116 -20z"/>
      </g>
      <g style="" transform="matrix(0.1 0 0 -0.1 0 436)">
        <path d="M1929 3057 c-20 -12 -52 -37 -73 -54 -20 -18 -49 -34 -64 -35 -15 -1 -36 -3 -47 -4 -11 -1 -33 -2 -48 -3 -35 -1 -90 -52 -81 -75 5 -12 -2 -19 -25 -27 -23 -8 -34 -20 -42 -49 -7 -21 -9 -45 -6 -53 11 -29 128 -32 180 -5 35 18 54 -8 97 -136 40 -122 59 -154 80 -141 11 7 11 9 -20 137 -12 48 -20 105 -18 125 3 36 7 40 66 69 64 31 121 85 122 115 0 9 -7 30 -16 47 -8 18 -14 44 -13 60 6 56 -30 68 -92 29z"/>
      </g>
      <g style="" transform="matrix(0.1 0 0 -0.1 0 436)">
        <path d="M810 2970 c-11 -11 -20 -26 -20 -34 0 -7 -7 -19 -15 -26 -10 -8 -15 -31 -15 -64 0 -46 -4 -55 -38 -86 -20 -20 -54 -48 -74 -63 -30 -22 -38 -35 -38 -59 0 -17 7 -40 17 -50 15 -17 15 -19 0 -36 -10 -10 -17 -24 -17 -30 0 -18 40 -80 56 -86 23 -9 115 48 156 97 32 38 41 44 71 42 18 -2 79 -27 134 -55 55 -29 105 -50 112 -46 24 15 9 36 -51 72 -89 53 -138 93 -138 113 0 17 46 91 64 103 6 4 6 15 -2 33 -7 14 -12 41 -12 59 0 34 -10 42 -76 60 -11 4 -28 22 -37 41 -19 40 -46 46 -77 15z"/>
      </g>
      <g style="" transform="matrix(0.1 0 0 -0.1 0 436)">
        <path d="M3939 2858 c-9 -16 -10 -70 -5 -198 8 -207 17 -190 -119 -245 -170 -70 -330 -137 -372 -156 -24 -10 -46 -19 -50 -19 -5 -1 -26 -9 -48 -20 -22 -11 -43 -19 -48 -20 -11 0 -242 -97 -329 -138 -77 -36 -96 -52 -59 -52 19 0 252 80 348 119 26 10 95 37 153 59 58 22 198 77 312 121 122 48 221 81 243 81 35 0 36 -2 75 -83 41 -88 110 -181 191 -259 90 -86 95 -54 9 55 -33 41 -60 80 -60 87 0 13 27 7 73 -17 16 -8 31 -12 34 -10 8 9 -19 43 -48 60 -33 19 -39 47 -9 47 11 0 28 9 37 20 10 11 32 25 50 31 59 19 39 39 -64 65 -109 28 -109 63 1 84 71 13 92 23 82 39 -8 13 -66 14 -119 2 -63 -15 -57 9 18 67 24 19 27 25 15 32 -8 6 -28 10 -43 10 -24 0 -26 2 -17 20 6 11 22 31 36 46 19 18 23 29 16 36 -17 17 -58 1 -117 -47 -30 -25 -57 -45 -59 -45 -12 0 -13 47 -1 98 21 96 25 142 10 142 -20 0 -31 -20 -55 -102 -13 -43 -26 -78 -30 -78 -13 0 -18 53 -13 123 5 57 4 67 -10 67 -9 0 -22 -10 -28 -22z"/>
      </g>
      <g style="" transform="matrix(0.1 0 0 -0.1 0 436)">
        <path d="M3099 2736 c-13 -23 -35 -40 -69 -54 l-49 -20 3 -61 c2 -55 5 -64 39 -99 22 -23 37 -48 37 -63 0 -30 -85 -122 -182 -198 -72 -56 -87 -83 -42 -75 28 5 38 12 199 137 55 42 108 77 118 77 11 0 31 -8 45 -19 39 -27 113 -61 134 -61 17 0 48 46 48 71 0 7 -8 21 -17 31 -13 14 -14 21 -5 30 7 7 12 25 12 40 0 23 -12 36 -65 75 -54 38 -66 53 -71 82 -11 61 -68 140 -102 141 -7 0 -22 -15 -33 -34z"/>
      </g>
      <g style="" transform="matrix(0.1 0 0 -0.1 0 436)">
        <path d="M1962 2728 c-7 -7 -12 -25 -12 -41 0 -32 19 -117 30 -132 4 -5 13 -31 20 -57 9 -34 18 -48 30 -48 35 0 31 64 -12 200 -24 76 -38 96 -56 78z"/>
      </g>
      <g style="" transform="matrix(0.1 0 0 -0.1 0 436)">
        <path d="M2842 2421 c-81 -68 -139 -138 -124 -153 11 -11 46 6 78 36 91 85 144 141 144 152 0 28 -40 13 -98 -35z"/>
      </g>
      <g style="" transform="matrix(0.1 0 0 -0.1 0 436)">
        <path d="M380 2373 c0 -16 9 -57 20 -91 27 -86 25 -91 -13 -54 -18 18 -36 32 -40 32 -14 0 -6 -44 14 -76 11 -19 18 -35 15 -35 -3 -1 -18 -3 -33 -5 -101 -13 -114 -17 -111 -32 2 -9 28 -35 58 -58 32 -24 55 -50 55 -60 0 -17 -8 -19 -82 -16 -111 4 -112 -23 -3 -50 30 -8 54 -18 54 -24 -1 -5 -24 -16 -50 -25 -59 -20 -66 -36 -25 -52 40 -15 36 -27 -19 -55 -55 -27 -60 -39 -24 -48 25 -6 84 2 152 22 34 10 28 -18 -22 -94 -63 -98 -70 -112 -57 -125 8 -8 25 5 61 44 27 30 53 62 56 72 3 9 12 17 20 17 18 0 14 -18 -22 -97 -27 -59 -30 -83 -10 -83 28 0 78 113 116 263 17 66 31 95 48 103 10 5 250 11 534 14 284 3 520 8 524 12 4 5 4 11 0 15 -8 9 -196 19 -506 29 -135 4 -265 8 -290 10 -25 1 -90 3 -146 3 -133 1 -137 4 -146 118 -9 121 -26 185 -79 311 -21 48 -49 57 -49 15z"/>
      </g>
      <g style="" transform="matrix(0.1 0 0 -0.1 0 436)">
        <path d="M1181 2373 c-16 -16 -39 -36 -50 -45 -11 -9 -23 -34 -27 -54 -6 -32 -3 -41 17 -58 23 -20 24 -22 9 -64 l-14 -42 36 -36 c30 -31 40 -35 66 -29 17 3 52 23 78 43 60 45 88 46 181 3 125 -58 116 -21 -12 49 l-70 38 3 82 c3 89 -4 108 -44 108 -13 0 -33 7 -43 16 -29 27 -96 21 -130 -11z"/>
      </g>
      <g style="" transform="matrix(0.1 0 0 -0.1 0 436)">
        <path d="M1486 2272 c-11 -18 118 -112 152 -112 28 0 7 29 -55 73 -65 46 -87 55 -97 39z"/>
      </g>
      <g style="" transform="matrix(0.1 0 0 -0.1 0 436)">
        <path d="M2037 2249 c-118 -28 -208 -103 -227 -191 -21 -92 -10 -175 33 -257 44 -84 46 -110 11 -179 -36 -72 -102 -142 -214 -227 -114 -86 -173 -148 -146 -153 9 -2 59 28 114 70 97 74 166 117 190 118 7 0 17 -11 24 -25 10 -22 7 -30 -28 -72 -21 -26 -87 -95 -145 -153 -124 -123 -164 -173 -184 -230 -17 -47 -20 -90 -7 -90 5 0 40 44 78 98 75 106 174 212 198 212 8 0 20 -9 26 -20 8 -16 1 -37 -38 -112 -27 -51 -66 -118 -87 -148 -21 -30 -52 -75 -68 -100 -16 -25 -40 -61 -53 -79 -13 -19 -21 -37 -19 -39 3 -3 62 52 132 121 172 168 212 201 229 186 22 -18 17 -59 -25 -191 -51 -160 -110 -352 -156 -508 -20 -69 -45 -154 -56 -189 -28 -93 -29 -91 45 -91 36 0 67 4 70 9 3 4 19 62 36 127 128 489 226 765 277 781 60 20 98 -315 54 -472 -11 -38 -16 -74 -12 -78 18 -18 68 42 87 105 21 68 21 70 14 520 -3 200 -1 260 9 272 18 22 45 6 61 -36 6 -18 15 -42 20 -53 4 -11 18 -51 30 -90 29 -91 86 -239 111 -287 26 -51 80 -111 90 -101 5 5 -6 58 -25 118 -47 156 -63 261 -76 498 -14 243 -21 222 100 291 146 84 182 133 181 242 0 50 -7 76 -32 126 -65 129 -221 247 -367 277 -62 13 -201 13 -255 0z"/>
      </g>
      <g style="" transform="matrix(0.1 0 0 -0.1 0 436)">
        <path d="M3905 2179 c-25 -20 -31 -21 -78 -10 l-51 12 -38 -43 c-38 -42 -39 -44 -35 -110 2 -36 1 -72 -3 -79 -7 -11 -127 -26 -222 -28 -31 -1 -38 -5 -38 -21 0 -25 17 -29 163 -32 134 -4 140 -7 151 -83 8 -50 59 -150 82 -159 8 -3 32 2 52 12 34 16 37 21 34 55 -2 31 0 37 16 37 25 0 52 31 52 59 0 13 -6 37 -13 54 -8 18 -21 52 -29 77 -14 43 -14 47 7 87 25 46 28 130 6 171 -15 27 -21 27 -56 1z"/>
      </g>
      <g style="" transform="matrix(0.1 0 0 -0.1 0 436)">
        <path d="M3039 1906 c-2 -2 -33 -7 -69 -11 -71 -7 -75 -9 -65 -24 7 -12 182 -16 209 -5 23 9 19 31 -6 38 -27 7 -63 8 -69 2z"/>
      </g>
      <g style="" transform="matrix(0.1 0 0 -0.1 0 436)">
        <path d="M3237 1882 c-8 -9 -20 -43 -27 -75 -7 -34 -18 -61 -27 -64 -8 -3 -54 -1 -101 5 -48 6 -90 7 -94 4 -17 -16 13 -33 87 -48 44 -9 88 -20 97 -25 10 -5 36 -47 58 -92 56 -116 70 -130 117 -121 56 10 64 20 58 69 -6 40 -5 42 27 51 28 8 34 15 36 43 2 19 -3 50 -12 70 -8 20 -17 48 -20 62 -7 30 -73 99 -96 99 -8 0 -32 9 -52 19 -34 19 -37 19 -51 3z"/>
      </g>
      <g style="" transform="matrix(0.1 0 0 -0.1 0 436)">
        <path d="M1545 1750 c-27 -8 -165 -43 -283 -71 -36 -9 -49 -8 -90 12 -26 12 -60 31 -75 42 -27 18 -32 18 -80 6 -51 -14 -52 -15 -52 -51 0 -24 -8 -44 -24 -62 -21 -22 -22 -28 -12 -54 13 -32 46 -59 104 -86 33 -15 45 -16 95 -5 81 17 102 32 102 73 0 66 -4 63 220 129 47 14 107 31 134 39 27 7 49 18 50 23 1 13 -51 16 -89 5z"/>
      </g>
      <g style="" transform="matrix(0.1 0 0 -0.1 0 436)">
        <path d="M2830 1630 c0 -5 26 -27 58 -47 31 -19 108 -69 169 -109 62 -41 115 -74 118 -74 3 0 31 -17 63 -39 106 -71 317 -208 339 -219 29 -16 45 -68 33 -112 -5 -19 -22 -73 -39 -120 -33 -91 -51 -200 -34 -200 19 0 33 27 44 86 15 86 19 98 31 86 6 -6 14 -49 18 -96 9 -99 17 -117 37 -91 8 13 13 49 13 106 0 93 5 119 24 119 6 0 40 -29 75 -65 61 -64 90 -77 83 -39 -2 10 -12 29 -23 42 -30 39 -25 56 16 49 19 -3 37 -2 40 3 3 5 -11 28 -31 50 -51 57 -36 69 50 41 36 -11 73 -21 82 -21 31 0 -7 31 -73 61 -35 16 -63 34 -63 42 0 23 47 37 120 37 73 0 95 11 58 31 -12 7 -31 22 -41 35 -9 12 -27 24 -40 26 -38 5 -24 32 31 61 75 41 53 60 -37 32 -46 -15 -18 23 58 77 41 29 75 58 75 63 3 29 -49 10 -146 -54 -81 -54 -121 -88 -167 -145 -34 -41 -70 -78 -82 -81 -26 -9 -109 32 -279 139 -74 47 -155 96 -180 109 -52 27 -240 136 -255 146 -36 27 -145 80 -145 71z"/>
      </g>
      <g style="" transform="matrix(0.1 0 0 -0.1 0 436)">
        <path d="M1525 1494 c-60 -36 -144 -86 -185 -111 -41 -25 -144 -88 -228 -140 -171 -107 -156 -105 -233 -32 -74 70 -115 106 -159 136 -68 46 -148 85 -160 78 -15 -9 6 -44 33 -54 18 -7 147 -90 166 -107 16 -14 -18 -13 -84 1 -59 13 -79 15 -88 6 -9 -10 -7 -16 7 -27 11 -8 28 -14 37 -14 25 0 49 -11 49 -22 0 -6 -8 -7 -17 -4 -32 13 -178 17 -193 6 -26 -18 14 -38 88 -45 95 -9 95 -9 99 -22 2 -6 -10 -14 -26 -18 -67 -14 -20 -45 68 -45 45 0 61 -4 61 -14 0 -7 -14 -16 -30 -20 -172 -34 -191 -84 -27 -69 106 9 91 -13 -81 -117 -42 -25 -50 -35 -41 -46 20 -24 112 7 186 62 17 13 34 24 37 24 12 0 5 -22 -15 -50 -31 -41 -19 -64 26 -56 42 8 45 -5 15 -64 -11 -22 -20 -51 -20 -65 0 -20 5 -25 25 -25 19 0 31 11 55 53 16 28 37 73 46 100 8 26 19 47 24 47 10 0 20 -25 20 -51 0 -12 7 -19 19 -19 51 0 56 76 14 209 l-27 83 29 24 c17 13 82 59 145 101 63 43 117 80 120 83 5 5 180 123 246 165 79 50 154 107 154 115 0 24 -54 5 -155 -56z"/>
      </g>
      <g style="" transform="matrix(0.1 0 0 -0.1 0 436)">
        <path d="M4396 1480 c6 -5 25 -15 43 -20 28 -8 32 -7 29 8 -2 12 -15 18 -43 20 -29 2 -37 0 -29 -8z"/>
      </g>
      <g style="" transform="matrix(0.1 0 0 -0.1 0 436)">
        <path d="M2685 1470 c-8 -13 6 -32 101 -137 143 -156 154 -170 154 -193 0 -12 -13 -38 -30 -57 -37 -42 -38 -55 0 -86 39 -33 76 -40 134 -27 77 17 106 36 106 69 0 21 10 37 36 58 33 26 34 30 24 57 l-11 29 -98 -7 -98 -7 -148 156 c-81 85 -151 155 -155 155 -5 0 -12 -4 -15 -10z"/>
      </g>
      <g style="" transform="matrix(0.1 0 0 -0.1 0 436)">
        <path d="M2510 1410 c0 -11 79 -178 176 -370 108 -216 173 -357 170 -368 -3 -9 -33 -41 -66 -71 -79 -69 -122 -156 -88 -177 6 -4 21 5 35 21 13 15 27 24 31 20 4 -4 5 -58 4 -120 -4 -114 1 -131 32 -119 17 7 22 21 31 93 6 55 19 71 35 41 7 -14 19 -20 33 -18 19 3 22 10 23 50 0 27 5 48 10 48 5 1 24 -27 42 -62 32 -60 87 -128 104 -128 18 0 5 43 -37 121 -24 46 -45 92 -45 102 0 28 39 20 85 -17 43 -36 76 -48 81 -31 2 6 -23 39 -56 75 -86 93 -81 101 26 45 37 -20 69 -33 72 -31 2 3 -1 19 -8 36 -7 17 -10 33 -7 36 2 3 44 -11 93 -30 48 -20 89 -36 91 -36 2 0 3 6 3 14 0 22 -54 56 -118 75 -30 9 -57 22 -60 29 -5 15 27 16 64 2 15 -6 31 -7 36 -2 14 14 -24 40 -77 53 -75 18 -75 18 -75 28 0 15 26 19 145 26 60 3 111 8 114 11 3 2 -2 11 -10 20 -12 11 -39 15 -111 15 -102 0 -109 -1 -240 -38 -49 -13 -97 -22 -107 -18 -25 8 -84 103 -204 325 -16 30 -35 64 -42 75 -6 11 -31 56 -55 100 -96 180 -105 195 -121 195 -5 0 -9 -9 -9 -20z"/>
      </g>
      <g style="" transform="matrix(0.1 0 0 -0.1 0 436)">
        <path d="M3907 243 c-2 -5 -10 -26 -17 -48 -7 -22 -26 -66 -42 -98 -36 -73 -51 -65 -68 34 -7 38 -15 69 -20 69 -9 0 -32 -52 -29 -66 4 -24 -2 -91 -10 -103 -8 -12 -13 -11 -30 10 -11 13 -25 39 -31 57 -7 17 -15 32 -20 32 -12 0 -23 -37 -15 -50 3 -5 3 -15 0 -20 -12 -19 -36 11 -73 87 -19 40 -39 73 -43 73 -20 0 -7 -75 22 -136 17 -36 28 -68 25 -72 -4 -3 -29 17 -55 46 -26 28 -50 52 -54 52 -11 0 -8 -57 5 -85 l11 -25 277 0 277 0 41 44 c38 41 52 66 36 66 -12 0 -74 -41 -81 -54 -5 -8 -19 -17 -32 -21 -23 -7 -24 -6 -18 29 7 44 -5 46 -35 6 -46 -62 -53 -28 -18 80 16 46 26 88 24 92 -6 10 -22 10 -27 1z"/>
      </g>
      <g style="" transform="matrix(0.1 0 0 -0.1 0 436)">
        <path d="M774 55 c-4 -11 -15 -25 -23 -32 -24 -17 -9 -25 43 -21 l47 3 -30 35 c-27 33 -30 34 -37 15z"/>
      </g>
      <g style="" transform="matrix(0.1 0 0 -0.1 0 436)">
        <path d="M927 43 c-16 -15 -6 -43 14 -43 15 0 19 4 15 16 -3 9 -6 20 -6 25 0 11 -14 12 -23 2z"/>
      </g>
      <g style="" transform="matrix(0.1 0 0 -0.1 0 436)">
        <path d="M4390 20 c-9 -16 -8 -20 5 -20 8 0 15 9 15 20 0 11 -2 20 -5 20 -2 0 -9 -9 -15 -20z"/>
      </g>
    </g>
  </g>
</svg>
