<?xml version="1.0" standalone="no"?>
<svg viewBox="-11076.85 -21565.05 22153.7 21565.05" version="1.1" xmlns="http://www.w3.org/2000/svg">
	<g stroke="black" fill="transparent" stroke-width="5">
		<line x1="0" y1="0" x2="0.0" y2="-100.0" />
		<line x1="0.0" y1="-100.0" x2="0.0" y2="-200.0" />
		<line x1="0.0" y1="-200.0" x2="0.0" y2="-300.0" />
		<line x1="0.0" y1="-300.0" x2="0.0" y2="-400.0" />
		<line x1="0.0" y1="-400.0" x2="0.0" y2="-500.0" />
		<line x1="0.0" y1="-500.0" x2="0.0" y2="-600.0" />
		<line x1="0.0" y1="-600.0" x2="0.0" y2="-700.0" />
		<line x1="0.0" y1="-700.0" x2="0.0" y2="-800.0" />
		<line x1="0.0" y1="-800.0" x2="0.0" y2="-900.0" />
		<line x1="0.0" y1="-900.0" x2="0.0" y2="-1000.0" />
		<line x1="0.0" y1="-1000.0" x2="0.0" y2="-1100.0" />
		<line x1="0.0" y1="-1100.0" x2="0.0" y2="-1200.0" />
		<line x1="0.0" y1="-1200.0" x2="0.0" y2="-1300.0" />
		<line x1="0.0" y1="-1300.0" x2="0.0" y2="-1400.0" />
		<line x1="0.0" y1="-1400.0" x2="0.0" y2="-1500.0" />
		<line x1="0.0" y1="-1500.0" x2="0.0" y2="-1600.0" />
		<line x1="0.0" y1="-1600.0" x2="0.0" y2="-1700.0" />
		<line x1="0.0" y1="-1700.0" x2="0.0" y2="-1800.0" />
		<line x1="0.0" y1="-1800.0" x2="0.0" y2="-1900.0" />
		<line x1="0.0" y1="-1900.0" x2="0.0" y2="-2000.0" />
		<line x1="0.0" y1="-2000.0" x2="0.0" y2="-2100.0" />
		<line x1="0.0" y1="-2100.0" x2="0.0" y2="-2200.0" />
		<line x1="0.0" y1="-2200.0" x2="0.0" y2="-2300.0" />
		<line x1="0.0" y1="-2300.0" x2="0.0" y2="-2400.0" />
		<line x1="0.0" y1="-2400.0" x2="0.0" y2="-2500.0" />
		<line x1="0.0" y1="-2500.0" x2="0.0" y2="-2600.0" />
		<line x1="0.0" y1="-2600.0" x2="0.0" y2="-2700.0" />
		<line x1="0.0" y1="-2700.0" x2="0.0" y2="-2800.0" />
		<line x1="0.0" y1="-2800.0" x2="0.0" y2="-2900.0" />
		<line x1="0.0" y1="-2900.0" x2="0.0" y2="-3000.0" />
		<line x1="0.0" y1="-3000.0" x2="0.0" y2="-3100.0" />
		<line x1="0.0" y1="-3100.0" x2="0.0" y2="-3200.0" />
		<line x1="0.0" y1="-3200.0" x2="0.0" y2="-3300.0" />
		<line x1="0.0" y1="-3300.0" x2="0.0" y2="-3400.0" />
		<line x1="0.0" y1="-3400.0" x2="0.0" y2="-3500.0" />
		<line x1="0.0" y1="-3500.0" x2="0.0" y2="-3600.0" />
		<line x1="0.0" y1="-3600.0" x2="0.0" y2="-3700.0" />
		<line x1="0.0" y1="-3700.0" x2="0.0" y2="-3800.0" />
		<line x1="0.0" y1="-3800.0" x2="0.0" y2="-3900.0" />
		<line x1="0.0" y1="-3900.0" x2="0.0" y2="-4000.0" />
		<line x1="0.0" y1="-4000.0" x2="0.0" y2="-4100.0" />
		<line x1="0.0" y1="-4100.0" x2="0.0" y2="-4200.0" />
		<line x1="0.0" y1="-4200.0" x2="0.0" y2="-4300.0" />
		<line x1="0.0" y1="-4300.0" x2="0.0" y2="-4400.0" />
		<line x1="0.0" y1="-4400.0" x2="0.0" y2="-4500.0" />
		<line x1="0.0" y1="-4500.0" x2="0.0" y2="-4600.0" />
		<line x1="0.0" y1="-4600.0" x2="0.0" y2="-4700.0" />
		<line x1="0.0" y1="-4700.0" x2="0.0" y2="-4800.0" />
		<line x1="0.0" y1="-4800.0" x2="0.0" y2="-4900.0" />
		<line x1="0.0" y1="-4900.0" x2="0.0" y2="-5000.0" />
		<line x1="0.0" y1="-5000.0" x2="0.0" y2="-5100.0" />
		<line x1="0.0" y1="-5100.0" x2="0.0" y2="-5200.0" />
		<line x1="0.0" y1="-5200.0" x2="0.0" y2="-5300.0" />
		<line x1="0.0" y1="-5300.0" x2="0.0" y2="-5400.0" />
		<line x1="0.0" y1="-5400.0" x2="0.0" y2="-5500.0" />
		<line x1="0.0" y1="-5500.0" x2="0.0" y2="-5600.0" />
		<line x1="0.0" y1="-5600.0" x2="0.0" y2="-5700.0" />
		<line x1="0.0" y1="-5700.0" x2="0.0" y2="-5800.0" />
		<line x1="0.0" y1="-5800.0" x2="0.0" y2="-5900.0" />
		<line x1="0.0" y1="-5900.0" x2="0.0" y2="-6000.0" />
		<line x1="0.0" y1="-6000.0" x2="0.0" y2="-6100.0" />
		<line x1="0.0" y1="-6100.0" x2="0.0" y2="-6200.0" />
		<line x1="0.0" y1="-6200.0" x2="0.0" y2="-6300.0" />
		<line x1="0.0" y1="-6300.0" x2="0.0" y2="-6400.0" />
		<line x1="0.0" y1="-6400.0" x2="0.0" y2="-6500.0" />
		<line x1="0.0" y1="-6500.0" x2="0.0" y2="-6600.0" />
		<line x1="0.0" y1="-6600.0" x2="0.0" y2="-6700.0" />
		<line x1="0.0" y1="-6700.0" x2="0.0" y2="-6800.0" />
		<line x1="0.0" y1="-6800.0" x2="0.0" y2="-6900.0" />
		<line x1="0.0" y1="-6900.0" x2="0.0" y2="-7000.0" />
		<line x1="0.0" y1="-7000.0" x2="0.0" y2="-7100.0" />
		<line x1="0.0" y1="-7100.0" x2="0.0" y2="-7200.0" />
		<line x1="0.0" y1="-7200.0" x2="0.0" y2="-7300.0" />
		<line x1="0.0" y1="-7300.0" x2="0.0" y2="-7400.0" />
		<line x1="0.0" y1="-7400.0" x2="0.0" y2="-7500.0" />
		<line x1="0.0" y1="-7500.0" x2="0.0" y2="-7600.0" />
		<line x1="0.0" y1="-7600.0" x2="0.0" y2="-7700.0" />
		<line x1="0.0" y1="-7700.0" x2="0.0" y2="-7800.0" />
		<line x1="0.0" y1="-7800.0" x2="0.0" y2="-7900.0" />
		<line x1="0.0" y1="-7900.0" x2="0.0" y2="-8000.0" />
		<line x1="0.0" y1="-8000.0" x2="0.0" y2="-8100.0" />
		<line x1="0.0" y1="-8100.0" x2="0.0" y2="-8200.0" />
		<line x1="0.0" y1="-8200.0" x2="0.0" y2="-8300.0" />
		<line x1="0.0" y1="-8300.0" x2="0.0" y2="-8400.0" />
		<line x1="0.0" y1="-8400.0" x2="0.0" y2="-8500.0" />
		<line x1="0.0" y1="-8500.0" x2="0.0" y2="-8600.0" />
		<line x1="0.0" y1="-8600.0" x2="0.0" y2="-8700.0" />
		<line x1="0.0" y1="-8700.0" x2="0.0" y2="-8800.0" />
		<line x1="0.0" y1="-8800.0" x2="0.0" y2="-8900.0" />
		<line x1="0.0" y1="-8900.0" x2="0.0" y2="-9000.0" />
		<line x1="0.0" y1="-9000.0" x2="0.0" y2="-9100.0" />
		<line x1="0.0" y1="-9100.0" x2="0.0" y2="-9200.0" />
		<line x1="0.0" y1="-9200.0" x2="0.0" y2="-9300.0" />
		<line x1="0.0" y1="-9300.0" x2="0.0" y2="-9400.0" />
		<line x1="0.0" y1="-9400.0" x2="0.0" y2="-9500.0" />
		<line x1="0.0" y1="-9500.0" x2="0.0" y2="-9600.0" />
		<line x1="0.0" y1="-9600.0" x2="0.0" y2="-9700.0" />
		<line x1="0.0" y1="-9700.0" x2="0.0" y2="-9800.0" />
		<line x1="0.0" y1="-9800.0" x2="0.0" y2="-9900.0" />
		<line x1="0.0" y1="-9900.0" x2="0.0" y2="-10000.0" />
		<line x1="0.0" y1="-10000.0" x2="0.0" y2="-10100.0" />
		<line x1="0.0" y1="-10100.0" x2="0.0" y2="-10200.0" />
		<line x1="0.0" y1="-10200.0" x2="0.0" y2="-10300.0" />
		<line x1="0.0" y1="-10300.0" x2="0.0" y2="-10400.0" />
		<line x1="0.0" y1="-10400.0" x2="0.0" y2="-10500.0" />
		<line x1="0.0" y1="-10500.0" x2="0.0" y2="-10600.0" />
		<line x1="0.0" y1="-10600.0" x2="0.0" y2="-10700.0" />
		<line x1="0.0" y1="-10700.0" x2="0.0" y2="-10800.0" />
		<line x1="0.0" y1="-10800.0" x2="0.0" y2="-10900.0" />
		<line x1="0.0" y1="-10900.0" x2="0.0" y2="-11000.0" />
		<line x1="0.0" y1="-11000.0" x2="0.0" y2="-11100.0" />
		<line x1="0.0" y1="-11100.0" x2="0.0" y2="-11200.0" />
		<line x1="0.0" y1="-11200.0" x2="0.0" y2="-11300.0" />
		<line x1="0.0" y1="-11300.0" x2="0.0" y2="-11400.0" />
		<line x1="0.0" y1="-11400.0" x2="0.0" y2="-11500.0" />
		<line x1="0.0" y1="-11500.0" x2="0.0" y2="-11600.0" />
		<line x1="0.0" y1="-11600.0" x2="0.0" y2="-11700.0" />
		<line x1="0.0" y1="-11700.0" x2="0.0" y2="-11800.0" />
		<line x1="0.0" y1="-11800.0" x2="0.0" y2="-11900.0" />
		<line x1="0.0" y1="-11900.0" x2="0.0" y2="-12000.0" />
		<line x1="0.0" y1="-12000.0" x2="0.0" y2="-12100.0" />
		<line x1="0.0" y1="-12100.0" x2="0.0" y2="-12200.0" />
		<line x1="0.0" y1="-12200.0" x2="0.0" y2="-12300.0" />
		<line x1="0.0" y1="-12300.0" x2="0.0" y2="-12400.0" />
		<line x1="0.0" y1="-12400.0" x2="0.0" y2="-12500.0" />
		<line x1="0.0" y1="-12500.0" x2="0.0" y2="-12600.0" />
		<line x1="0.0" y1="-12600.0" x2="0.0" y2="-12700.0" />
		<line x1="0.0" y1="-12700.0" x2="0.0" y2="-12800.0" />
		<line x1="0.0" y1="-12800.0" x2="85.09" y2="-12852.53" />
		<line x1="85.09" y1="-12852.53" x2="170.18" y2="-12905.06" />
		<line x1="170.18" y1="-12905.06" x2="255.27" y2="-12957.59" />
		<line x1="255.27" y1="-12957.59" x2="340.36" y2="-13010.12" />
		<line x1="340.36" y1="-13010.12" x2="425.45" y2="-13062.65" />
		<line x1="425.45" y1="-13062.65" x2="510.54" y2="-13115.18" />
		<line x1="510.54" y1="-13115.18" x2="595.63" y2="-13167.71" />
		<line x1="595.63" y1="-13167.71" x2="680.72" y2="-13220.24" />
		<line x1="680.72" y1="-13220.24" x2="765.81" y2="-13272.77" />
		<line x1="765.81" y1="-13272.77" x2="850.9" y2="-13325.3" />
		<line x1="850.9" y1="-13325.3" x2="935.99" y2="-13377.83" />
		<line x1="935.99" y1="-13377.83" x2="1021.08" y2="-13430.36" />
		<line x1="1021.08" y1="-13430.36" x2="1106.17" y2="-13482.89" />
		<line x1="1106.17" y1="-13482.89" x2="1191.26" y2="-13535.42" />
		<line x1="1191.26" y1="-13535.42" x2="1276.35" y2="-13587.95" />
		<line x1="1276.35" y1="-13587.95" x2="1361.44" y2="-13640.48" />
		<line x1="1361.44" y1="-13640.48" x2="1446.53" y2="-13693.01" />
		<line x1="1446.53" y1="-13693.01" x2="1531.62" y2="-13745.54" />
		<line x1="1531.62" y1="-13745.54" x2="1616.71" y2="-13798.07" />
		<line x1="1616.71" y1="-13798.07" x2="1701.8" y2="-13850.6" />
		<line x1="1701.8" y1="-13850.6" x2="1786.89" y2="-13903.13" />
		<line x1="1786.89" y1="-13903.13" x2="1871.98" y2="-13955.66" />
		<line x1="1871.98" y1="-13955.66" x2="1957.07" y2="-14008.19" />
		<line x1="1957.07" y1="-14008.19" x2="2042.16" y2="-14060.72" />
		<line x1="2042.16" y1="-14060.72" x2="2127.25" y2="-14113.25" />
		<line x1="2127.25" y1="-14113.25" x2="2212.34" y2="-14165.78" />
		<line x1="2212.34" y1="-14165.78" x2="2297.43" y2="-14218.31" />
		<line x1="2297.43" y1="-14218.31" x2="2382.52" y2="-14270.84" />
		<line x1="2382.52" y1="-14270.84" x2="2467.61" y2="-14323.37" />
		<line x1="2467.61" y1="-14323.37" x2="2552.7" y2="-14375.9" />
		<line x1="2552.7" y1="-14375.9" x2="2637.79" y2="-14428.43" />
		<line x1="2637.79" y1="-14428.43" x2="2722.88" y2="-14480.96" />
		<line x1="2722.88" y1="-14480.96" x2="2807.97" y2="-14533.49" />
		<line x1="2807.97" y1="-14533.49" x2="2893.06" y2="-14586.02" />
		<line x1="2893.06" y1="-14586.02" x2="2978.15" y2="-14638.55" />
		<line x1="2978.15" y1="-14638.55" x2="3063.24" y2="-14691.08" />
		<line x1="3063.24" y1="-14691.08" x2="3148.33" y2="-14743.61" />
		<line x1="3148.33" y1="-14743.61" x2="3233.42" y2="-14796.14" />
		<line x1="3233.42" y1="-14796.14" x2="3318.51" y2="-14848.67" />
		<line x1="3318.51" y1="-14848.67" x2="3403.6" y2="-14901.2" />
		<line x1="3403.6" y1="-14901.2" x2="3488.69" y2="-14953.73" />
		<line x1="3488.69" y1="-14953.73" x2="3573.78" y2="-15006.26" />
		<line x1="3573.78" y1="-15006.26" x2="3658.87" y2="-15058.79" />
		<line x1="3658.87" y1="-15058.79" x2="3743.96" y2="-15111.32" />
		<line x1="3743.96" y1="-15111.32" x2="3829.05" y2="-15163.85" />
		<line x1="3829.05" y1="-15163.85" x2="3914.14" y2="-15216.38" />
		<line x1="3914.14" y1="-15216.38" x2="3999.23" y2="-15268.91" />
		<line x1="3999.23" y1="-15268.91" x2="4084.32" y2="-15321.44" />
		<line x1="4084.32" y1="-15321.44" x2="4169.41" y2="-15373.97" />
		<line x1="4169.41" y1="-15373.97" x2="4254.5" y2="-15426.5" />
		<line x1="4254.5" y1="-15426.5" x2="4339.59" y2="-15479.03" />
		<line x1="4339.59" y1="-15479.03" x2="4424.68" y2="-15531.56" />
		<line x1="4424.68" y1="-15531.56" x2="4509.77" y2="-15584.09" />
		<line x1="4509.77" y1="-15584.09" x2="4594.86" y2="-15636.62" />
		<line x1="4594.86" y1="-15636.62" x2="4679.95" y2="-15689.15" />
		<line x1="4679.95" y1="-15689.15" x2="4765.04" y2="-15741.68" />
		<line x1="4765.04" y1="-15741.68" x2="4850.13" y2="-15794.21" />
		<line x1="4850.13" y1="-15794.21" x2="4935.22" y2="-15846.74" />
		<line x1="4935.22" y1="-15846.74" x2="5020.31" y2="-15899.27" />
		<line x1="5020.31" y1="-15899.27" x2="5105.4" y2="-15951.8" />
		<line x1="5105.4" y1="-15951.8" x2="5190.49" y2="-16004.33" />
		<line x1="5190.49" y1="-16004.33" x2="5275.58" y2="-16056.86" />
		<line x1="5275.58" y1="-16056.86" x2="5360.67" y2="-16109.39" />
		<line x1="5360.67" y1="-16109.39" x2="5445.76" y2="-16161.92" />
		<line x1="5445.76" y1="-16161.92" x2="5535.16" y2="-16117.11" />
		<line x1="5535.16" y1="-16117.11" x2="5624.56" y2="-16072.3" />
		<line x1="5624.56" y1="-16072.3" x2="5713.96" y2="-16027.49" />
		<line x1="5713.96" y1="-16027.49" x2="5803.36" y2="-15982.68" />
		<line x1="5803.36" y1="-15982.68" x2="5892.76" y2="-15937.87" />
		<line x1="5892.76" y1="-15937.87" x2="5982.16" y2="-15893.06" />
		<line x1="5982.16" y1="-15893.06" x2="6071.56" y2="-15848.25" />
		<line x1="6071.56" y1="-15848.25" x2="6160.96" y2="-15803.44" />
		<line x1="6160.96" y1="-15803.44" x2="6250.36" y2="-15758.63" />
		<line x1="6250.36" y1="-15758.63" x2="6339.76" y2="-15713.82" />
		<line x1="6339.76" y1="-15713.82" x2="6429.16" y2="-15669.01" />
		<line x1="6429.16" y1="-15669.01" x2="6518.56" y2="-15624.2" />
		<line x1="6518.56" y1="-15624.2" x2="6607.96" y2="-15579.39" />
		<line x1="6607.96" y1="-15579.39" x2="6697.36" y2="-15534.58" />
		<line x1="6697.36" y1="-15534.58" x2="6786.76" y2="-15489.77" />
		<line x1="6786.76" y1="-15489.77" x2="6876.16" y2="-15444.96" />
		<line x1="6876.16" y1="-15444.96" x2="6965.56" y2="-15400.15" />
		<line x1="6965.56" y1="-15400.15" x2="7054.96" y2="-15355.34" />
		<line x1="7054.96" y1="-15355.34" x2="7144.36" y2="-15310.53" />
		<line x1="7144.36" y1="-15310.53" x2="7233.76" y2="-15265.72" />
		<line x1="7233.76" y1="-15265.72" x2="7323.16" y2="-15220.91" />
		<line x1="7323.16" y1="-15220.91" x2="7412.56" y2="-15176.1" />
		<line x1="7412.56" y1="-15176.1" x2="7501.96" y2="-15131.29" />
		<line x1="7501.96" y1="-15131.29" x2="7591.36" y2="-15086.48" />
		<line x1="7591.36" y1="-15086.48" x2="7680.76" y2="-15041.67" />
		<line x1="7680.76" y1="-15041.67" x2="7770.16" y2="-14996.86" />
		<line x1="7770.16" y1="-14996.86" x2="7859.56" y2="-14952.05" />
		<line x1="7859.56" y1="-14952.05" x2="7948.96" y2="-14907.24" />
		<line x1="7948.96" y1="-14907.24" x2="8038.36" y2="-14862.43" />
		<line x1="8038.36" y1="-14862.43" x2="8127.76" y2="-14817.62" />
		<line x1="8127.76" y1="-14817.62" x2="8217.16" y2="-14772.81" />
		<line x1="8217.16" y1="-14772.81" x2="8306.56" y2="-14728.0" />
		<line x1="8306.56" y1="-14728.0" x2="8315.4" y2="-14628.39" />
		<line x1="8315.4" y1="-14628.39" x2="8324.24" y2="-14528.78" />
		<line x1="8324.24" y1="-14528.78" x2="8333.08" y2="-14429.17" />
		<line x1="8333.08" y1="-14429.17" x2="8341.92" y2="-14329.56" />
		<line x1="8341.92" y1="-14329.56" x2="8350.76" y2="-14229.95" />
		<line x1="8350.76" y1="-14229.95" x2="8359.6" y2="-14130.34" />
		<line x1="8359.6" y1="-14130.34" x2="8368.44" y2="-14030.73" />
		<line x1="8368.44" y1="-14030.73" x2="8377.28" y2="-13931.12" />
		<line x1="8377.28" y1="-13931.12" x2="8386.12" y2="-13831.51" />
		<line x1="8386.12" y1="-13831.51" x2="8394.96" y2="-13731.9" />
		<line x1="8394.96" y1="-13731.9" x2="8403.8" y2="-13632.29" />
		<line x1="8403.8" y1="-13632.29" x2="8412.64" y2="-13532.68" />
		<line x1="8412.64" y1="-13532.68" x2="8421.48" y2="-13433.07" />
		<line x1="8421.48" y1="-13433.07" x2="8430.32" y2="-13333.46" />
		<line x1="8430.32" y1="-13333.46" x2="8439.16" y2="-13233.85" />
		<line x1="8439.16" y1="-13233.85" x2="8448.0" y2="-13134.24" />
		<line x1="8448.0" y1="-13134.24" x2="8367.88" y2="-13074.39" />
		<line x1="8367.88" y1="-13074.39" x2="8287.76" y2="-13014.54" />
		<line x1="8287.76" y1="-13014.54" x2="8207.64" y2="-12954.69" />
		<line x1="8207.64" y1="-12954.69" x2="8127.52" y2="-12894.84" />
		<line x1="8127.52" y1="-12894.84" x2="8047.4" y2="-12834.99" />
		<line x1="8047.4" y1="-12834.99" x2="7967.28" y2="-12775.14" />
		<line x1="7967.28" y1="-12775.14" x2="7887.16" y2="-12715.29" />
		<line x1="7887.16" y1="-12715.29" x2="7807.04" y2="-12655.44" />
		<line x1="7807.04" y1="-12655.44" x2="7714.03" y2="-12692.17" />
		<line x1="7714.03" y1="-12692.17" x2="7621.02" y2="-12728.9" />
		<line x1="7621.02" y1="-12728.9" x2="7528.01" y2="-12765.63" />
		<line x1="7528.01" y1="-12765.63" x2="7435.0" y2="-12802.36" />
		<line x1="7435.0" y1="-12802.36" x2="7417.4" y2="-12900.8" />
		<line x1="7417.4" y1="-12900.8" x2="7399.8" y2="-12999.24" />
		<line x1="7399.8" y1="-12999.24" x2="7474.31" y2="-13065.93" />
		<line x1="7474.31" y1="-13065.93" x2="7570.2" y2="-13037.56" />
		<line x1="7474.31" y1="-13065.93" x2="7456.71" y2="-13164.37" />
		<line x1="7399.8" y1="-12999.24" x2="7306.79" y2="-13035.97" />
		<line x1="7306.79" y1="-13035.97" x2="7289.19" y2="-13134.41" />
		<line x1="7306.79" y1="-13035.97" x2="7226.67" y2="-12976.12" />
		<line x1="7435.0" y1="-12802.36" x2="7354.88" y2="-12742.51" />
		<line x1="7354.88" y1="-12742.51" x2="7274.76" y2="-12682.66" />
		<line x1="7274.76" y1="-12682.66" x2="7181.75" y2="-12719.39" />
		<line x1="7181.75" y1="-12719.39" x2="7164.15" y2="-12817.83" />
		<line x1="7181.75" y1="-12719.39" x2="7101.63" y2="-12659.54" />
		<line x1="7274.76" y1="-12682.66" x2="7283.6" y2="-12583.05" />
		<line x1="7283.6" y1="-12583.05" x2="7203.48" y2="-12523.2" />
		<line x1="7283.6" y1="-12583.05" x2="7373.0" y2="-12538.24" />
		<line x1="7807.04" y1="-12655.44" x2="7815.88" y2="-12555.83" />
		<line x1="7815.88" y1="-12555.83" x2="7824.72" y2="-12456.22" />
		<line x1="7824.72" y1="-12456.22" x2="7833.56" y2="-12356.61" />
		<line x1="7833.56" y1="-12356.61" x2="7842.4" y2="-12257.0" />
		<line x1="7842.4" y1="-12257.0" x2="7762.28" y2="-12197.15" />
		<line x1="7762.28" y1="-12197.15" x2="7682.16" y2="-12137.3" />
		<line x1="7682.16" y1="-12137.3" x2="7589.15" y2="-12174.03" />
		<line x1="7589.15" y1="-12174.03" x2="7571.55" y2="-12272.47" />
		<line x1="7589.15" y1="-12174.03" x2="7509.03" y2="-12114.18" />
		<line x1="7682.16" y1="-12137.3" x2="7691.0" y2="-12037.69" />
		<line x1="7691.0" y1="-12037.69" x2="7610.88" y2="-11977.84" />
		<line x1="7691.0" y1="-12037.69" x2="7780.4" y2="-11992.88" />
		<line x1="7842.4" y1="-12257.0" x2="7931.8" y2="-12212.19" />
		<line x1="7931.8" y1="-12212.19" x2="8021.2" y2="-12167.38" />
		<line x1="8021.2" y1="-12167.38" x2="8030.04" y2="-12067.77" />
		<line x1="8030.04" y1="-12067.77" x2="7949.92" y2="-12007.92" />
		<line x1="8030.04" y1="-12067.77" x2="8119.44" y2="-12022.96" />
		<line x1="8021.2" y1="-12167.38" x2="8106.29" y2="-12219.91" />
		<line x1="8106.29" y1="-12219.91" x2="8195.69" y2="-12175.1" />
		<line x1="8106.29" y1="-12219.91" x2="8106.29" y2="-12319.91" />
		<line x1="8448.0" y1="-13134.24" x2="8537.4" y2="-13089.43" />
		<line x1="8537.4" y1="-13089.43" x2="8626.8" y2="-13044.62" />
		<line x1="8626.8" y1="-13044.62" x2="8716.2" y2="-12999.81" />
		<line x1="8716.2" y1="-12999.81" x2="8805.6" y2="-12955.0" />
		<line x1="8805.6" y1="-12955.0" x2="8895.0" y2="-12910.19" />
		<line x1="8895.0" y1="-12910.19" x2="8984.4" y2="-12865.38" />
		<line x1="8984.4" y1="-12865.38" x2="9073.8" y2="-12820.57" />
		<line x1="9073.8" y1="-12820.57" x2="9163.2" y2="-12775.76" />
		<line x1="9163.2" y1="-12775.76" x2="9172.04" y2="-12676.15" />
		<line x1="9172.04" y1="-12676.15" x2="9180.88" y2="-12576.54" />
		<line x1="9180.88" y1="-12576.54" x2="9189.72" y2="-12476.93" />
		<line x1="9189.72" y1="-12476.93" x2="9198.56" y2="-12377.32" />
		<line x1="9198.56" y1="-12377.32" x2="9118.44" y2="-12317.47" />
		<line x1="9118.44" y1="-12317.47" x2="9038.32" y2="-12257.62" />
		<line x1="9038.32" y1="-12257.62" x2="8945.31" y2="-12294.35" />
		<line x1="8945.31" y1="-12294.35" x2="8927.71" y2="-12392.79" />
		<line x1="8945.31" y1="-12294.35" x2="8865.19" y2="-12234.5" />
		<line x1="9038.32" y1="-12257.62" x2="9047.16" y2="-12158.01" />
		<line x1="9047.16" y1="-12158.01" x2="8967.04" y2="-12098.16" />
		<line x1="9047.16" y1="-12158.01" x2="9136.56" y2="-12113.2" />
		<line x1="9198.56" y1="-12377.32" x2="9287.96" y2="-12332.51" />
		<line x1="9287.96" y1="-12332.51" x2="9377.36" y2="-12287.7" />
		<line x1="9377.36" y1="-12287.7" x2="9386.2" y2="-12188.09" />
		<line x1="9386.2" y1="-12188.09" x2="9306.08" y2="-12128.24" />
		<line x1="9386.2" y1="-12188.09" x2="9475.6" y2="-12143.28" />
		<line x1="9377.36" y1="-12287.7" x2="9462.45" y2="-12340.23" />
		<line x1="9462.45" y1="-12340.23" x2="9551.85" y2="-12295.42" />
		<line x1="9462.45" y1="-12340.23" x2="9462.45" y2="-12440.23" />
		<line x1="9163.2" y1="-12775.76" x2="9248.29" y2="-12828.29" />
		<line x1="9248.29" y1="-12828.29" x2="9333.38" y2="-12880.82" />
		<line x1="9333.38" y1="-12880.82" x2="9418.47" y2="-12933.35" />
		<line x1="9418.47" y1="-12933.35" x2="9503.56" y2="-12985.88" />
		<line x1="9503.56" y1="-12985.88" x2="9592.96" y2="-12941.07" />
		<line x1="9592.96" y1="-12941.07" x2="9682.36" y2="-12896.26" />
		<line x1="9682.36" y1="-12896.26" x2="9691.2" y2="-12796.65" />
		<line x1="9691.2" y1="-12796.65" x2="9611.08" y2="-12736.8" />
		<line x1="9691.2" y1="-12796.65" x2="9780.6" y2="-12751.84" />
		<line x1="9682.36" y1="-12896.26" x2="9767.45" y2="-12948.79" />
		<line x1="9767.45" y1="-12948.79" x2="9856.85" y2="-12903.98" />
		<line x1="9767.45" y1="-12948.79" x2="9767.45" y2="-13048.79" />
		<line x1="9503.56" y1="-12985.88" x2="9503.56" y2="-13085.88" />
		<line x1="9503.56" y1="-13085.88" x2="9503.56" y2="-13185.88" />
		<line x1="9503.56" y1="-13185.88" x2="9588.65" y2="-13238.41" />
		<line x1="9588.65" y1="-13238.41" x2="9678.05" y2="-13193.6" />
		<line x1="9588.65" y1="-13238.41" x2="9588.65" y2="-13338.41" />
		<line x1="9503.56" y1="-13185.88" x2="9418.47" y2="-13238.41" />
		<line x1="9418.47" y1="-13238.41" x2="9418.47" y2="-13338.41" />
		<line x1="9418.47" y1="-13238.41" x2="9329.07" y2="-13193.6" />
		<line x1="8306.56" y1="-14728.0" x2="8391.65" y2="-14780.53" />
		<line x1="8391.65" y1="-14780.53" x2="8476.74" y2="-14833.06" />
		<line x1="8476.74" y1="-14833.06" x2="8561.83" y2="-14885.59" />
		<line x1="8561.83" y1="-14885.59" x2="8646.92" y2="-14938.12" />
		<line x1="8646.92" y1="-14938.12" x2="8732.01" y2="-14990.65" />
		<line x1="8732.01" y1="-14990.65" x2="8817.1" y2="-15043.18" />
		<line x1="8817.1" y1="-15043.18" x2="8902.19" y2="-15095.71" />
		<line x1="8902.19" y1="-15095.71" x2="8987.28" y2="-15148.24" />
		<line x1="8987.28" y1="-15148.24" x2="9072.37" y2="-15200.77" />
		<line x1="9072.37" y1="-15200.77" x2="9157.46" y2="-15253.3" />
		<line x1="9157.46" y1="-15253.3" x2="9242.55" y2="-15305.83" />
		<line x1="9242.55" y1="-15305.83" x2="9327.64" y2="-15358.36" />
		<line x1="9327.64" y1="-15358.36" x2="9412.73" y2="-15410.89" />
		<line x1="9412.73" y1="-15410.89" x2="9497.82" y2="-15463.42" />
		<line x1="9497.82" y1="-15463.42" x2="9582.91" y2="-15515.95" />
		<line x1="9582.91" y1="-15515.95" x2="9668.0" y2="-15568.48" />
		<line x1="9668.0" y1="-15568.48" x2="9757.4" y2="-15523.67" />
		<line x1="9757.4" y1="-15523.67" x2="9846.8" y2="-15478.86" />
		<line x1="9846.8" y1="-15478.86" x2="9936.2" y2="-15434.05" />
		<line x1="9936.2" y1="-15434.05" x2="10025.6" y2="-15389.24" />
		<line x1="10025.6" y1="-15389.24" x2="10115.0" y2="-15344.43" />
		<line x1="10115.0" y1="-15344.43" x2="10204.4" y2="-15299.62" />
		<line x1="10204.4" y1="-15299.62" x2="10293.8" y2="-15254.81" />
		<line x1="10293.8" y1="-15254.81" x2="10383.2" y2="-15210.0" />
		<line x1="10383.2" y1="-15210.0" x2="10392.04" y2="-15110.39" />
		<line x1="10392.04" y1="-15110.39" x2="10400.88" y2="-15010.78" />
		<line x1="10400.88" y1="-15010.78" x2="10409.72" y2="-14911.17" />
		<line x1="10409.72" y1="-14911.17" x2="10418.56" y2="-14811.56" />
		<line x1="10418.56" y1="-14811.56" x2="10338.44" y2="-14751.71" />
		<line x1="10338.44" y1="-14751.71" x2="10258.32" y2="-14691.86" />
		<line x1="10258.32" y1="-14691.86" x2="10165.31" y2="-14728.59" />
		<line x1="10165.31" y1="-14728.59" x2="10147.71" y2="-14827.03" />
		<line x1="10165.31" y1="-14728.59" x2="10085.19" y2="-14668.74" />
		<line x1="10258.32" y1="-14691.86" x2="10267.16" y2="-14592.25" />
		<line x1="10267.16" y1="-14592.25" x2="10187.04" y2="-14532.4" />
		<line x1="10267.16" y1="-14592.25" x2="10356.56" y2="-14547.44" />
		<line x1="10418.56" y1="-14811.56" x2="10507.96" y2="-14766.75" />
		<line x1="10507.96" y1="-14766.75" x2="10597.36" y2="-14721.94" />
		<line x1="10597.36" y1="-14721.94" x2="10606.2" y2="-14622.33" />
		<line x1="10606.2" y1="-14622.33" x2="10526.08" y2="-14562.48" />
		<line x1="10606.2" y1="-14622.33" x2="10695.6" y2="-14577.52" />
		<line x1="10597.36" y1="-14721.94" x2="10682.45" y2="-14774.47" />
		<line x1="10682.45" y1="-14774.47" x2="10771.85" y2="-14729.66" />
		<line x1="10682.45" y1="-14774.47" x2="10682.45" y2="-14874.47" />
		<line x1="10383.2" y1="-15210.0" x2="10468.29" y2="-15262.53" />
		<line x1="10468.29" y1="-15262.53" x2="10553.38" y2="-15315.06" />
		<line x1="10553.38" y1="-15315.06" x2="10638.47" y2="-15367.59" />
		<line x1="10638.47" y1="-15367.59" x2="10723.56" y2="-15420.12" />
		<line x1="10723.56" y1="-15420.12" x2="10812.96" y2="-15375.31" />
		<line x1="10812.96" y1="-15375.31" x2="10902.36" y2="-15330.5" />
		<line x1="10902.36" y1="-15330.5" x2="10911.2" y2="-15230.89" />
		<line x1="10911.2" y1="-15230.89" x2="10831.08" y2="-15171.04" />
		<line x1="10911.2" y1="-15230.89" x2="11000.6" y2="-15186.08" />
		<line x1="10902.36" y1="-15330.5" x2="10987.45" y2="-15383.03" />
		<line x1="10987.45" y1="-15383.03" x2="11076.85" y2="-15338.22" />
		<line x1="10987.45" y1="-15383.03" x2="10987.45" y2="-15483.03" />
		<line x1="10723.56" y1="-15420.12" x2="10723.56" y2="-15520.12" />
		<line x1="10723.56" y1="-15520.12" x2="10723.56" y2="-15620.12" />
		<line x1="10723.56" y1="-15620.12" x2="10808.65" y2="-15672.65" />
		<line x1="10808.65" y1="-15672.65" x2="10898.05" y2="-15627.84" />
		<line x1="10808.65" y1="-15672.65" x2="10808.65" y2="-15772.65" />
		<line x1="10723.56" y1="-15620.12" x2="10638.47" y2="-15672.65" />
		<line x1="10638.47" y1="-15672.65" x2="10638.47" y2="-15772.65" />
		<line x1="10638.47" y1="-15672.65" x2="10549.07" y2="-15627.84" />
		<line x1="9668.0" y1="-15568.48" x2="9668.0" y2="-15668.48" />
		<line x1="9668.0" y1="-15668.48" x2="9668.0" y2="-15768.48" />
		<line x1="9668.0" y1="-15768.48" x2="9668.0" y2="-15868.48" />
		<line x1="9668.0" y1="-15868.48" x2="9668.0" y2="-15968.48" />
		<line x1="9668.0" y1="-15968.48" x2="9668.0" y2="-16068.48" />
		<line x1="9668.0" y1="-16068.48" x2="9668.0" y2="-16168.48" />
		<line x1="9668.0" y1="-16168.48" x2="9668.0" y2="-16268.48" />
		<line x1="9668.0" y1="-16268.48" x2="9668.0" y2="-16368.48" />
		<line x1="9668.0" y1="-16368.48" x2="9753.09" y2="-16421.01" />
		<line x1="9753.09" y1="-16421.01" x2="9838.18" y2="-16473.54" />
		<line x1="9838.18" y1="-16473.54" x2="9923.27" y2="-16526.07" />
		<line x1="9923.27" y1="-16526.07" x2="10008.36" y2="-16578.6" />
		<line x1="10008.36" y1="-16578.6" x2="10097.76" y2="-16533.79" />
		<line x1="10097.76" y1="-16533.79" x2="10187.16" y2="-16488.98" />
		<line x1="10187.16" y1="-16488.98" x2="10196.0" y2="-16389.37" />
		<line x1="10196.0" y1="-16389.37" x2="10115.88" y2="-16329.52" />
		<line x1="10196.0" y1="-16389.37" x2="10285.4" y2="-16344.56" />
		<line x1="10187.16" y1="-16488.98" x2="10272.25" y2="-16541.51" />
		<line x1="10272.25" y1="-16541.51" x2="10361.65" y2="-16496.7" />
		<line x1="10272.25" y1="-16541.51" x2="10272.25" y2="-16641.51" />
		<line x1="10008.36" y1="-16578.6" x2="10008.36" y2="-16678.6" />
		<line x1="10008.36" y1="-16678.6" x2="10008.36" y2="-16778.6" />
		<line x1="10008.36" y1="-16778.6" x2="10093.45" y2="-16831.13" />
		<line x1="10093.45" y1="-16831.13" x2="10182.85" y2="-16786.32" />
		<line x1="10093.45" y1="-16831.13" x2="10093.45" y2="-16931.13" />
		<line x1="10008.36" y1="-16778.6" x2="9923.27" y2="-16831.13" />
		<line x1="9923.27" y1="-16831.13" x2="9923.27" y2="-16931.13" />
		<line x1="9923.27" y1="-16831.13" x2="9833.87" y2="-16786.32" />
		<line x1="9668.0" y1="-16368.48" x2="9582.91" y2="-16421.01" />
		<line x1="9582.91" y1="-16421.01" x2="9497.82" y2="-16473.54" />
		<line x1="9497.82" y1="-16473.54" x2="9412.73" y2="-16526.07" />
		<line x1="9412.73" y1="-16526.07" x2="9327.64" y2="-16578.6" />
		<line x1="9327.64" y1="-16578.6" x2="9327.64" y2="-16678.6" />
		<line x1="9327.64" y1="-16678.6" x2="9327.64" y2="-16778.6" />
		<line x1="9327.64" y1="-16778.6" x2="9412.73" y2="-16831.13" />
		<line x1="9412.73" y1="-16831.13" x2="9502.13" y2="-16786.32" />
		<line x1="9412.73" y1="-16831.13" x2="9412.73" y2="-16931.13" />
		<line x1="9327.64" y1="-16778.6" x2="9242.55" y2="-16831.13" />
		<line x1="9242.55" y1="-16831.13" x2="9242.55" y2="-16931.13" />
		<line x1="9242.55" y1="-16831.13" x2="9153.15" y2="-16786.32" />
		<line x1="9327.64" y1="-16578.6" x2="9238.24" y2="-16533.79" />
		<line x1="9238.24" y1="-16533.79" x2="9148.84" y2="-16488.98" />
		<line x1="9148.84" y1="-16488.98" x2="9063.75" y2="-16541.51" />
		<line x1="9063.75" y1="-16541.51" x2="9063.75" y2="-16641.51" />
		<line x1="9063.75" y1="-16541.51" x2="8974.35" y2="-16496.7" />
		<line x1="9148.84" y1="-16488.98" x2="9140.0" y2="-16389.37" />
		<line x1="9140.0" y1="-16389.37" x2="9050.6" y2="-16344.56" />
		<line x1="9140.0" y1="-16389.37" x2="9220.12" y2="-16329.52" />
		<line x1="5445.76" y1="-16161.92" x2="5445.76" y2="-16261.92" />
		<line x1="5445.76" y1="-16261.92" x2="5445.76" y2="-16361.92" />
		<line x1="5445.76" y1="-16361.92" x2="5445.76" y2="-16461.92" />
		<line x1="5445.76" y1="-16461.92" x2="5445.76" y2="-16561.92" />
		<line x1="5445.76" y1="-16561.92" x2="5445.76" y2="-16661.92" />
		<line x1="5445.76" y1="-16661.92" x2="5445.76" y2="-16761.92" />
		<line x1="5445.76" y1="-16761.92" x2="5445.76" y2="-16861.92" />
		<line x1="5445.76" y1="-16861.92" x2="5445.76" y2="-16961.92" />
		<line x1="5445.76" y1="-16961.92" x2="5445.76" y2="-17061.92" />
		<line x1="5445.76" y1="-17061.92" x2="5445.76" y2="-17161.92" />
		<line x1="5445.76" y1="-17161.92" x2="5445.76" y2="-17261.92" />
		<line x1="5445.76" y1="-17261.92" x2="5445.76" y2="-17361.92" />
		<line x1="5445.76" y1="-17361.92" x2="5445.76" y2="-17461.92" />
		<line x1="5445.76" y1="-17461.92" x2="5445.76" y2="-17561.92" />
		<line x1="5445.76" y1="-17561.92" x2="5445.76" y2="-17661.92" />
		<line x1="5445.76" y1="-17661.92" x2="5445.76" y2="-17761.92" />
		<line x1="5445.76" y1="-17761.92" x2="5445.76" y2="-17861.92" />
		<line x1="5445.76" y1="-17861.92" x2="5445.76" y2="-17961.92" />
		<line x1="5445.76" y1="-17961.92" x2="5445.76" y2="-18061.92" />
		<line x1="5445.76" y1="-18061.92" x2="5445.76" y2="-18161.92" />
		<line x1="5445.76" y1="-18161.92" x2="5445.76" y2="-18261.92" />
		<line x1="5445.76" y1="-18261.92" x2="5445.76" y2="-18361.92" />
		<line x1="5445.76" y1="-18361.92" x2="5445.76" y2="-18461.92" />
		<line x1="5445.76" y1="-18461.92" x2="5445.76" y2="-18561.92" />
		<line x1="5445.76" y1="-18561.92" x2="5445.76" y2="-18661.92" />
		<line x1="5445.76" y1="-18661.92" x2="5445.76" y2="-18761.92" />
		<line x1="5445.76" y1="-18761.92" x2="5445.76" y2="-18861.92" />
		<line x1="5445.76" y1="-18861.92" x2="5445.76" y2="-18961.92" />
		<line x1="5445.76" y1="-18961.92" x2="5445.76" y2="-19061.92" />
		<line x1="5445.76" y1="-19061.92" x2="5445.76" y2="-19161.92" />
		<line x1="5445.76" y1="-19161.92" x2="5445.76" y2="-19261.92" />
		<line x1="5445.76" y1="-19261.92" x2="5445.76" y2="-19361.92" />
		<line x1="5445.76" y1="-19361.92" x2="5530.85" y2="-19414.45" />
		<line x1="5530.85" y1="-19414.45" x2="5615.94" y2="-19466.98" />
		<line x1="5615.94" y1="-19466.98" x2="5701.03" y2="-19519.51" />
		<line x1="5701.03" y1="-19519.51" x2="5786.12" y2="-19572.04" />
		<line x1="5786.12" y1="-19572.04" x2="5871.21" y2="-19624.57" />
		<line x1="5871.21" y1="-19624.57" x2="5956.3" y2="-19677.1" />
		<line x1="5956.3" y1="-19677.1" x2="6041.39" y2="-19729.63" />
		<line x1="6041.39" y1="-19729.63" x2="6126.48" y2="-19782.16" />
		<line x1="6126.48" y1="-19782.16" x2="6211.57" y2="-19834.69" />
		<line x1="6211.57" y1="-19834.69" x2="6296.66" y2="-19887.22" />
		<line x1="6296.66" y1="-19887.22" x2="6381.75" y2="-19939.75" />
		<line x1="6381.75" y1="-19939.75" x2="6466.84" y2="-19992.28" />
		<line x1="6466.84" y1="-19992.28" x2="6551.93" y2="-20044.81" />
		<line x1="6551.93" y1="-20044.81" x2="6637.02" y2="-20097.34" />
		<line x1="6637.02" y1="-20097.34" x2="6722.11" y2="-20149.87" />
		<line x1="6722.11" y1="-20149.87" x2="6807.2" y2="-20202.4" />
		<line x1="6807.2" y1="-20202.4" x2="6896.6" y2="-20157.59" />
		<line x1="6896.6" y1="-20157.59" x2="6986.0" y2="-20112.78" />
		<line x1="6986.0" y1="-20112.78" x2="7075.4" y2="-20067.97" />
		<line x1="7075.4" y1="-20067.97" x2="7164.8" y2="-20023.16" />
		<line x1="7164.8" y1="-20023.16" x2="7254.2" y2="-19978.35" />
		<line x1="7254.2" y1="-19978.35" x2="7343.6" y2="-19933.54" />
		<line x1="7343.6" y1="-19933.54" x2="7433.0" y2="-19888.73" />
		<line x1="7433.0" y1="-19888.73" x2="7522.4" y2="-19843.92" />
		<line x1="7522.4" y1="-19843.92" x2="7531.24" y2="-19744.31" />
		<line x1="7531.24" y1="-19744.31" x2="7540.08" y2="-19644.7" />
		<line x1="7540.08" y1="-19644.7" x2="7548.92" y2="-19545.09" />
		<line x1="7548.92" y1="-19545.09" x2="7557.76" y2="-19445.48" />
		<line x1="7557.76" y1="-19445.48" x2="7477.64" y2="-19385.63" />
		<line x1="7477.64" y1="-19385.63" x2="7397.52" y2="-19325.78" />
		<line x1="7397.52" y1="-19325.78" x2="7304.51" y2="-19362.51" />
		<line x1="7304.51" y1="-19362.51" x2="7286.91" y2="-19460.95" />
		<line x1="7304.51" y1="-19362.51" x2="7224.39" y2="-19302.66" />
		<line x1="7397.52" y1="-19325.78" x2="7406.36" y2="-19226.17" />
		<line x1="7406.36" y1="-19226.17" x2="7326.24" y2="-19166.32" />
		<line x1="7406.36" y1="-19226.17" x2="7495.76" y2="-19181.36" />
		<line x1="7557.76" y1="-19445.48" x2="7647.16" y2="-19400.67" />
		<line x1="7647.16" y1="-19400.67" x2="7736.56" y2="-19355.86" />
		<line x1="7736.56" y1="-19355.86" x2="7745.4" y2="-19256.25" />
		<line x1="7745.4" y1="-19256.25" x2="7665.28" y2="-19196.4" />
		<line x1="7745.4" y1="-19256.25" x2="7834.8" y2="-19211.44" />
		<line x1="7736.56" y1="-19355.86" x2="7821.65" y2="-19408.39" />
		<line x1="7821.65" y1="-19408.39" x2="7911.05" y2="-19363.58" />
		<line x1="7821.65" y1="-19408.39" x2="7821.65" y2="-19508.39" />
		<line x1="7522.4" y1="-19843.92" x2="7607.49" y2="-19896.45" />
		<line x1="7607.49" y1="-19896.45" x2="7692.58" y2="-19948.98" />
		<line x1="7692.58" y1="-19948.98" x2="7777.67" y2="-20001.51" />
		<line x1="7777.67" y1="-20001.51" x2="7862.76" y2="-20054.04" />
		<line x1="7862.76" y1="-20054.04" x2="7952.16" y2="-20009.23" />
		<line x1="7952.16" y1="-20009.23" x2="8041.56" y2="-19964.42" />
		<line x1="8041.56" y1="-19964.42" x2="8050.4" y2="-19864.81" />
		<line x1="8050.4" y1="-19864.81" x2="7970.28" y2="-19804.96" />
		<line x1="8050.4" y1="-19864.81" x2="8139.8" y2="-19820.0" />
		<line x1="8041.56" y1="-19964.42" x2="8126.65" y2="-20016.95" />
		<line x1="8126.65" y1="-20016.95" x2="8216.05" y2="-19972.14" />
		<line x1="8126.65" y1="-20016.95" x2="8126.65" y2="-20116.95" />
		<line x1="7862.76" y1="-20054.04" x2="7862.76" y2="-20154.04" />
		<line x1="7862.76" y1="-20154.04" x2="7862.76" y2="-20254.04" />
		<line x1="7862.76" y1="-20254.04" x2="7947.85" y2="-20306.57" />
		<line x1="7947.85" y1="-20306.57" x2="8037.25" y2="-20261.76" />
		<line x1="7947.85" y1="-20306.57" x2="7947.85" y2="-20406.57" />
		<line x1="7862.76" y1="-20254.04" x2="7777.67" y2="-20306.57" />
		<line x1="7777.67" y1="-20306.57" x2="7777.67" y2="-20406.57" />
		<line x1="7777.67" y1="-20306.57" x2="7688.27" y2="-20261.76" />
		<line x1="6807.2" y1="-20202.4" x2="6807.2" y2="-20302.4" />
		<line x1="6807.2" y1="-20302.4" x2="6807.2" y2="-20402.4" />
		<line x1="6807.2" y1="-20402.4" x2="6807.2" y2="-20502.4" />
		<line x1="6807.2" y1="-20502.4" x2="6807.2" y2="-20602.4" />
		<line x1="6807.2" y1="-20602.4" x2="6807.2" y2="-20702.4" />
		<line x1="6807.2" y1="-20702.4" x2="6807.2" y2="-20802.4" />
		<line x1="6807.2" y1="-20802.4" x2="6807.2" y2="-20902.4" />
		<line x1="6807.2" y1="-20902.4" x2="6807.2" y2="-21002.4" />
		<line x1="6807.2" y1="-21002.4" x2="6892.29" y2="-21054.93" />
		<line x1="6892.29" y1="-21054.93" x2="6977.38" y2="-21107.46" />
		<line x1="6977.38" y1="-21107.46" x2="7062.47" y2="-21159.99" />
		<line x1="7062.47" y1="-21159.99" x2="7147.56" y2="-21212.52" />
		<line x1="7147.56" y1="-21212.52" x2="7236.96" y2="-21167.71" />
		<line x1="7236.96" y1="-21167.71" x2="7326.36" y2="-21122.9" />
		<line x1="7326.36" y1="-21122.9" x2="7335.2" y2="-21023.29" />
		<line x1="7335.2" y1="-21023.29" x2="7255.08" y2="-20963.44" />
		<line x1="7335.2" y1="-21023.29" x2="7424.6" y2="-20978.48" />
		<line x1="7326.36" y1="-21122.9" x2="7411.45" y2="-21175.43" />
		<line x1="7411.45" y1="-21175.43" x2="7500.85" y2="-21130.62" />
		<line x1="7411.45" y1="-21175.43" x2="7411.45" y2="-21275.43" />
		<line x1="7147.56" y1="-21212.52" x2="7147.56" y2="-21312.52" />
		<line x1="7147.56" y1="-21312.52" x2="7147.56" y2="-21412.52" />
		<line x1="7147.56" y1="-21412.52" x2="7232.65" y2="-21465.05" />
		<line x1="7232.65" y1="-21465.05" x2="7322.05" y2="-21420.24" />
		<line x1="7232.65" y1="-21465.05" x2="7232.65" y2="-21565.05" />
		<line x1="7147.56" y1="-21412.52" x2="7062.47" y2="-21465.05" />
		<line x1="7062.47" y1="-21465.05" x2="7062.47" y2="-21565.05" />
		<line x1="7062.47" y1="-21465.05" x2="6973.07" y2="-21420.24" />
		<line x1="6807.2" y1="-21002.4" x2="6722.11" y2="-21054.93" />
		<line x1="6722.11" y1="-21054.93" x2="6637.02" y2="-21107.46" />
		<line x1="6637.02" y1="-21107.46" x2="6551.93" y2="-21159.99" />
		<line x1="6551.93" y1="-21159.99" x2="6466.84" y2="-21212.52" />
		<line x1="6466.84" y1="-21212.52" x2="6466.84" y2="-21312.52" />
		<line x1="6466.84" y1="-21312.52" x2="6466.84" y2="-21412.52" />
		<line x1="6466.84" y1="-21412.52" x2="6551.93" y2="-21465.05" />
		<line x1="6551.93" y1="-21465.05" x2="6641.33" y2="-21420.24" />
		<line x1="6551.93" y1="-21465.05" x2="6551.93" y2="-21565.05" />
		<line x1="6466.84" y1="-21412.52" x2="6381.75" y2="-21465.05" />
		<line x1="6381.75" y1="-21465.05" x2="6381.75" y2="-21565.05" />
		<line x1="6381.75" y1="-21465.05" x2="6292.35" y2="-21420.24" />
		<line x1="6466.84" y1="-21212.52" x2="6377.44" y2="-21167.71" />
		<line x1="6377.44" y1="-21167.71" x2="6288.04" y2="-21122.9" />
		<line x1="6288.04" y1="-21122.9" x2="6202.95" y2="-21175.43" />
		<line x1="6202.95" y1="-21175.43" x2="6202.95" y2="-21275.43" />
		<line x1="6202.95" y1="-21175.43" x2="6113.55" y2="-21130.62" />
		<line x1="6288.04" y1="-21122.9" x2="6279.2" y2="-21023.29" />
		<line x1="6279.2" y1="-21023.29" x2="6189.8" y2="-20978.48" />
		<line x1="6279.2" y1="-21023.29" x2="6359.32" y2="-20963.44" />
		<line x1="5445.76" y1="-19361.92" x2="5360.67" y2="-19414.45" />
		<line x1="5360.67" y1="-19414.45" x2="5275.58" y2="-19466.98" />
		<line x1="5275.58" y1="-19466.98" x2="5190.49" y2="-19519.51" />
		<line x1="5190.49" y1="-19519.51" x2="5105.4" y2="-19572.04" />
		<line x1="5105.4" y1="-19572.04" x2="5020.31" y2="-19624.57" />
		<line x1="5020.31" y1="-19624.57" x2="4935.22" y2="-19677.1" />
		<line x1="4935.22" y1="-19677.1" x2="4850.13" y2="-19729.63" />
		<line x1="4850.13" y1="-19729.63" x2="4765.04" y2="-19782.16" />
		<line x1="4765.04" y1="-19782.16" x2="4679.95" y2="-19834.69" />
		<line x1="4679.95" y1="-19834.69" x2="4594.86" y2="-19887.22" />
		<line x1="4594.86" y1="-19887.22" x2="4509.77" y2="-19939.75" />
		<line x1="4509.77" y1="-19939.75" x2="4424.68" y2="-19992.28" />
		<line x1="4424.68" y1="-19992.28" x2="4339.59" y2="-20044.81" />
		<line x1="4339.59" y1="-20044.81" x2="4254.5" y2="-20097.34" />
		<line x1="4254.5" y1="-20097.34" x2="4169.41" y2="-20149.87" />
		<line x1="4169.41" y1="-20149.87" x2="4084.32" y2="-20202.4" />
		<line x1="4084.32" y1="-20202.4" x2="4084.32" y2="-20302.4" />
		<line x1="4084.32" y1="-20302.4" x2="4084.32" y2="-20402.4" />
		<line x1="4084.32" y1="-20402.4" x2="4084.32" y2="-20502.4" />
		<line x1="4084.32" y1="-20502.4" x2="4084.32" y2="-20602.4" />
		<line x1="4084.32" y1="-20602.4" x2="4084.32" y2="-20702.4" />
		<line x1="4084.32" y1="-20702.4" x2="4084.32" y2="-20802.4" />
		<line x1="4084.32" y1="-20802.4" x2="4084.32" y2="-20902.4" />
		<line x1="4084.32" y1="-20902.4" x2="4084.32" y2="-21002.4" />
		<line x1="4084.32" y1="-21002.4" x2="4169.41" y2="-21054.93" />
		<line x1="4169.41" y1="-21054.93" x2="4254.5" y2="-21107.46" />
		<line x1="4254.5" y1="-21107.46" x2="4339.59" y2="-21159.99" />
		<line x1="4339.59" y1="-21159.99" x2="4424.68" y2="-21212.52" />
		<line x1="4424.68" y1="-21212.52" x2="4514.08" y2="-21167.71" />
		<line x1="4514.08" y1="-21167.71" x2="4603.48" y2="-21122.9" />
		<line x1="4603.48" y1="-21122.9" x2="4612.32" y2="-21023.29" />
		<line x1="4612.32" y1="-21023.29" x2="4532.2" y2="-20963.44" />
		<line x1="4612.32" y1="-21023.29" x2="4701.72" y2="-20978.48" />
		<line x1="4603.48" y1="-21122.9" x2="4688.57" y2="-21175.43" />
		<line x1="4688.57" y1="-21175.43" x2="4777.97" y2="-21130.62" />
		<line x1="4688.57" y1="-21175.43" x2="4688.57" y2="-21275.43" />
		<line x1="4424.68" y1="-21212.52" x2="4424.68" y2="-21312.52" />
		<line x1="4424.68" y1="-21312.52" x2="4424.68" y2="-21412.52" />
		<line x1="4424.68" y1="-21412.52" x2="4509.77" y2="-21465.05" />
		<line x1="4509.77" y1="-21465.05" x2="4599.17" y2="-21420.24" />
		<line x1="4509.77" y1="-21465.05" x2="4509.77" y2="-21565.05" />
		<line x1="4424.68" y1="-21412.52" x2="4339.59" y2="-21465.05" />
		<line x1="4339.59" y1="-21465.05" x2="4339.59" y2="-21565.05" />
		<line x1="4339.59" y1="-21465.05" x2="4250.19" y2="-21420.24" />
		<line x1="4084.32" y1="-21002.4" x2="3999.23" y2="-21054.93" />
		<line x1="3999.23" y1="-21054.93" x2="3914.14" y2="-21107.46" />
		<line x1="3914.14" y1="-21107.46" x2="3829.05" y2="-21159.99" />
		<line x1="3829.05" y1="-21159.99" x2="3743.96" y2="-21212.52" />
		<line x1="3743.96" y1="-21212.52" x2="3743.96" y2="-21312.52" />
		<line x1="3743.96" y1="-21312.52" x2="3743.96" y2="-21412.52" />
		<line x1="3743.96" y1="-21412.52" x2="3829.05" y2="-21465.05" />
		<line x1="3829.05" y1="-21465.05" x2="3918.45" y2="-21420.24" />
		<line x1="3829.05" y1="-21465.05" x2="3829.05" y2="-21565.05" />
		<line x1="3743.96" y1="-21412.52" x2="3658.87" y2="-21465.05" />
		<line x1="3658.87" y1="-21465.05" x2="3658.87" y2="-21565.05" />
		<line x1="3658.87" y1="-21465.05" x2="3569.47" y2="-21420.24" />
		<line x1="3743.96" y1="-21212.52" x2="3654.56" y2="-21167.71" />
		<line x1="3654.56" y1="-21167.71" x2="3565.16" y2="-21122.9" />
		<line x1="3565.16" y1="-21122.9" x2="3480.07" y2="-21175.43" />
		<line x1="3480.07" y1="-21175.43" x2="3480.07" y2="-21275.43" />
		<line x1="3480.07" y1="-21175.43" x2="3390.67" y2="-21130.62" />
		<line x1="3565.16" y1="-21122.9" x2="3556.32" y2="-21023.29" />
		<line x1="3556.32" y1="-21023.29" x2="3466.92" y2="-20978.48" />
		<line x1="3556.32" y1="-21023.29" x2="3636.44" y2="-20963.44" />
		<line x1="4084.32" y1="-20202.4" x2="3994.92" y2="-20157.59" />
		<line x1="3994.92" y1="-20157.59" x2="3905.52" y2="-20112.78" />
		<line x1="3905.52" y1="-20112.78" x2="3816.12" y2="-20067.97" />
		<line x1="3816.12" y1="-20067.97" x2="3726.72" y2="-20023.16" />
		<line x1="3726.72" y1="-20023.16" x2="3637.32" y2="-19978.35" />
		<line x1="3637.32" y1="-19978.35" x2="3547.92" y2="-19933.54" />
		<line x1="3547.92" y1="-19933.54" x2="3458.52" y2="-19888.73" />
		<line x1="3458.52" y1="-19888.73" x2="3369.12" y2="-19843.92" />
		<line x1="3369.12" y1="-19843.92" x2="3284.03" y2="-19896.45" />
		<line x1="3284.03" y1="-19896.45" x2="3198.94" y2="-19948.98" />
		<line x1="3198.94" y1="-19948.98" x2="3113.85" y2="-20001.51" />
		<line x1="3113.85" y1="-20001.51" x2="3028.76" y2="-20054.04" />
		<line x1="3028.76" y1="-20054.04" x2="3028.76" y2="-20154.04" />
		<line x1="3028.76" y1="-20154.04" x2="3028.76" y2="-20254.04" />
		<line x1="3028.76" y1="-20254.04" x2="3113.85" y2="-20306.57" />
		<line x1="3113.85" y1="-20306.57" x2="3203.25" y2="-20261.76" />
		<line x1="3113.85" y1="-20306.57" x2="3113.85" y2="-20406.57" />
		<line x1="3028.76" y1="-20254.04" x2="2943.67" y2="-20306.57" />
		<line x1="2943.67" y1="-20306.57" x2="2943.67" y2="-20406.57" />
		<line x1="2943.67" y1="-20306.57" x2="2854.27" y2="-20261.76" />
		<line x1="3028.76" y1="-20054.04" x2="2939.36" y2="-20009.23" />
		<line x1="2939.36" y1="-20009.23" x2="2849.96" y2="-19964.42" />
		<line x1="2849.96" y1="-19964.42" x2="2764.87" y2="-20016.95" />
		<line x1="2764.87" y1="-20016.95" x2="2764.87" y2="-20116.95" />
		<line x1="2764.87" y1="-20016.95" x2="2675.47" y2="-19972.14" />
		<line x1="2849.96" y1="-19964.42" x2="2841.12" y2="-19864.81" />
		<line x1="2841.12" y1="-19864.81" x2="2751.72" y2="-19820.0" />
		<line x1="2841.12" y1="-19864.81" x2="2921.24" y2="-19804.96" />
		<line x1="3369.12" y1="-19843.92" x2="3360.28" y2="-19744.31" />
		<line x1="3360.28" y1="-19744.31" x2="3351.44" y2="-19644.7" />
		<line x1="3351.44" y1="-19644.7" x2="3342.6" y2="-19545.09" />
		<line x1="3342.6" y1="-19545.09" x2="3333.76" y2="-19445.48" />
		<line x1="3333.76" y1="-19445.48" x2="3244.36" y2="-19400.67" />
		<line x1="3244.36" y1="-19400.67" x2="3154.96" y2="-19355.86" />
		<line x1="3154.96" y1="-19355.86" x2="3069.87" y2="-19408.39" />
		<line x1="3069.87" y1="-19408.39" x2="3069.87" y2="-19508.39" />
		<line x1="3069.87" y1="-19408.39" x2="2980.47" y2="-19363.58" />
		<line x1="3154.96" y1="-19355.86" x2="3146.12" y2="-19256.25" />
		<line x1="3146.12" y1="-19256.25" x2="3056.72" y2="-19211.44" />
		<line x1="3146.12" y1="-19256.25" x2="3226.24" y2="-19196.4" />
		<line x1="3333.76" y1="-19445.48" x2="3413.88" y2="-19385.63" />
		<line x1="3413.88" y1="-19385.63" x2="3494.0" y2="-19325.78" />
		<line x1="3494.0" y1="-19325.78" x2="3485.16" y2="-19226.17" />
		<line x1="3485.16" y1="-19226.17" x2="3395.76" y2="-19181.36" />
		<line x1="3485.16" y1="-19226.17" x2="3565.28" y2="-19166.32" />
		<line x1="3494.0" y1="-19325.78" x2="3587.01" y2="-19362.51" />
		<line x1="3587.01" y1="-19362.51" x2="3667.13" y2="-19302.66" />
		<line x1="3587.01" y1="-19362.51" x2="3604.61" y2="-19460.95" />
		<line x1="0.0" y1="-12800.0" x2="-85.09" y2="-12852.53" />
		<line x1="-85.09" y1="-12852.53" x2="-170.18" y2="-12905.06" />
		<line x1="-170.18" y1="-12905.06" x2="-255.27" y2="-12957.59" />
		<line x1="-255.27" y1="-12957.59" x2="-340.36" y2="-13010.12" />
		<line x1="-340.36" y1="-13010.12" x2="-425.45" y2="-13062.65" />
		<line x1="-425.45" y1="-13062.65" x2="-510.54" y2="-13115.18" />
		<line x1="-510.54" y1="-13115.18" x2="-595.63" y2="-13167.71" />
		<line x1="-595.63" y1="-13167.71" x2="-680.72" y2="-13220.24" />
		<line x1="-680.72" y1="-13220.24" x2="-765.81" y2="-13272.77" />
		<line x1="-765.81" y1="-13272.77" x2="-850.9" y2="-13325.3" />
		<line x1="-850.9" y1="-13325.3" x2="-935.99" y2="-13377.83" />
		<line x1="-935.99" y1="-13377.83" x2="-1021.08" y2="-13430.36" />
		<line x1="-1021.08" y1="-13430.36" x2="-1106.17" y2="-13482.89" />
		<line x1="-1106.17" y1="-13482.89" x2="-1191.26" y2="-13535.42" />
		<line x1="-1191.26" y1="-13535.42" x2="-1276.35" y2="-13587.95" />
		<line x1="-1276.35" y1="-13587.95" x2="-1361.44" y2="-13640.48" />
		<line x1="-1361.44" y1="-13640.48" x2="-1446.53" y2="-13693.01" />
		<line x1="-1446.53" y1="-13693.01" x2="-1531.62" y2="-13745.54" />
		<line x1="-1531.62" y1="-13745.54" x2="-1616.71" y2="-13798.07" />
		<line x1="-1616.71" y1="-13798.07" x2="-1701.8" y2="-13850.6" />
		<line x1="-1701.8" y1="-13850.6" x2="-1786.89" y2="-13903.13" />
		<line x1="-1786.89" y1="-13903.13" x2="-1871.98" y2="-13955.66" />
		<line x1="-1871.98" y1="-13955.66" x2="-1957.07" y2="-14008.19" />
		<line x1="-1957.07" y1="-14008.19" x2="-2042.16" y2="-14060.72" />
		<line x1="-2042.16" y1="-14060.72" x2="-2127.25" y2="-14113.25" />
		<line x1="-2127.25" y1="-14113.25" x2="-2212.34" y2="-14165.78" />
		<line x1="-2212.34" y1="-14165.78" x2="-2297.43" y2="-14218.31" />
		<line x1="-2297.43" y1="-14218.31" x2="-2382.52" y2="-14270.84" />
		<line x1="-2382.52" y1="-14270.84" x2="-2467.61" y2="-14323.37" />
		<line x1="-2467.61" y1="-14323.37" x2="-2552.7" y2="-14375.9" />
		<line x1="-2552.7" y1="-14375.9" x2="-2637.79" y2="-14428.43" />
		<line x1="-2637.79" y1="-14428.43" x2="-2722.88" y2="-14480.96" />
		<line x1="-2722.88" y1="-14480.96" x2="-2807.97" y2="-14533.49" />
		<line x1="-2807.97" y1="-14533.49" x2="-2893.06" y2="-14586.02" />
		<line x1="-2893.06" y1="-14586.02" x2="-2978.15" y2="-14638.55" />
		<line x1="-2978.15" y1="-14638.55" x2="-3063.24" y2="-14691.08" />
		<line x1="-3063.24" y1="-14691.08" x2="-3148.33" y2="-14743.61" />
		<line x1="-3148.33" y1="-14743.61" x2="-3233.42" y2="-14796.14" />
		<line x1="-3233.42" y1="-14796.14" x2="-3318.51" y2="-14848.67" />
		<line x1="-3318.51" y1="-14848.67" x2="-3403.6" y2="-14901.2" />
		<line x1="-3403.6" y1="-14901.2" x2="-3488.69" y2="-14953.73" />
		<line x1="-3488.69" y1="-14953.73" x2="-3573.78" y2="-15006.26" />
		<line x1="-3573.78" y1="-15006.26" x2="-3658.87" y2="-15058.79" />
		<line x1="-3658.87" y1="-15058.79" x2="-3743.96" y2="-15111.32" />
		<line x1="-3743.96" y1="-15111.32" x2="-3829.05" y2="-15163.85" />
		<line x1="-3829.05" y1="-15163.85" x2="-3914.14" y2="-15216.38" />
		<line x1="-3914.14" y1="-15216.38" x2="-3999.23" y2="-15268.91" />
		<line x1="-3999.23" y1="-15268.91" x2="-4084.32" y2="-15321.44" />
		<line x1="-4084.32" y1="-15321.44" x2="-4169.41" y2="-15373.97" />
		<line x1="-4169.41" y1="-15373.97" x2="-4254.5" y2="-15426.5" />
		<line x1="-4254.5" y1="-15426.5" x2="-4339.59" y2="-15479.03" />
		<line x1="-4339.59" y1="-15479.03" x2="-4424.68" y2="-15531.56" />
		<line x1="-4424.68" y1="-15531.56" x2="-4509.77" y2="-15584.09" />
		<line x1="-4509.77" y1="-15584.09" x2="-4594.86" y2="-15636.62" />
		<line x1="-4594.86" y1="-15636.62" x2="-4679.95" y2="-15689.15" />
		<line x1="-4679.95" y1="-15689.15" x2="-4765.04" y2="-15741.68" />
		<line x1="-4765.04" y1="-15741.68" x2="-4850.13" y2="-15794.21" />
		<line x1="-4850.13" y1="-15794.21" x2="-4935.22" y2="-15846.74" />
		<line x1="-4935.22" y1="-15846.74" x2="-5020.31" y2="-15899.27" />
		<line x1="-5020.31" y1="-15899.27" x2="-5105.4" y2="-15951.8" />
		<line x1="-5105.4" y1="-15951.8" x2="-5190.49" y2="-16004.33" />
		<line x1="-5190.49" y1="-16004.33" x2="-5275.58" y2="-16056.86" />
		<line x1="-5275.58" y1="-16056.86" x2="-5360.67" y2="-16109.39" />
		<line x1="-5360.67" y1="-16109.39" x2="-5445.76" y2="-16161.92" />
		<line x1="-5445.76" y1="-16161.92" x2="-5445.76" y2="-16261.92" />
		<line x1="-5445.76" y1="-16261.92" x2="-5445.76" y2="-16361.92" />
		<line x1="-5445.76" y1="-16361.92" x2="-5445.76" y2="-16461.92" />
		<line x1="-5445.76" y1="-16461.92" x2="-5445.76" y2="-16561.92" />
		<line x1="-5445.76" y1="-16561.92" x2="-5445.76" y2="-16661.92" />
		<line x1="-5445.76" y1="-16661.92" x2="-5445.76" y2="-16761.92" />
		<line x1="-5445.76" y1="-16761.92" x2="-5445.76" y2="-16861.92" />
		<line x1="-5445.76" y1="-16861.92" x2="-5445.76" y2="-16961.92" />
		<line x1="-5445.76" y1="-16961.92" x2="-5445.76" y2="-17061.92" />
		<line x1="-5445.76" y1="-17061.92" x2="-5445.76" y2="-17161.92" />
		<line x1="-5445.76" y1="-17161.92" x2="-5445.76" y2="-17261.92" />
		<line x1="-5445.76" y1="-17261.92" x2="-5445.76" y2="-17361.92" />
		<line x1="-5445.76" y1="-17361.92" x2="-5445.76" y2="-17461.92" />
		<line x1="-5445.76" y1="-17461.92" x2="-5445.76" y2="-17561.92" />
		<line x1="-5445.76" y1="-17561.92" x2="-5445.76" y2="-17661.92" />
		<line x1="-5445.76" y1="-17661.92" x2="-5445.76" y2="-17761.92" />
		<line x1="-5445.76" y1="-17761.92" x2="-5445.76" y2="-17861.92" />
		<line x1="-5445.76" y1="-17861.92" x2="-5445.76" y2="-17961.92" />
		<line x1="-5445.76" y1="-17961.92" x2="-5445.76" y2="-18061.92" />
		<line x1="-5445.76" y1="-18061.92" x2="-5445.76" y2="-18161.92" />
		<line x1="-5445.76" y1="-18161.92" x2="-5445.76" y2="-18261.92" />
		<line x1="-5445.76" y1="-18261.92" x2="-5445.76" y2="-18361.92" />
		<line x1="-5445.76" y1="-18361.92" x2="-5445.76" y2="-18461.92" />
		<line x1="-5445.76" y1="-18461.92" x2="-5445.76" y2="-18561.92" />
		<line x1="-5445.76" y1="-18561.92" x2="-5445.76" y2="-18661.92" />
		<line x1="-5445.76" y1="-18661.92" x2="-5445.76" y2="-18761.92" />
		<line x1="-5445.76" y1="-18761.92" x2="-5445.76" y2="-18861.92" />
		<line x1="-5445.76" y1="-18861.92" x2="-5445.76" y2="-18961.92" />
		<line x1="-5445.76" y1="-18961.92" x2="-5445.76" y2="-19061.92" />
		<line x1="-5445.76" y1="-19061.92" x2="-5445.76" y2="-19161.92" />
		<line x1="-5445.76" y1="-19161.92" x2="-5445.76" y2="-19261.92" />
		<line x1="-5445.76" y1="-19261.92" x2="-5445.76" y2="-19361.92" />
		<line x1="-5445.76" y1="-19361.92" x2="-5360.67" y2="-19414.45" />
		<line x1="-5360.67" y1="-19414.45" x2="-5275.58" y2="-19466.98" />
		<line x1="-5275.58" y1="-19466.98" x2="-5190.49" y2="-19519.51" />
		<line x1="-5190.49" y1="-19519.51" x2="-5105.4" y2="-19572.04" />
		<line x1="-5105.4" y1="-19572.04" x2="-5020.31" y2="-19624.57" />
		<line x1="-5020.31" y1="-19624.57" x2="-4935.22" y2="-19677.1" />
		<line x1="-4935.22" y1="-19677.1" x2="-4850.13" y2="-19729.63" />
		<line x1="-4850.13" y1="-19729.63" x2="-4765.04" y2="-19782.16" />
		<line x1="-4765.04" y1="-19782.16" x2="-4679.95" y2="-19834.69" />
		<line x1="-4679.95" y1="-19834.69" x2="-4594.86" y2="-19887.22" />
		<line x1="-4594.86" y1="-19887.22" x2="-4509.77" y2="-19939.75" />
		<line x1="-4509.77" y1="-19939.75" x2="-4424.68" y2="-19992.28" />
		<line x1="-4424.68" y1="-19992.28" x2="-4339.59" y2="-20044.81" />
		<line x1="-4339.59" y1="-20044.81" x2="-4254.5" y2="-20097.34" />
		<line x1="-4254.5" y1="-20097.34" x2="-4169.41" y2="-20149.87" />
		<line x1="-4169.41" y1="-20149.87" x2="-4084.32" y2="-20202.4" />
		<line x1="-4084.32" y1="-20202.4" x2="-3994.92" y2="-20157.59" />
		<line x1="-3994.92" y1="-20157.59" x2="-3905.52" y2="-20112.78" />
		<line x1="-3905.52" y1="-20112.78" x2="-3816.12" y2="-20067.97" />
		<line x1="-3816.12" y1="-20067.97" x2="-3726.72" y2="-20023.16" />
		<line x1="-3726.72" y1="-20023.16" x2="-3637.32" y2="-19978.35" />
		<line x1="-3637.32" y1="-19978.35" x2="-3547.92" y2="-19933.54" />
		<line x1="-3547.92" y1="-19933.54" x2="-3458.52" y2="-19888.73" />
		<line x1="-3458.52" y1="-19888.73" x2="-3369.12" y2="-19843.92" />
		<line x1="-3369.12" y1="-19843.92" x2="-3360.28" y2="-19744.31" />
		<line x1="-3360.28" y1="-19744.31" x2="-3351.44" y2="-19644.7" />
		<line x1="-3351.44" y1="-19644.7" x2="-3342.6" y2="-19545.09" />
		<line x1="-3342.6" y1="-19545.09" x2="-3333.76" y2="-19445.48" />
		<line x1="-3333.76" y1="-19445.48" x2="-3413.88" y2="-19385.63" />
		<line x1="-3413.88" y1="-19385.63" x2="-3494.0" y2="-19325.78" />
		<line x1="-3494.0" y1="-19325.78" x2="-3587.01" y2="-19362.51" />
		<line x1="-3587.01" y1="-19362.51" x2="-3604.61" y2="-19460.95" />
		<line x1="-3587.01" y1="-19362.51" x2="-3667.13" y2="-19302.66" />
		<line x1="-3494.0" y1="-19325.78" x2="-3485.16" y2="-19226.17" />
		<line x1="-3485.16" y1="-19226.17" x2="-3565.28" y2="-19166.32" />
		<line x1="-3485.16" y1="-19226.17" x2="-3395.76" y2="-19181.36" />
		<line x1="-3333.76" y1="-19445.48" x2="-3244.36" y2="-19400.67" />
		<line x1="-3244.36" y1="-19400.67" x2="-3154.96" y2="-19355.86" />
		<line x1="-3154.96" y1="-19355.86" x2="-3146.12" y2="-19256.25" />
		<line x1="-3146.12" y1="-19256.25" x2="-3226.24" y2="-19196.4" />
		<line x1="-3146.12" y1="-19256.25" x2="-3056.72" y2="-19211.44" />
		<line x1="-3154.96" y1="-19355.86" x2="-3069.87" y2="-19408.39" />
		<line x1="-3069.87" y1="-19408.39" x2="-2980.47" y2="-19363.58" />
		<line x1="-3069.87" y1="-19408.39" x2="-3069.87" y2="-19508.39" />
		<line x1="-3369.12" y1="-19843.92" x2="-3284.03" y2="-19896.45" />
		<line x1="-3284.03" y1="-19896.45" x2="-3198.94" y2="-19948.98" />
		<line x1="-3198.94" y1="-19948.98" x2="-3113.85" y2="-20001.51" />
		<line x1="-3113.85" y1="-20001.51" x2="-3028.76" y2="-20054.04" />
		<line x1="-3028.76" y1="-20054.04" x2="-2939.36" y2="-20009.23" />
		<line x1="-2939.36" y1="-20009.23" x2="-2849.96" y2="-19964.42" />
		<line x1="-2849.96" y1="-19964.42" x2="-2841.12" y2="-19864.81" />
		<line x1="-2841.12" y1="-19864.81" x2="-2921.24" y2="-19804.96" />
		<line x1="-2841.12" y1="-19864.81" x2="-2751.72" y2="-19820.0" />
		<line x1="-2849.96" y1="-19964.42" x2="-2764.87" y2="-20016.95" />
		<line x1="-2764.87" y1="-20016.95" x2="-2675.47" y2="-19972.14" />
		<line x1="-2764.87" y1="-20016.95" x2="-2764.87" y2="-20116.95" />
		<line x1="-3028.76" y1="-20054.04" x2="-3028.76" y2="-20154.04" />
		<line x1="-3028.76" y1="-20154.04" x2="-3028.76" y2="-20254.04" />
		<line x1="-3028.76" y1="-20254.04" x2="-2943.67" y2="-20306.57" />
		<line x1="-2943.67" y1="-20306.57" x2="-2854.27" y2="-20261.76" />
		<line x1="-2943.67" y1="-20306.57" x2="-2943.67" y2="-20406.57" />
		<line x1="-3028.76" y1="-20254.04" x2="-3113.85" y2="-20306.57" />
		<line x1="-3113.85" y1="-20306.57" x2="-3113.85" y2="-20406.57" />
		<line x1="-3113.85" y1="-20306.57" x2="-3203.25" y2="-20261.76" />
		<line x1="-4084.32" y1="-20202.4" x2="-4084.32" y2="-20302.4" />
		<line x1="-4084.32" y1="-20302.4" x2="-4084.32" y2="-20402.4" />
		<line x1="-4084.32" y1="-20402.4" x2="-4084.32" y2="-20502.4" />
		<line x1="-4084.32" y1="-20502.4" x2="-4084.32" y2="-20602.4" />
		<line x1="-4084.32" y1="-20602.4" x2="-4084.32" y2="-20702.4" />
		<line x1="-4084.32" y1="-20702.4" x2="-4084.32" y2="-20802.4" />
		<line x1="-4084.32" y1="-20802.4" x2="-4084.32" y2="-20902.4" />
		<line x1="-4084.32" y1="-20902.4" x2="-4084.32" y2="-21002.4" />
		<line x1="-4084.32" y1="-21002.4" x2="-3999.23" y2="-21054.93" />
		<line x1="-3999.23" y1="-21054.93" x2="-3914.14" y2="-21107.46" />
		<line x1="-3914.14" y1="-21107.46" x2="-3829.05" y2="-21159.99" />
		<line x1="-3829.05" y1="-21159.99" x2="-3743.96" y2="-21212.52" />
		<line x1="-3743.96" y1="-21212.52" x2="-3654.56" y2="-21167.71" />
		<line x1="-3654.56" y1="-21167.71" x2="-3565.16" y2="-21122.9" />
		<line x1="-3565.16" y1="-21122.9" x2="-3556.32" y2="-21023.29" />
		<line x1="-3556.32" y1="-21023.29" x2="-3636.44" y2="-20963.44" />
		<line x1="-3556.32" y1="-21023.29" x2="-3466.92" y2="-20978.48" />
		<line x1="-3565.16" y1="-21122.9" x2="-3480.07" y2="-21175.43" />
		<line x1="-3480.07" y1="-21175.43" x2="-3390.67" y2="-21130.62" />
		<line x1="-3480.07" y1="-21175.43" x2="-3480.07" y2="-21275.43" />
		<line x1="-3743.96" y1="-21212.52" x2="-3743.96" y2="-21312.52" />
		<line x1="-3743.96" y1="-21312.52" x2="-3743.96" y2="-21412.52" />
		<line x1="-3743.96" y1="-21412.52" x2="-3658.87" y2="-21465.05" />
		<line x1="-3658.87" y1="-21465.05" x2="-3569.47" y2="-21420.24" />
		<line x1="-3658.87" y1="-21465.05" x2="-3658.87" y2="-21565.05" />
		<line x1="-3743.96" y1="-21412.52" x2="-3829.05" y2="-21465.05" />
		<line x1="-3829.05" y1="-21465.05" x2="-3829.05" y2="-21565.05" />
		<line x1="-3829.05" y1="-21465.05" x2="-3918.45" y2="-21420.24" />
		<line x1="-4084.32" y1="-21002.4" x2="-4169.41" y2="-21054.93" />
		<line x1="-4169.41" y1="-21054.93" x2="-4254.5" y2="-21107.46" />
		<line x1="-4254.5" y1="-21107.46" x2="-4339.59" y2="-21159.99" />
		<line x1="-4339.59" y1="-21159.99" x2="-4424.68" y2="-21212.52" />
		<line x1="-4424.68" y1="-21212.52" x2="-4424.68" y2="-21312.52" />
		<line x1="-4424.68" y1="-21312.52" x2="-4424.68" y2="-21412.52" />
		<line x1="-4424.68" y1="-21412.52" x2="-4339.59" y2="-21465.05" />
		<line x1="-4339.59" y1="-21465.05" x2="-4250.19" y2="-21420.24" />
		<line x1="-4339.59" y1="-21465.05" x2="-4339.59" y2="-21565.05" />
		<line x1="-4424.68" y1="-21412.52" x2="-4509.77" y2="-21465.05" />
		<line x1="-4509.77" y1="-21465.05" x2="-4509.77" y2="-21565.05" />
		<line x1="-4509.77" y1="-21465.05" x2="-4599.17" y2="-21420.24" />
		<line x1="-4424.68" y1="-21212.52" x2="-4514.08" y2="-21167.71" />
		<line x1="-4514.08" y1="-21167.71" x2="-4603.48" y2="-21122.9" />
		<line x1="-4603.48" y1="-21122.9" x2="-4688.57" y2="-21175.43" />
		<line x1="-4688.57" y1="-21175.43" x2="-4688.57" y2="-21275.43" />
		<line x1="-4688.57" y1="-21175.43" x2="-4777.97" y2="-21130.62" />
		<line x1="-4603.48" y1="-21122.9" x2="-4612.32" y2="-21023.29" />
		<line x1="-4612.32" y1="-21023.29" x2="-4701.72" y2="-20978.48" />
		<line x1="-4612.32" y1="-21023.29" x2="-4532.2" y2="-20963.44" />
		<line x1="-5445.76" y1="-19361.92" x2="-5530.85" y2="-19414.45" />
		<line x1="-5530.85" y1="-19414.45" x2="-5615.94" y2="-19466.98" />
		<line x1="-5615.94" y1="-19466.98" x2="-5701.03" y2="-19519.51" />
		<line x1="-5701.03" y1="-19519.51" x2="-5786.12" y2="-19572.04" />
		<line x1="-5786.12" y1="-19572.04" x2="-5871.21" y2="-19624.57" />
		<line x1="-5871.21" y1="-19624.57" x2="-5956.3" y2="-19677.1" />
		<line x1="-5956.3" y1="-19677.1" x2="-6041.39" y2="-19729.63" />
		<line x1="-6041.39" y1="-19729.63" x2="-6126.48" y2="-19782.16" />
		<line x1="-6126.48" y1="-19782.16" x2="-6211.57" y2="-19834.69" />
		<line x1="-6211.57" y1="-19834.69" x2="-6296.66" y2="-19887.22" />
		<line x1="-6296.66" y1="-19887.22" x2="-6381.75" y2="-19939.75" />
		<line x1="-6381.75" y1="-19939.75" x2="-6466.84" y2="-19992.28" />
		<line x1="-6466.84" y1="-19992.28" x2="-6551.93" y2="-20044.81" />
		<line x1="-6551.93" y1="-20044.81" x2="-6637.02" y2="-20097.34" />
		<line x1="-6637.02" y1="-20097.34" x2="-6722.11" y2="-20149.87" />
		<line x1="-6722.11" y1="-20149.87" x2="-6807.2" y2="-20202.4" />
		<line x1="-6807.2" y1="-20202.4" x2="-6807.2" y2="-20302.4" />
		<line x1="-6807.2" y1="-20302.4" x2="-6807.2" y2="-20402.4" />
		<line x1="-6807.2" y1="-20402.4" x2="-6807.2" y2="-20502.4" />
		<line x1="-6807.2" y1="-20502.4" x2="-6807.2" y2="-20602.4" />
		<line x1="-6807.2" y1="-20602.4" x2="-6807.2" y2="-20702.4" />
		<line x1="-6807.2" y1="-20702.4" x2="-6807.2" y2="-20802.4" />
		<line x1="-6807.2" y1="-20802.4" x2="-6807.2" y2="-20902.4" />
		<line x1="-6807.2" y1="-20902.4" x2="-6807.2" y2="-21002.4" />
		<line x1="-6807.2" y1="-21002.4" x2="-6722.11" y2="-21054.93" />
		<line x1="-6722.11" y1="-21054.93" x2="-6637.02" y2="-21107.46" />
		<line x1="-6637.02" y1="-21107.46" x2="-6551.93" y2="-21159.99" />
		<line x1="-6551.93" y1="-21159.99" x2="-6466.84" y2="-21212.52" />
		<line x1="-6466.84" y1="-21212.52" x2="-6377.44" y2="-21167.71" />
		<line x1="-6377.44" y1="-21167.71" x2="-6288.04" y2="-21122.9" />
		<line x1="-6288.04" y1="-21122.9" x2="-6279.2" y2="-21023.29" />
		<line x1="-6279.2" y1="-21023.29" x2="-6359.32" y2="-20963.44" />
		<line x1="-6279.2" y1="-21023.29" x2="-6189.8" y2="-20978.48" />
		<line x1="-6288.04" y1="-21122.9" x2="-6202.95" y2="-21175.43" />
		<line x1="-6202.95" y1="-21175.43" x2="-6113.55" y2="-21130.62" />
		<line x1="-6202.95" y1="-21175.43" x2="-6202.95" y2="-21275.43" />
		<line x1="-6466.84" y1="-21212.52" x2="-6466.84" y2="-21312.52" />
		<line x1="-6466.84" y1="-21312.52" x2="-6466.84" y2="-21412.52" />
		<line x1="-6466.84" y1="-21412.52" x2="-6381.75" y2="-21465.05" />
		<line x1="-6381.75" y1="-21465.05" x2="-6292.35" y2="-21420.24" />
		<line x1="-6381.75" y1="-21465.05" x2="-6381.75" y2="-21565.05" />
		<line x1="-6466.84" y1="-21412.52" x2="-6551.93" y2="-21465.05" />
		<line x1="-6551.93" y1="-21465.05" x2="-6551.93" y2="-21565.05" />
		<line x1="-6551.93" y1="-21465.05" x2="-6641.33" y2="-21420.24" />
		<line x1="-6807.2" y1="-21002.4" x2="-6892.29" y2="-21054.93" />
		<line x1="-6892.29" y1="-21054.93" x2="-6977.38" y2="-21107.46" />
		<line x1="-6977.38" y1="-21107.46" x2="-7062.47" y2="-21159.99" />
		<line x1="-7062.47" y1="-21159.99" x2="-7147.56" y2="-21212.52" />
		<line x1="-7147.56" y1="-21212.52" x2="-7147.56" y2="-21312.52" />
		<line x1="-7147.56" y1="-21312.52" x2="-7147.56" y2="-21412.52" />
		<line x1="-7147.56" y1="-21412.52" x2="-7062.47" y2="-21465.05" />
		<line x1="-7062.47" y1="-21465.05" x2="-6973.07" y2="-21420.24" />
		<line x1="-7062.47" y1="-21465.05" x2="-7062.47" y2="-21565.05" />
		<line x1="-7147.56" y1="-21412.52" x2="-7232.65" y2="-21465.05" />
		<line x1="-7232.65" y1="-21465.05" x2="-7232.65" y2="-21565.05" />
		<line x1="-7232.65" y1="-21465.05" x2="-7322.05" y2="-21420.24" />
		<line x1="-7147.56" y1="-21212.52" x2="-7236.96" y2="-21167.71" />
		<line x1="-7236.96" y1="-21167.71" x2="-7326.36" y2="-21122.9" />
		<line x1="-7326.36" y1="-21122.9" x2="-7411.45" y2="-21175.43" />
		<line x1="-7411.45" y1="-21175.43" x2="-7411.45" y2="-21275.43" />
		<line x1="-7411.45" y1="-21175.43" x2="-7500.85" y2="-21130.62" />
		<line x1="-7326.36" y1="-21122.9" x2="-7335.2" y2="-21023.29" />
		<line x1="-7335.2" y1="-21023.29" x2="-7424.6" y2="-20978.48" />
		<line x1="-7335.2" y1="-21023.29" x2="-7255.08" y2="-20963.44" />
		<line x1="-6807.2" y1="-20202.4" x2="-6896.6" y2="-20157.59" />
		<line x1="-6896.6" y1="-20157.59" x2="-6986.0" y2="-20112.78" />
		<line x1="-6986.0" y1="-20112.78" x2="-7075.4" y2="-20067.97" />
		<line x1="-7075.4" y1="-20067.97" x2="-7164.8" y2="-20023.16" />
		<line x1="-7164.8" y1="-20023.16" x2="-7254.2" y2="-19978.35" />
		<line x1="-7254.2" y1="-19978.35" x2="-7343.6" y2="-19933.54" />
		<line x1="-7343.6" y1="-19933.54" x2="-7433.0" y2="-19888.73" />
		<line x1="-7433.0" y1="-19888.73" x2="-7522.4" y2="-19843.92" />
		<line x1="-7522.4" y1="-19843.92" x2="-7607.49" y2="-19896.45" />
		<line x1="-7607.49" y1="-19896.45" x2="-7692.58" y2="-19948.98" />
		<line x1="-7692.58" y1="-19948.98" x2="-7777.67" y2="-20001.51" />
		<line x1="-7777.67" y1="-20001.51" x2="-7862.76" y2="-20054.04" />
		<line x1="-7862.76" y1="-20054.04" x2="-7862.76" y2="-20154.04" />
		<line x1="-7862.76" y1="-20154.04" x2="-7862.76" y2="-20254.04" />
		<line x1="-7862.76" y1="-20254.04" x2="-7777.67" y2="-20306.57" />
		<line x1="-7777.67" y1="-20306.57" x2="-7688.27" y2="-20261.76" />
		<line x1="-7777.67" y1="-20306.57" x2="-7777.67" y2="-20406.57" />
		<line x1="-7862.76" y1="-20254.04" x2="-7947.85" y2="-20306.57" />
		<line x1="-7947.85" y1="-20306.57" x2="-7947.85" y2="-20406.57" />
		<line x1="-7947.85" y1="-20306.57" x2="-8037.25" y2="-20261.76" />
		<line x1="-7862.76" y1="-20054.04" x2="-7952.16" y2="-20009.23" />
		<line x1="-7952.16" y1="-20009.23" x2="-8041.56" y2="-19964.42" />
		<line x1="-8041.56" y1="-19964.42" x2="-8126.65" y2="-20016.95" />
		<line x1="-8126.65" y1="-20016.95" x2="-8126.65" y2="-20116.95" />
		<line x1="-8126.65" y1="-20016.95" x2="-8216.05" y2="-19972.14" />
		<line x1="-8041.56" y1="-19964.42" x2="-8050.4" y2="-19864.81" />
		<line x1="-8050.4" y1="-19864.81" x2="-8139.8" y2="-19820.0" />
		<line x1="-8050.4" y1="-19864.81" x2="-7970.28" y2="-19804.96" />
		<line x1="-7522.4" y1="-19843.92" x2="-7531.24" y2="-19744.31" />
		<line x1="-7531.24" y1="-19744.31" x2="-7540.08" y2="-19644.7" />
		<line x1="-7540.08" y1="-19644.7" x2="-7548.92" y2="-19545.09" />
		<line x1="-7548.92" y1="-19545.09" x2="-7557.76" y2="-19445.48" />
		<line x1="-7557.76" y1="-19445.48" x2="-7647.16" y2="-19400.67" />
		<line x1="-7647.16" y1="-19400.67" x2="-7736.56" y2="-19355.86" />
		<line x1="-7736.56" y1="-19355.86" x2="-7821.65" y2="-19408.39" />
		<line x1="-7821.65" y1="-19408.39" x2="-7821.65" y2="-19508.39" />
		<line x1="-7821.65" y1="-19408.39" x2="-7911.05" y2="-19363.58" />
		<line x1="-7736.56" y1="-19355.86" x2="-7745.4" y2="-19256.25" />
		<line x1="-7745.4" y1="-19256.25" x2="-7834.8" y2="-19211.44" />
		<line x1="-7745.4" y1="-19256.25" x2="-7665.28" y2="-19196.4" />
		<line x1="-7557.76" y1="-19445.48" x2="-7477.64" y2="-19385.63" />
		<line x1="-7477.64" y1="-19385.63" x2="-7397.52" y2="-19325.78" />
		<line x1="-7397.52" y1="-19325.78" x2="-7406.36" y2="-19226.17" />
		<line x1="-7406.36" y1="-19226.17" x2="-7495.76" y2="-19181.36" />
		<line x1="-7406.36" y1="-19226.17" x2="-7326.24" y2="-19166.32" />
		<line x1="-7397.52" y1="-19325.78" x2="-7304.51" y2="-19362.51" />
		<line x1="-7304.51" y1="-19362.51" x2="-7224.39" y2="-19302.66" />
		<line x1="-7304.51" y1="-19362.51" x2="-7286.91" y2="-19460.95" />
		<line x1="-5445.76" y1="-16161.92" x2="-5535.16" y2="-16117.11" />
		<line x1="-5535.16" y1="-16117.11" x2="-5624.56" y2="-16072.3" />
		<line x1="-5624.56" y1="-16072.3" x2="-5713.96" y2="-16027.49" />
		<line x1="-5713.96" y1="-16027.49" x2="-5803.36" y2="-15982.68" />
		<line x1="-5803.36" y1="-15982.68" x2="-5892.76" y2="-15937.87" />
		<line x1="-5892.76" y1="-15937.87" x2="-5982.16" y2="-15893.06" />
		<line x1="-5982.16" y1="-15893.06" x2="-6071.56" y2="-15848.25" />
		<line x1="-6071.56" y1="-15848.25" x2="-6160.96" y2="-15803.44" />
		<line x1="-6160.96" y1="-15803.44" x2="-6250.36" y2="-15758.63" />
		<line x1="-6250.36" y1="-15758.63" x2="-6339.76" y2="-15713.82" />
		<line x1="-6339.76" y1="-15713.82" x2="-6429.16" y2="-15669.01" />
		<line x1="-6429.16" y1="-15669.01" x2="-6518.56" y2="-15624.2" />
		<line x1="-6518.56" y1="-15624.2" x2="-6607.96" y2="-15579.39" />
		<line x1="-6607.96" y1="-15579.39" x2="-6697.36" y2="-15534.58" />
		<line x1="-6697.36" y1="-15534.58" x2="-6786.76" y2="-15489.77" />
		<line x1="-6786.76" y1="-15489.77" x2="-6876.16" y2="-15444.96" />
		<line x1="-6876.16" y1="-15444.96" x2="-6965.56" y2="-15400.15" />
		<line x1="-6965.56" y1="-15400.15" x2="-7054.96" y2="-15355.34" />
		<line x1="-7054.96" y1="-15355.34" x2="-7144.36" y2="-15310.53" />
		<line x1="-7144.36" y1="-15310.53" x2="-7233.76" y2="-15265.72" />
		<line x1="-7233.76" y1="-15265.72" x2="-7323.16" y2="-15220.91" />
		<line x1="-7323.16" y1="-15220.91" x2="-7412.56" y2="-15176.1" />
		<line x1="-7412.56" y1="-15176.1" x2="-7501.96" y2="-15131.29" />
		<line x1="-7501.96" y1="-15131.29" x2="-7591.36" y2="-15086.48" />
		<line x1="-7591.36" y1="-15086.48" x2="-7680.76" y2="-15041.67" />
		<line x1="-7680.76" y1="-15041.67" x2="-7770.16" y2="-14996.86" />
		<line x1="-7770.16" y1="-14996.86" x2="-7859.56" y2="-14952.05" />
		<line x1="-7859.56" y1="-14952.05" x2="-7948.96" y2="-14907.24" />
		<line x1="-7948.96" y1="-14907.24" x2="-8038.36" y2="-14862.43" />
		<line x1="-8038.36" y1="-14862.43" x2="-8127.76" y2="-14817.62" />
		<line x1="-8127.76" y1="-14817.62" x2="-8217.16" y2="-14772.81" />
		<line x1="-8217.16" y1="-14772.81" x2="-8306.56" y2="-14728.0" />
		<line x1="-8306.56" y1="-14728.0" x2="-8391.65" y2="-14780.53" />
		<line x1="-8391.65" y1="-14780.53" x2="-8476.74" y2="-14833.06" />
		<line x1="-8476.74" y1="-14833.06" x2="-8561.83" y2="-14885.59" />
		<line x1="-8561.83" y1="-14885.59" x2="-8646.92" y2="-14938.12" />
		<line x1="-8646.92" y1="-14938.12" x2="-8732.01" y2="-14990.65" />
		<line x1="-8732.01" y1="-14990.65" x2="-8817.1" y2="-15043.18" />
		<line x1="-8817.1" y1="-15043.18" x2="-8902.19" y2="-15095.71" />
		<line x1="-8902.19" y1="-15095.71" x2="-8987.28" y2="-15148.24" />
		<line x1="-8987.28" y1="-15148.24" x2="-9072.37" y2="-15200.77" />
		<line x1="-9072.37" y1="-15200.77" x2="-9157.46" y2="-15253.3" />
		<line x1="-9157.46" y1="-15253.3" x2="-9242.55" y2="-15305.83" />
		<line x1="-9242.55" y1="-15305.83" x2="-9327.64" y2="-15358.36" />
		<line x1="-9327.64" y1="-15358.36" x2="-9412.73" y2="-15410.89" />
		<line x1="-9412.73" y1="-15410.89" x2="-9497.82" y2="-15463.42" />
		<line x1="-9497.82" y1="-15463.42" x2="-9582.91" y2="-15515.95" />
		<line x1="-9582.91" y1="-15515.95" x2="-9668.0" y2="-15568.48" />
		<line x1="-9668.0" y1="-15568.48" x2="-9668.0" y2="-15668.48" />
		<line x1="-9668.0" y1="-15668.48" x2="-9668.0" y2="-15768.48" />
		<line x1="-9668.0" y1="-15768.48" x2="-9668.0" y2="-15868.48" />
		<line x1="-9668.0" y1="-15868.48" x2="-9668.0" y2="-15968.48" />
		<line x1="-9668.0" y1="-15968.48" x2="-9668.0" y2="-16068.48" />
		<line x1="-9668.0" y1="-16068.48" x2="-9668.0" y2="-16168.48" />
		<line x1="-9668.0" y1="-16168.48" x2="-9668.0" y2="-16268.48" />
		<line x1="-9668.0" y1="-16268.48" x2="-9668.0" y2="-16368.48" />
		<line x1="-9668.0" y1="-16368.48" x2="-9582.91" y2="-16421.01" />
		<line x1="-9582.91" y1="-16421.01" x2="-9497.82" y2="-16473.54" />
		<line x1="-9497.82" y1="-16473.54" x2="-9412.73" y2="-16526.07" />
		<line x1="-9412.73" y1="-16526.07" x2="-9327.64" y2="-16578.6" />
		<line x1="-9327.64" y1="-16578.6" x2="-9238.24" y2="-16533.79" />
		<line x1="-9238.24" y1="-16533.79" x2="-9148.84" y2="-16488.98" />
		<line x1="-9148.84" y1="-16488.98" x2="-9140.0" y2="-16389.37" />
		<line x1="-9140.0" y1="-16389.37" x2="-9220.12" y2="-16329.52" />
		<line x1="-9140.0" y1="-16389.37" x2="-9050.6" y2="-16344.56" />
		<line x1="-9148.84" y1="-16488.98" x2="-9063.75" y2="-16541.51" />
		<line x1="-9063.75" y1="-16541.51" x2="-8974.35" y2="-16496.7" />
		<line x1="-9063.75" y1="-16541.51" x2="-9063.75" y2="-16641.51" />
		<line x1="-9327.64" y1="-16578.6" x2="-9327.64" y2="-16678.6" />
		<line x1="-9327.64" y1="-16678.6" x2="-9327.64" y2="-16778.6" />
		<line x1="-9327.64" y1="-16778.6" x2="-9242.55" y2="-16831.13" />
		<line x1="-9242.55" y1="-16831.13" x2="-9153.15" y2="-16786.32" />
		<line x1="-9242.55" y1="-16831.13" x2="-9242.55" y2="-16931.13" />
		<line x1="-9327.64" y1="-16778.6" x2="-9412.73" y2="-16831.13" />
		<line x1="-9412.73" y1="-16831.13" x2="-9412.73" y2="-16931.13" />
		<line x1="-9412.73" y1="-16831.13" x2="-9502.13" y2="-16786.32" />
		<line x1="-9668.0" y1="-16368.48" x2="-9753.09" y2="-16421.01" />
		<line x1="-9753.09" y1="-16421.01" x2="-9838.18" y2="-16473.54" />
		<line x1="-9838.18" y1="-16473.54" x2="-9923.27" y2="-16526.07" />
		<line x1="-9923.27" y1="-16526.07" x2="-10008.36" y2="-16578.6" />
		<line x1="-10008.36" y1="-16578.6" x2="-10008.36" y2="-16678.6" />
		<line x1="-10008.36" y1="-16678.6" x2="-10008.36" y2="-16778.6" />
		<line x1="-10008.36" y1="-16778.6" x2="-9923.27" y2="-16831.13" />
		<line x1="-9923.27" y1="-16831.13" x2="-9833.87" y2="-16786.32" />
		<line x1="-9923.27" y1="-16831.13" x2="-9923.27" y2="-16931.13" />
		<line x1="-10008.36" y1="-16778.6" x2="-10093.45" y2="-16831.13" />
		<line x1="-10093.45" y1="-16831.13" x2="-10093.45" y2="-16931.13" />
		<line x1="-10093.45" y1="-16831.13" x2="-10182.85" y2="-16786.32" />
		<line x1="-10008.36" y1="-16578.6" x2="-10097.76" y2="-16533.79" />
		<line x1="-10097.76" y1="-16533.79" x2="-10187.16" y2="-16488.98" />
		<line x1="-10187.16" y1="-16488.98" x2="-10272.25" y2="-16541.51" />
		<line x1="-10272.25" y1="-16541.51" x2="-10272.25" y2="-16641.51" />
		<line x1="-10272.25" y1="-16541.51" x2="-10361.65" y2="-16496.7" />
		<line x1="-10187.16" y1="-16488.98" x2="-10196.0" y2="-16389.37" />
		<line x1="-10196.0" y1="-16389.37" x2="-10285.4" y2="-16344.56" />
		<line x1="-10196.0" y1="-16389.37" x2="-10115.88" y2="-16329.52" />
		<line x1="-9668.0" y1="-15568.48" x2="-9757.4" y2="-15523.67" />
		<line x1="-9757.4" y1="-15523.67" x2="-9846.8" y2="-15478.86" />
		<line x1="-9846.8" y1="-15478.86" x2="-9936.2" y2="-15434.05" />
		<line x1="-9936.2" y1="-15434.05" x2="-10025.6" y2="-15389.24" />
		<line x1="-10025.6" y1="-15389.24" x2="-10115.0" y2="-15344.43" />
		<line x1="-10115.0" y1="-15344.43" x2="-10204.4" y2="-15299.62" />
		<line x1="-10204.4" y1="-15299.62" x2="-10293.8" y2="-15254.81" />
		<line x1="-10293.8" y1="-15254.81" x2="-10383.2" y2="-15210.0" />
		<line x1="-10383.2" y1="-15210.0" x2="-10468.29" y2="-15262.53" />
		<line x1="-10468.29" y1="-15262.53" x2="-10553.38" y2="-15315.06" />
		<line x1="-10553.38" y1="-15315.06" x2="-10638.47" y2="-15367.59" />
		<line x1="-10638.47" y1="-15367.59" x2="-10723.56" y2="-15420.12" />
		<line x1="-10723.56" y1="-15420.12" x2="-10723.56" y2="-15520.12" />
		<line x1="-10723.56" y1="-15520.12" x2="-10723.56" y2="-15620.12" />
		<line x1="-10723.56" y1="-15620.12" x2="-10638.47" y2="-15672.65" />
		<line x1="-10638.47" y1="-15672.65" x2="-10549.07" y2="-15627.84" />
		<line x1="-10638.47" y1="-15672.65" x2="-10638.47" y2="-15772.65" />
		<line x1="-10723.56" y1="-15620.12" x2="-10808.65" y2="-15672.65" />
		<line x1="-10808.65" y1="-15672.65" x2="-10808.65" y2="-15772.65" />
		<line x1="-10808.65" y1="-15672.65" x2="-10898.05" y2="-15627.84" />
		<line x1="-10723.56" y1="-15420.12" x2="-10812.96" y2="-15375.31" />
		<line x1="-10812.96" y1="-15375.31" x2="-10902.36" y2="-15330.5" />
		<line x1="-10902.36" y1="-15330.5" x2="-10987.45" y2="-15383.03" />
		<line x1="-10987.45" y1="-15383.03" x2="-10987.45" y2="-15483.03" />
		<line x1="-10987.45" y1="-15383.03" x2="-11076.85" y2="-15338.22" />
		<line x1="-10902.36" y1="-15330.5" x2="-10911.2" y2="-15230.89" />
		<line x1="-10911.2" y1="-15230.89" x2="-11000.6" y2="-15186.08" />
		<line x1="-10911.2" y1="-15230.89" x2="-10831.08" y2="-15171.04" />
		<line x1="-10383.2" y1="-15210.0" x2="-10392.04" y2="-15110.39" />
		<line x1="-10392.04" y1="-15110.39" x2="-10400.88" y2="-15010.78" />
		<line x1="-10400.88" y1="-15010.78" x2="-10409.72" y2="-14911.17" />
		<line x1="-10409.72" y1="-14911.17" x2="-10418.56" y2="-14811.56" />
		<line x1="-10418.56" y1="-14811.56" x2="-10507.96" y2="-14766.75" />
		<line x1="-10507.96" y1="-14766.75" x2="-10597.36" y2="-14721.94" />
		<line x1="-10597.36" y1="-14721.94" x2="-10682.45" y2="-14774.47" />
		<line x1="-10682.45" y1="-14774.47" x2="-10682.45" y2="-14874.47" />
		<line x1="-10682.45" y1="-14774.47" x2="-10771.85" y2="-14729.66" />
		<line x1="-10597.36" y1="-14721.94" x2="-10606.2" y2="-14622.33" />
		<line x1="-10606.2" y1="-14622.33" x2="-10695.6" y2="-14577.52" />
		<line x1="-10606.2" y1="-14622.33" x2="-10526.08" y2="-14562.48" />
		<line x1="-10418.56" y1="-14811.56" x2="-10338.44" y2="-14751.71" />
		<line x1="-10338.44" y1="-14751.71" x2="-10258.32" y2="-14691.86" />
		<line x1="-10258.32" y1="-14691.86" x2="-10267.16" y2="-14592.25" />
		<line x1="-10267.16" y1="-14592.25" x2="-10356.56" y2="-14547.44" />
		<line x1="-10267.16" y1="-14592.25" x2="-10187.04" y2="-14532.4" />
		<line x1="-10258.32" y1="-14691.86" x2="-10165.31" y2="-14728.59" />
		<line x1="-10165.31" y1="-14728.59" x2="-10085.19" y2="-14668.74" />
		<line x1="-10165.31" y1="-14728.59" x2="-10147.71" y2="-14827.03" />
		<line x1="-8306.56" y1="-14728.0" x2="-8315.4" y2="-14628.39" />
		<line x1="-8315.4" y1="-14628.39" x2="-8324.24" y2="-14528.78" />
		<line x1="-8324.24" y1="-14528.78" x2="-8333.08" y2="-14429.17" />
		<line x1="-8333.08" y1="-14429.17" x2="-8341.92" y2="-14329.56" />
		<line x1="-8341.92" y1="-14329.56" x2="-8350.76" y2="-14229.95" />
		<line x1="-8350.76" y1="-14229.95" x2="-8359.6" y2="-14130.34" />
		<line x1="-8359.6" y1="-14130.34" x2="-8368.44" y2="-14030.73" />
		<line x1="-8368.44" y1="-14030.73" x2="-8377.28" y2="-13931.12" />
		<line x1="-8377.28" y1="-13931.12" x2="-8386.12" y2="-13831.51" />
		<line x1="-8386.12" y1="-13831.51" x2="-8394.96" y2="-13731.9" />
		<line x1="-8394.96" y1="-13731.9" x2="-8403.8" y2="-13632.29" />
		<line x1="-8403.8" y1="-13632.29" x2="-8412.64" y2="-13532.68" />
		<line x1="-8412.64" y1="-13532.68" x2="-8421.48" y2="-13433.07" />
		<line x1="-8421.48" y1="-13433.07" x2="-8430.32" y2="-13333.46" />
		<line x1="-8430.32" y1="-13333.46" x2="-8439.16" y2="-13233.85" />
		<line x1="-8439.16" y1="-13233.85" x2="-8448.0" y2="-13134.24" />
		<line x1="-8448.0" y1="-13134.24" x2="-8537.4" y2="-13089.43" />
		<line x1="-8537.4" y1="-13089.43" x2="-8626.8" y2="-13044.62" />
		<line x1="-8626.8" y1="-13044.62" x2="-8716.2" y2="-12999.81" />
		<line x1="-8716.2" y1="-12999.81" x2="-8805.6" y2="-12955.0" />
		<line x1="-8805.6" y1="-12955.0" x2="-8895.0" y2="-12910.19" />
		<line x1="-8895.0" y1="-12910.19" x2="-8984.4" y2="-12865.38" />
		<line x1="-8984.4" y1="-12865.38" x2="-9073.8" y2="-12820.57" />
		<line x1="-9073.8" y1="-12820.57" x2="-9163.2" y2="-12775.76" />
		<line x1="-9163.2" y1="-12775.76" x2="-9248.29" y2="-12828.29" />
		<line x1="-9248.29" y1="-12828.29" x2="-9333.38" y2="-12880.82" />
		<line x1="-9333.38" y1="-12880.82" x2="-9418.47" y2="-12933.35" />
		<line x1="-9418.47" y1="-12933.35" x2="-9503.56" y2="-12985.88" />
		<line x1="-9503.56" y1="-12985.88" x2="-9503.56" y2="-13085.88" />
		<line x1="-9503.56" y1="-13085.88" x2="-9503.56" y2="-13185.88" />
		<line x1="-9503.56" y1="-13185.88" x2="-9418.47" y2="-13238.41" />
		<line x1="-9418.47" y1="-13238.41" x2="-9329.07" y2="-13193.6" />
		<line x1="-9418.47" y1="-13238.41" x2="-9418.47" y2="-13338.41" />
		<line x1="-9503.56" y1="-13185.88" x2="-9588.65" y2="-13238.41" />
		<line x1="-9588.65" y1="-13238.41" x2="-9588.65" y2="-13338.41" />
		<line x1="-9588.65" y1="-13238.41" x2="-9678.05" y2="-13193.6" />
		<line x1="-9503.56" y1="-12985.88" x2="-9592.96" y2="-12941.07" />
		<line x1="-9592.96" y1="-12941.07" x2="-9682.36" y2="-12896.26" />
		<line x1="-9682.36" y1="-12896.26" x2="-9767.45" y2="-12948.79" />
		<line x1="-9767.45" y1="-12948.79" x2="-9767.45" y2="-13048.79" />
		<line x1="-9767.45" y1="-12948.79" x2="-9856.85" y2="-12903.98" />
		<line x1="-9682.36" y1="-12896.26" x2="-9691.2" y2="-12796.65" />
		<line x1="-9691.2" y1="-12796.65" x2="-9780.6" y2="-12751.84" />
		<line x1="-9691.2" y1="-12796.65" x2="-9611.08" y2="-12736.8" />
		<line x1="-9163.2" y1="-12775.76" x2="-9172.04" y2="-12676.15" />
		<line x1="-9172.04" y1="-12676.15" x2="-9180.88" y2="-12576.54" />
		<line x1="-9180.88" y1="-12576.54" x2="-9189.72" y2="-12476.93" />
		<line x1="-9189.72" y1="-12476.93" x2="-9198.56" y2="-12377.32" />
		<line x1="-9198.56" y1="-12377.32" x2="-9287.96" y2="-12332.51" />
		<line x1="-9287.96" y1="-12332.51" x2="-9377.36" y2="-12287.7" />
		<line x1="-9377.36" y1="-12287.7" x2="-9462.45" y2="-12340.23" />
		<line x1="-9462.45" y1="-12340.23" x2="-9462.45" y2="-12440.23" />
		<line x1="-9462.45" y1="-12340.23" x2="-9551.85" y2="-12295.42" />
		<line x1="-9377.36" y1="-12287.7" x2="-9386.2" y2="-12188.09" />
		<line x1="-9386.2" y1="-12188.09" x2="-9475.6" y2="-12143.28" />
		<line x1="-9386.2" y1="-12188.09" x2="-9306.08" y2="-12128.24" />
		<line x1="-9198.56" y1="-12377.32" x2="-9118.44" y2="-12317.47" />
		<line x1="-9118.44" y1="-12317.47" x2="-9038.32" y2="-12257.62" />
		<line x1="-9038.32" y1="-12257.62" x2="-9047.16" y2="-12158.01" />
		<line x1="-9047.16" y1="-12158.01" x2="-9136.56" y2="-12113.2" />
		<line x1="-9047.16" y1="-12158.01" x2="-8967.04" y2="-12098.16" />
		<line x1="-9038.32" y1="-12257.62" x2="-8945.31" y2="-12294.35" />
		<line x1="-8945.31" y1="-12294.35" x2="-8865.19" y2="-12234.5" />
		<line x1="-8945.31" y1="-12294.35" x2="-8927.71" y2="-12392.79" />
		<line x1="-8448.0" y1="-13134.24" x2="-8367.88" y2="-13074.39" />
		<line x1="-8367.88" y1="-13074.39" x2="-8287.76" y2="-13014.54" />
		<line x1="-8287.76" y1="-13014.54" x2="-8207.64" y2="-12954.69" />
		<line x1="-8207.64" y1="-12954.69" x2="-8127.52" y2="-12894.84" />
		<line x1="-8127.52" y1="-12894.84" x2="-8047.4" y2="-12834.99" />
		<line x1="-8047.4" y1="-12834.99" x2="-7967.28" y2="-12775.14" />
		<line x1="-7967.28" y1="-12775.14" x2="-7887.16" y2="-12715.29" />
		<line x1="-7887.16" y1="-12715.29" x2="-7807.04" y2="-12655.44" />
		<line x1="-7807.04" y1="-12655.44" x2="-7815.88" y2="-12555.83" />
		<line x1="-7815.88" y1="-12555.83" x2="-7824.72" y2="-12456.22" />
		<line x1="-7824.72" y1="-12456.22" x2="-7833.56" y2="-12356.61" />
		<line x1="-7833.56" y1="-12356.61" x2="-7842.4" y2="-12257.0" />
		<line x1="-7842.4" y1="-12257.0" x2="-7931.8" y2="-12212.19" />
		<line x1="-7931.8" y1="-12212.19" x2="-8021.2" y2="-12167.38" />
		<line x1="-8021.2" y1="-12167.38" x2="-8106.29" y2="-12219.91" />
		<line x1="-8106.29" y1="-12219.91" x2="-8106.29" y2="-12319.91" />
		<line x1="-8106.29" y1="-12219.91" x2="-8195.69" y2="-12175.1" />
		<line x1="-8021.2" y1="-12167.38" x2="-8030.04" y2="-12067.77" />
		<line x1="-8030.04" y1="-12067.77" x2="-8119.44" y2="-12022.96" />
		<line x1="-8030.04" y1="-12067.77" x2="-7949.92" y2="-12007.92" />
		<line x1="-7842.4" y1="-12257.0" x2="-7762.28" y2="-12197.15" />
		<line x1="-7762.28" y1="-12197.15" x2="-7682.16" y2="-12137.3" />
		<line x1="-7682.16" y1="-12137.3" x2="-7691.0" y2="-12037.69" />
		<line x1="-7691.0" y1="-12037.69" x2="-7780.4" y2="-11992.88" />
		<line x1="-7691.0" y1="-12037.69" x2="-7610.88" y2="-11977.84" />
		<line x1="-7682.16" y1="-12137.3" x2="-7589.15" y2="-12174.03" />
		<line x1="-7589.15" y1="-12174.03" x2="-7509.03" y2="-12114.18" />
		<line x1="-7589.15" y1="-12174.03" x2="-7571.55" y2="-12272.47" />
		<line x1="-7807.04" y1="-12655.44" x2="-7714.03" y2="-12692.17" />
		<line x1="-7714.03" y1="-12692.17" x2="-7621.02" y2="-12728.9" />
		<line x1="-7621.02" y1="-12728.9" x2="-7528.01" y2="-12765.63" />
		<line x1="-7528.01" y1="-12765.63" x2="-7435.0" y2="-12802.36" />
		<line x1="-7435.0" y1="-12802.36" x2="-7354.88" y2="-12742.51" />
		<line x1="-7354.88" y1="-12742.51" x2="-7274.76" y2="-12682.66" />
		<line x1="-7274.76" y1="-12682.66" x2="-7283.6" y2="-12583.05" />
		<line x1="-7283.6" y1="-12583.05" x2="-7373.0" y2="-12538.24" />
		<line x1="-7283.6" y1="-12583.05" x2="-7203.48" y2="-12523.2" />
		<line x1="-7274.76" y1="-12682.66" x2="-7181.75" y2="-12719.39" />
		<line x1="-7181.75" y1="-12719.39" x2="-7101.63" y2="-12659.54" />
		<line x1="-7181.75" y1="-12719.39" x2="-7164.15" y2="-12817.83" />
		<line x1="-7435.0" y1="-12802.36" x2="-7417.4" y2="-12900.8" />
		<line x1="-7417.4" y1="-12900.8" x2="-7399.8" y2="-12999.24" />
		<line x1="-7399.8" y1="-12999.24" x2="-7306.79" y2="-13035.97" />
		<line x1="-7306.79" y1="-13035.97" x2="-7226.67" y2="-12976.12" />
		<line x1="-7306.79" y1="-13035.97" x2="-7289.19" y2="-13134.41" />
		<line x1="-7399.8" y1="-12999.24" x2="-7474.31" y2="-13065.93" />
		<line x1="-7474.31" y1="-13065.93" x2="-7456.71" y2="-13164.37" />
		<line x1="-7474.31" y1="-13065.93" x2="-7570.2" y2="-13037.56" />
	</g>
</svg>
