<?xml version="1.0" standalone="no"?>
<svg viewBox="-1000.0 -1800.0 1500.0 2300.0" version="1.1" xmlns="http://www.w3.org/2000/svg">
	<g stroke="black" fill="transparent" stroke-width="5">
		<line x1="0" y1="0" x2="0.0" y2="-100.0" />
		<line x1="0.0" y1="-100.0" x2="100.0" y2="-100.0" />
		<line x1="100.0" y1="-100.0" x2="100.0" y2="0.0" />
		<line x1="100.0" y1="0.0" x2="200.0" y2="0.0" />
		<line x1="200.0" y1="0.0" x2="200.0" y2="100.0" />
		<line x1="200.0" y1="100.0" x2="100.0" y2="100.0" />
		<line x1="100.0" y1="100.0" x2="100.0" y2="200.0" />
		<line x1="100.0" y1="200.0" x2="200.0" y2="200.0" />
		<line x1="200.0" y1="200.0" x2="200.0" y2="300.0" />
		<line x1="200.0" y1="300.0" x2="100.0" y2="300.0" />
		<line x1="100.0" y1="300.0" x2="100.0" y2="200.0" />
		<line x1="100.0" y1="200.0" x2="0.0" y2="200.0" />
		<line x1="0.0" y1="200.0" x2="0.0" y2="300.0" />
		<line x1="0.0" y1="300.0" x2="-100.0" y2="300.0" />
		<line x1="-100.0" y1="300.0" x2="-100.0" y2="400.0" />
		<line x1="-100.0" y1="400.0" x2="0.0" y2="400.0" />
		<line x1="0.0" y1="400.0" x2="0.0" y2="500.0" />
		<line x1="0.0" y1="500.0" x2="-100.0" y2="500.0" />
		<line x1="-100.0" y1="500.0" x2="-100.0" y2="400.0" />
		<line x1="-100.0" y1="400.0" x2="-200.0" y2="400.0" />
		<line x1="-200.0" y1="400.0" x2="-200.0" y2="300.0" />
		<line x1="-200.0" y1="300.0" x2="-100.0" y2="300.0" />
		<line x1="-100.0" y1="300.0" x2="-100.0" y2="200.0" />
		<line x1="-100.0" y1="200.0" x2="-200.0" y2="200.0" />
		<line x1="-200.0" y1="200.0" x2="-200.0" y2="300.0" />
		<line x1="-200.0" y1="300.0" x2="-300.0" y2="300.0" />
		<line x1="-300.0" y1="300.0" x2="-300.0" y2="200.0" />
		<line x1="-300.0" y1="200.0" x2="-400.0" y2="200.0" />
		<line x1="-400.0" y1="200.0" x2="-400.0" y2="300.0" />
		<line x1="-400.0" y1="300.0" x2="-500.0" y2="300.0" />
		<line x1="-500.0" y1="300.0" x2="-500.0" y2="400.0" />
		<line x1="-500.0" y1="400.0" x2="-400.0" y2="400.0" />
		<line x1="-400.0" y1="400.0" x2="-400.0" y2="500.0" />
		<line x1="-400.0" y1="500.0" x2="-500.0" y2="500.0" />
		<line x1="-500.0" y1="500.0" x2="-500.0" y2="400.0" />
		<line x1="-500.0" y1="400.0" x2="-600.0" y2="400.0" />
		<line x1="-600.0" y1="400.0" x2="-600.0" y2="300.0" />
		<line x1="-600.0" y1="300.0" x2="-500.0" y2="300.0" />
		<line x1="-500.0" y1="300.0" x2="-500.0" y2="200.0" />
		<line x1="-500.0" y1="200.0" x2="-600.0" y2="200.0" />
		<line x1="-600.0" y1="200.0" x2="-600.0" y2="100.0" />
		<line x1="-600.0" y1="100.0" x2="-500.0" y2="100.0" />
		<line x1="-500.0" y1="100.0" x2="-500.0" y2="200.0" />
		<line x1="-500.0" y1="200.0" x2="-400.0" y2="200.0" />
		<line x1="-400.0" y1="200.0" x2="-400.0" y2="100.0" />
		<line x1="-400.0" y1="100.0" x2="-300.0" y2="100.0" />
		<line x1="-300.0" y1="100.0" x2="-300.0" y2="0.0" />
		<line x1="-300.0" y1="0.0" x2="-400.0" y2="0.0" />
		<line x1="-400.0" y1="0.0" x2="-400.0" y2="100.0" />
		<line x1="-400.0" y1="100.0" x2="-500.0" y2="100.0" />
		<line x1="-500.0" y1="100.0" x2="-500.0" y2="0.0" />
		<line x1="-500.0" y1="0.0" x2="-600.0" y2="0.0" />
		<line x1="-600.0" y1="0.0" x2="-600.0" y2="-100.0" />
		<line x1="-600.0" y1="-100.0" x2="-500.0" y2="-100.0" />
		<line x1="-500.0" y1="-100.0" x2="-500.0" y2="-200.0" />
		<line x1="-500.0" y1="-200.0" x2="-600.0" y2="-200.0" />
		<line x1="-600.0" y1="-200.0" x2="-600.0" y2="-100.0" />
		<line x1="-600.0" y1="-100.0" x2="-700.0" y2="-100.0" />
		<line x1="-700.0" y1="-100.0" x2="-700.0" y2="-200.0" />
		<line x1="-700.0" y1="-200.0" x2="-800.0" y2="-200.0" />
		<line x1="-800.0" y1="-200.0" x2="-800.0" y2="-100.0" />
		<line x1="-800.0" y1="-100.0" x2="-900.0" y2="-100.0" />
		<line x1="-900.0" y1="-100.0" x2="-900.0" y2="0.0" />
		<line x1="-900.0" y1="0.0" x2="-800.0" y2="0.0" />
		<line x1="-800.0" y1="0.0" x2="-800.0" y2="100.0" />
		<line x1="-800.0" y1="100.0" x2="-900.0" y2="100.0" />
		<line x1="-900.0" y1="100.0" x2="-900.0" y2="0.0" />
		<line x1="-900.0" y1="0.0" x2="-1000.0" y2="0.0" />
		<line x1="-1000.0" y1="0.0" x2="-1000.0" y2="-100.0" />
		<line x1="-1000.0" y1="-100.0" x2="-900.0" y2="-100.0" />
		<line x1="-900.0" y1="-100.0" x2="-900.0" y2="-200.0" />
		<line x1="-900.0" y1="-200.0" x2="-1000.0" y2="-200.0" />
		<line x1="-1000.0" y1="-200.0" x2="-1000.0" y2="-300.0" />
		<line x1="-1000.0" y1="-300.0" x2="-900.0" y2="-300.0" />
		<line x1="-900.0" y1="-300.0" x2="-900.0" y2="-200.0" />
		<line x1="-900.0" y1="-200.0" x2="-800.0" y2="-200.0" />
		<line x1="-800.0" y1="-200.0" x2="-800.0" y2="-300.0" />
		<line x1="-800.0" y1="-300.0" x2="-700.0" y2="-300.0" />
		<line x1="-700.0" y1="-300.0" x2="-700.0" y2="-400.0" />
		<line x1="-700.0" y1="-400.0" x2="-800.0" y2="-400.0" />
		<line x1="-800.0" y1="-400.0" x2="-800.0" y2="-500.0" />
		<line x1="-800.0" y1="-500.0" x2="-700.0" y2="-500.0" />
		<line x1="-700.0" y1="-500.0" x2="-700.0" y2="-400.0" />
		<line x1="-700.0" y1="-400.0" x2="-600.0" y2="-400.0" />
		<line x1="-600.0" y1="-400.0" x2="-600.0" y2="-300.0" />
		<line x1="-600.0" y1="-300.0" x2="-700.0" y2="-300.0" />
		<line x1="-700.0" y1="-300.0" x2="-700.0" y2="-200.0" />
		<line x1="-700.0" y1="-200.0" x2="-600.0" y2="-200.0" />
		<line x1="-600.0" y1="-200.0" x2="-600.0" y2="-300.0" />
		<line x1="-600.0" y1="-300.0" x2="-500.0" y2="-300.0" />
		<line x1="-500.0" y1="-300.0" x2="-500.0" y2="-200.0" />
		<line x1="-500.0" y1="-200.0" x2="-400.0" y2="-200.0" />
		<line x1="-400.0" y1="-200.0" x2="-400.0" y2="-300.0" />
		<line x1="-400.0" y1="-300.0" x2="-300.0" y2="-300.0" />
		<line x1="-300.0" y1="-300.0" x2="-300.0" y2="-400.0" />
		<line x1="-300.0" y1="-400.0" x2="-400.0" y2="-400.0" />
		<line x1="-400.0" y1="-400.0" x2="-400.0" y2="-300.0" />
		<line x1="-400.0" y1="-300.0" x2="-500.0" y2="-300.0" />
		<line x1="-500.0" y1="-300.0" x2="-500.0" y2="-400.0" />
		<line x1="-500.0" y1="-400.0" x2="-600.0" y2="-400.0" />
		<line x1="-600.0" y1="-400.0" x2="-600.0" y2="-500.0" />
		<line x1="-600.0" y1="-500.0" x2="-500.0" y2="-500.0" />
		<line x1="-500.0" y1="-500.0" x2="-500.0" y2="-600.0" />
		<line x1="-500.0" y1="-600.0" x2="-600.0" y2="-600.0" />
		<line x1="-600.0" y1="-600.0" x2="-600.0" y2="-700.0" />
		<line x1="-600.0" y1="-700.0" x2="-500.0" y2="-700.0" />
		<line x1="-500.0" y1="-700.0" x2="-500.0" y2="-600.0" />
		<line x1="-500.0" y1="-600.0" x2="-400.0" y2="-600.0" />
		<line x1="-400.0" y1="-600.0" x2="-400.0" y2="-700.0" />
		<line x1="-400.0" y1="-700.0" x2="-300.0" y2="-700.0" />
		<line x1="-300.0" y1="-700.0" x2="-300.0" y2="-800.0" />
		<line x1="-300.0" y1="-800.0" x2="-400.0" y2="-800.0" />
		<line x1="-400.0" y1="-800.0" x2="-400.0" y2="-700.0" />
		<line x1="-400.0" y1="-700.0" x2="-500.0" y2="-700.0" />
		<line x1="-500.0" y1="-700.0" x2="-500.0" y2="-800.0" />
		<line x1="-500.0" y1="-800.0" x2="-600.0" y2="-800.0" />
		<line x1="-600.0" y1="-800.0" x2="-600.0" y2="-900.0" />
		<line x1="-600.0" y1="-900.0" x2="-500.0" y2="-900.0" />
		<line x1="-500.0" y1="-900.0" x2="-500.0" y2="-1000.0" />
		<line x1="-500.0" y1="-1000.0" x2="-600.0" y2="-1000.0" />
		<line x1="-600.0" y1="-1000.0" x2="-600.0" y2="-900.0" />
		<line x1="-600.0" y1="-900.0" x2="-700.0" y2="-900.0" />
		<line x1="-700.0" y1="-900.0" x2="-700.0" y2="-1000.0" />
		<line x1="-700.0" y1="-1000.0" x2="-800.0" y2="-1000.0" />
		<line x1="-800.0" y1="-1000.0" x2="-800.0" y2="-900.0" />
		<line x1="-800.0" y1="-900.0" x2="-900.0" y2="-900.0" />
		<line x1="-900.0" y1="-900.0" x2="-900.0" y2="-800.0" />
		<line x1="-900.0" y1="-800.0" x2="-800.0" y2="-800.0" />
		<line x1="-800.0" y1="-800.0" x2="-800.0" y2="-700.0" />
		<line x1="-800.0" y1="-700.0" x2="-900.0" y2="-700.0" />
		<line x1="-900.0" y1="-700.0" x2="-900.0" y2="-800.0" />
		<line x1="-900.0" y1="-800.0" x2="-1000.0" y2="-800.0" />
		<line x1="-1000.0" y1="-800.0" x2="-1000.0" y2="-900.0" />
		<line x1="-1000.0" y1="-900.0" x2="-900.0" y2="-900.0" />
		<line x1="-900.0" y1="-900.0" x2="-900.0" y2="-1000.0" />
		<line x1="-900.0" y1="-1000.0" x2="-1000.0" y2="-1000.0" />
		<line x1="-1000.0" y1="-1000.0" x2="-1000.0" y2="-1100.0" />
		<line x1="-1000.0" y1="-1100.0" x2="-900.0" y2="-1100.0" />
		<line x1="-900.0" y1="-1100.0" x2="-900.0" y2="-1000.0" />
		<line x1="-900.0" y1="-1000.0" x2="-800.0" y2="-1000.0" />
		<line x1="-800.0" y1="-1000.0" x2="-800.0" y2="-1100.0" />
		<line x1="-800.0" y1="-1100.0" x2="-700.0" y2="-1100.0" />
		<line x1="-700.0" y1="-1100.0" x2="-700.0" y2="-1200.0" />
		<line x1="-700.0" y1="-1200.0" x2="-800.0" y2="-1200.0" />
		<line x1="-800.0" y1="-1200.0" x2="-800.0" y2="-1300.0" />
		<line x1="-800.0" y1="-1300.0" x2="-700.0" y2="-1300.0" />
		<line x1="-700.0" y1="-1300.0" x2="-700.0" y2="-1200.0" />
		<line x1="-700.0" y1="-1200.0" x2="-600.0" y2="-1200.0" />
		<line x1="-600.0" y1="-1200.0" x2="-600.0" y2="-1100.0" />
		<line x1="-600.0" y1="-1100.0" x2="-700.0" y2="-1100.0" />
		<line x1="-700.0" y1="-1100.0" x2="-700.0" y2="-1000.0" />
		<line x1="-700.0" y1="-1000.0" x2="-600.0" y2="-1000.0" />
		<line x1="-600.0" y1="-1000.0" x2="-600.0" y2="-1100.0" />
		<line x1="-600.0" y1="-1100.0" x2="-500.0" y2="-1100.0" />
		<line x1="-500.0" y1="-1100.0" x2="-500.0" y2="-1000.0" />
		<line x1="-500.0" y1="-1000.0" x2="-400.0" y2="-1000.0" />
		<line x1="-400.0" y1="-1000.0" x2="-400.0" y2="-1100.0" />
		<line x1="-400.0" y1="-1100.0" x2="-300.0" y2="-1100.0" />
		<line x1="-300.0" y1="-1100.0" x2="-300.0" y2="-1200.0" />
		<line x1="-300.0" y1="-1200.0" x2="-400.0" y2="-1200.0" />
		<line x1="-400.0" y1="-1200.0" x2="-400.0" y2="-1300.0" />
		<line x1="-400.0" y1="-1300.0" x2="-300.0" y2="-1300.0" />
		<line x1="-300.0" y1="-1300.0" x2="-300.0" y2="-1200.0" />
		<line x1="-300.0" y1="-1200.0" x2="-200.0" y2="-1200.0" />
		<line x1="-200.0" y1="-1200.0" x2="-200.0" y2="-1100.0" />
		<line x1="-200.0" y1="-1100.0" x2="-300.0" y2="-1100.0" />
		<line x1="-300.0" y1="-1100.0" x2="-300.0" y2="-1000.0" />
		<line x1="-300.0" y1="-1000.0" x2="-200.0" y2="-1000.0" />
		<line x1="-200.0" y1="-1000.0" x2="-200.0" y2="-900.0" />
		<line x1="-200.0" y1="-900.0" x2="-300.0" y2="-900.0" />
		<line x1="-300.0" y1="-900.0" x2="-300.0" y2="-1000.0" />
		<line x1="-300.0" y1="-1000.0" x2="-400.0" y2="-1000.0" />
		<line x1="-400.0" y1="-1000.0" x2="-400.0" y2="-900.0" />
		<line x1="-400.0" y1="-900.0" x2="-500.0" y2="-900.0" />
		<line x1="-500.0" y1="-900.0" x2="-500.0" y2="-800.0" />
		<line x1="-500.0" y1="-800.0" x2="-400.0" y2="-800.0" />
		<line x1="-400.0" y1="-800.0" x2="-400.0" y2="-900.0" />
		<line x1="-400.0" y1="-900.0" x2="-300.0" y2="-900.0" />
		<line x1="-300.0" y1="-900.0" x2="-300.0" y2="-800.0" />
		<line x1="-300.0" y1="-800.0" x2="-200.0" y2="-800.0" />
		<line x1="-200.0" y1="-800.0" x2="-200.0" y2="-700.0" />
		<line x1="-200.0" y1="-700.0" x2="-300.0" y2="-700.0" />
		<line x1="-300.0" y1="-700.0" x2="-300.0" y2="-600.0" />
		<line x1="-300.0" y1="-600.0" x2="-200.0" y2="-600.0" />
		<line x1="-200.0" y1="-600.0" x2="-200.0" y2="-700.0" />
		<line x1="-200.0" y1="-700.0" x2="-100.0" y2="-700.0" />
		<line x1="-100.0" y1="-700.0" x2="-100.0" y2="-600.0" />
		<line x1="-100.0" y1="-600.0" x2="0.0" y2="-600.0" />
		<line x1="0.0" y1="-600.0" x2="0.0" y2="-700.0" />
		<line x1="0.0" y1="-700.0" x2="100.0" y2="-700.0" />
		<line x1="100.0" y1="-700.0" x2="100.0" y2="-800.0" />
		<line x1="100.0" y1="-800.0" x2="0.0" y2="-800.0" />
		<line x1="0.0" y1="-800.0" x2="0.0" y2="-700.0" />
		<line x1="0.0" y1="-700.0" x2="-100.0" y2="-700.0" />
		<line x1="-100.0" y1="-700.0" x2="-100.0" y2="-800.0" />
		<line x1="-100.0" y1="-800.0" x2="-200.0" y2="-800.0" />
		<line x1="-200.0" y1="-800.0" x2="-200.0" y2="-900.0" />
		<line x1="-200.0" y1="-900.0" x2="-100.0" y2="-900.0" />
		<line x1="-100.0" y1="-900.0" x2="-100.0" y2="-1000.0" />
		<line x1="-100.0" y1="-1000.0" x2="-200.0" y2="-1000.0" />
		<line x1="-200.0" y1="-1000.0" x2="-200.0" y2="-1100.0" />
		<line x1="-200.0" y1="-1100.0" x2="-100.0" y2="-1100.0" />
		<line x1="-100.0" y1="-1100.0" x2="-100.0" y2="-1000.0" />
		<line x1="-100.0" y1="-1000.0" x2="0.0" y2="-1000.0" />
		<line x1="0.0" y1="-1000.0" x2="0.0" y2="-1100.0" />
		<line x1="0.0" y1="-1100.0" x2="100.0" y2="-1100.0" />
		<line x1="100.0" y1="-1100.0" x2="100.0" y2="-1200.0" />
		<line x1="100.0" y1="-1200.0" x2="0.0" y2="-1200.0" />
		<line x1="0.0" y1="-1200.0" x2="0.0" y2="-1300.0" />
		<line x1="0.0" y1="-1300.0" x2="100.0" y2="-1300.0" />
		<line x1="100.0" y1="-1300.0" x2="100.0" y2="-1200.0" />
		<line x1="100.0" y1="-1200.0" x2="200.0" y2="-1200.0" />
		<line x1="200.0" y1="-1200.0" x2="200.0" y2="-1100.0" />
		<line x1="200.0" y1="-1100.0" x2="100.0" y2="-1100.0" />
		<line x1="100.0" y1="-1100.0" x2="100.0" y2="-1000.0" />
		<line x1="100.0" y1="-1000.0" x2="200.0" y2="-1000.0" />
		<line x1="200.0" y1="-1000.0" x2="200.0" y2="-1100.0" />
		<line x1="200.0" y1="-1100.0" x2="300.0" y2="-1100.0" />
		<line x1="300.0" y1="-1100.0" x2="300.0" y2="-1000.0" />
		<line x1="300.0" y1="-1000.0" x2="400.0" y2="-1000.0" />
		<line x1="400.0" y1="-1000.0" x2="400.0" y2="-1100.0" />
		<line x1="400.0" y1="-1100.0" x2="500.0" y2="-1100.0" />
		<line x1="500.0" y1="-1100.0" x2="500.0" y2="-1200.0" />
		<line x1="500.0" y1="-1200.0" x2="400.0" y2="-1200.0" />
		<line x1="400.0" y1="-1200.0" x2="400.0" y2="-1100.0" />
		<line x1="400.0" y1="-1100.0" x2="300.0" y2="-1100.0" />
		<line x1="300.0" y1="-1100.0" x2="300.0" y2="-1200.0" />
		<line x1="300.0" y1="-1200.0" x2="200.0" y2="-1200.0" />
		<line x1="200.0" y1="-1200.0" x2="200.0" y2="-1300.0" />
		<line x1="200.0" y1="-1300.0" x2="300.0" y2="-1300.0" />
		<line x1="300.0" y1="-1300.0" x2="300.0" y2="-1400.0" />
		<line x1="300.0" y1="-1400.0" x2="200.0" y2="-1400.0" />
		<line x1="200.0" y1="-1400.0" x2="200.0" y2="-1500.0" />
		<line x1="200.0" y1="-1500.0" x2="300.0" y2="-1500.0" />
		<line x1="300.0" y1="-1500.0" x2="300.0" y2="-1400.0" />
		<line x1="300.0" y1="-1400.0" x2="400.0" y2="-1400.0" />
		<line x1="400.0" y1="-1400.0" x2="400.0" y2="-1500.0" />
		<line x1="400.0" y1="-1500.0" x2="500.0" y2="-1500.0" />
		<line x1="500.0" y1="-1500.0" x2="500.0" y2="-1600.0" />
		<line x1="500.0" y1="-1600.0" x2="400.0" y2="-1600.0" />
		<line x1="400.0" y1="-1600.0" x2="400.0" y2="-1500.0" />
		<line x1="400.0" y1="-1500.0" x2="300.0" y2="-1500.0" />
		<line x1="300.0" y1="-1500.0" x2="300.0" y2="-1600.0" />
		<line x1="300.0" y1="-1600.0" x2="200.0" y2="-1600.0" />
		<line x1="200.0" y1="-1600.0" x2="200.0" y2="-1700.0" />
		<line x1="200.0" y1="-1700.0" x2="300.0" y2="-1700.0" />
		<line x1="300.0" y1="-1700.0" x2="300.0" y2="-1800.0" />
		<line x1="300.0" y1="-1800.0" x2="200.0" y2="-1800.0" />
		<line x1="200.0" y1="-1800.0" x2="200.0" y2="-1700.0" />
		<line x1="200.0" y1="-1700.0" x2="100.0" y2="-1700.0" />
		<line x1="100.0" y1="-1700.0" x2="100.0" y2="-1800.0" />
		<line x1="100.0" y1="-1800.0" x2="0.0" y2="-1800.0" />
		<line x1="0.0" y1="-1800.0" x2="0.0" y2="-1700.0" />
		<line x1="0.0" y1="-1700.0" x2="-100.0" y2="-1700.0" />
		<line x1="-100.0" y1="-1700.0" x2="-100.0" y2="-1600.0" />
		<line x1="-100.0" y1="-1600.0" x2="0.0" y2="-1600.0" />
	</g>
</svg>
